G04 #@! TF.FileFunction,Soldermask,Bot*
%FSLAX46Y46*%
G04 Gerber Fmt 4.6, Leading zero omitted, Abs format (unit mm)*
G04 Created by KiCad (PCBNEW 4.0.7) date 12/21/18 01:54:59*
%MOMM*%
%LPD*%
G01*
G04 APERTURE LIST*
%ADD10C,0.100000*%
%ADD11R,1.400000X1.400000*%
%ADD12O,1.400000X1.400000*%
%ADD13R,2.000000X2.000000*%
%ADD14O,2.000000X2.000000*%
%ADD15R,2.100000X2.100000*%
%ADD16O,2.100000X2.100000*%
%ADD17R,2.200000X2.200000*%
%ADD18O,2.200000X2.200000*%
%ADD19C,2.000000*%
%ADD20C,3.200000*%
%ADD21O,3.200000X3.200000*%
%ADD22C,2.400000*%
G04 APERTURE END LIST*
D10*
D11*
X82500000Y-87500000D03*
D12*
X82500000Y-88770000D03*
X82500000Y-90040000D03*
X82500000Y-91310000D03*
D13*
X57000000Y-43400000D03*
D14*
X72240000Y-76420000D03*
X57000000Y-45940000D03*
X72240000Y-73880000D03*
X57000000Y-48480000D03*
X72240000Y-71340000D03*
X57000000Y-51020000D03*
X72240000Y-68800000D03*
X57000000Y-53560000D03*
X72240000Y-66260000D03*
X57000000Y-56100000D03*
X72240000Y-63720000D03*
X57000000Y-58640000D03*
X72240000Y-61180000D03*
X57000000Y-61180000D03*
X72240000Y-58640000D03*
X57000000Y-63720000D03*
X72240000Y-56100000D03*
X57000000Y-66260000D03*
X72240000Y-53560000D03*
X57000000Y-68800000D03*
X72240000Y-51020000D03*
X57000000Y-71340000D03*
X72240000Y-48480000D03*
X57000000Y-73880000D03*
X72240000Y-45940000D03*
X57000000Y-76420000D03*
X72240000Y-43400000D03*
D15*
X64000000Y-24500000D03*
D16*
X66540000Y-24500000D03*
D17*
X62500000Y-33500000D03*
D18*
X65040000Y-33500000D03*
X67580000Y-33500000D03*
D13*
X80750000Y-46000000D03*
D19*
X80750000Y-43500000D03*
D20*
X38000000Y-63750000D03*
D21*
X38000000Y-43430000D03*
D20*
X38000000Y-94250000D03*
D21*
X38000000Y-73930000D03*
D13*
X90300000Y-43600000D03*
D19*
X90300000Y-46100000D03*
D15*
X82000000Y-36250000D03*
D16*
X82000000Y-33710000D03*
D15*
X84700000Y-79600000D03*
D16*
X84700000Y-77060000D03*
X84700000Y-74520000D03*
D15*
X103125000Y-103875000D03*
D16*
X103125000Y-106415000D03*
D15*
X100000000Y-93500000D03*
D16*
X100000000Y-96040000D03*
X97460000Y-93500000D03*
X97460000Y-96040000D03*
X94920000Y-93500000D03*
X94920000Y-96040000D03*
X92380000Y-93500000D03*
X92380000Y-96040000D03*
X89840000Y-93500000D03*
X89840000Y-96040000D03*
D15*
X90400000Y-36200000D03*
D16*
X90400000Y-33660000D03*
D15*
X48500000Y-95250000D03*
D16*
X48500000Y-97790000D03*
D11*
X52400000Y-54800000D03*
X59750000Y-81500000D03*
D22*
X41250000Y-30750000D03*
X41250000Y-35250000D03*
X34750000Y-30750000D03*
X34750000Y-35250000D03*
M02*
