G04 #@! TF.FileFunction,Other,User*
%FSLAX46Y46*%
G04 Gerber Fmt 4.6, Leading zero omitted, Abs format (unit mm)*
G04 Created by KiCad (PCBNEW 4.0.7) date 11/10/18 18:38:00*
%MOMM*%
%LPD*%
G01*
G04 APERTURE LIST*
%ADD10C,0.100000*%
%ADD11C,0.050000*%
G04 APERTURE END LIST*
D10*
D11*
X75840000Y-93980000D02*
G75*
G03X75840000Y-93980000I-3450000J0D01*
G01*
X25040000Y-19050000D02*
G75*
G03X25040000Y-19050000I-3450000J0D01*
G01*
X75840000Y-19050000D02*
G75*
G03X75840000Y-19050000I-3450000J0D01*
G01*
X27410000Y-91970000D02*
X53860000Y-91970000D01*
X53860000Y-91970000D02*
X53860000Y-85820000D01*
X53860000Y-85820000D02*
X27410000Y-85820000D01*
X27410000Y-85820000D02*
X27410000Y-91970000D01*
X65060000Y-45940000D02*
X69560000Y-45940000D01*
X65060000Y-45940000D02*
X65060000Y-48040000D01*
X69560000Y-48040000D02*
X69560000Y-45940000D01*
X69560000Y-48040000D02*
X65060000Y-48040000D01*
X31470000Y-45390000D02*
X31470000Y-81640000D01*
X31470000Y-81640000D02*
X49820000Y-81640000D01*
X49820000Y-81640000D02*
X49820000Y-45390000D01*
X49820000Y-45390000D02*
X31470000Y-45390000D01*
X42200000Y-29600000D02*
X46700000Y-29600000D01*
X42200000Y-29600000D02*
X42200000Y-31350000D01*
X46700000Y-31350000D02*
X46700000Y-29600000D01*
X46700000Y-31350000D02*
X42200000Y-31350000D01*
X39080000Y-31360000D02*
X34580000Y-31360000D01*
X39080000Y-31360000D02*
X39080000Y-29610000D01*
X34580000Y-29610000D02*
X34580000Y-31360000D01*
X34580000Y-29610000D02*
X39080000Y-29610000D01*
X44980000Y-17250000D02*
X38830000Y-17250000D01*
X38830000Y-17250000D02*
X38830000Y-20850000D01*
X38830000Y-20850000D02*
X44980000Y-20850000D01*
X44980000Y-20850000D02*
X44980000Y-17250000D01*
X45890000Y-28150000D02*
X45890000Y-23240000D01*
X45890000Y-23240000D02*
X35390000Y-23240000D01*
X35390000Y-23240000D02*
X35390000Y-28150000D01*
X35390000Y-28150000D02*
X45890000Y-28150000D01*
X56860000Y-49140000D02*
X52360000Y-49140000D01*
X56860000Y-49140000D02*
X56860000Y-47390000D01*
X52360000Y-47390000D02*
X52360000Y-49140000D01*
X52360000Y-47390000D02*
X56860000Y-47390000D01*
X56860000Y-46600000D02*
X52360000Y-46600000D01*
X56860000Y-46600000D02*
X56860000Y-44850000D01*
X52360000Y-44850000D02*
X52360000Y-46600000D01*
X52360000Y-44850000D02*
X56860000Y-44850000D01*
X58130000Y-55490000D02*
X53630000Y-55490000D01*
X58130000Y-55490000D02*
X58130000Y-53740000D01*
X53630000Y-53740000D02*
X53630000Y-55490000D01*
X53630000Y-53740000D02*
X58130000Y-53740000D01*
X58130000Y-58030000D02*
X53630000Y-58030000D01*
X58130000Y-58030000D02*
X58130000Y-56280000D01*
X53630000Y-56280000D02*
X53630000Y-58030000D01*
X53630000Y-56280000D02*
X58130000Y-56280000D01*
X27650000Y-54220000D02*
X23150000Y-54220000D01*
X27650000Y-54220000D02*
X27650000Y-52470000D01*
X23150000Y-52470000D02*
X23150000Y-54220000D01*
X23150000Y-52470000D02*
X27650000Y-52470000D01*
X25030000Y-62420000D02*
X25030000Y-67120000D01*
X25030000Y-62420000D02*
X23230000Y-62420000D01*
X23230000Y-67120000D02*
X25030000Y-67120000D01*
X23230000Y-67120000D02*
X23230000Y-62420000D01*
X27970000Y-56020000D02*
X27970000Y-60820000D01*
X25370000Y-56020000D02*
X27970000Y-56020000D01*
X25370000Y-60820000D02*
X25370000Y-56020000D01*
X27970000Y-60820000D02*
X25370000Y-60820000D01*
X65060000Y-49920000D02*
X69560000Y-49920000D01*
X65060000Y-49920000D02*
X65060000Y-51670000D01*
X69560000Y-51670000D02*
X69560000Y-49920000D01*
X69560000Y-51670000D02*
X65060000Y-51670000D01*
X28230000Y-41030000D02*
X32730000Y-41030000D01*
X28230000Y-41030000D02*
X28230000Y-42780000D01*
X32730000Y-42780000D02*
X32730000Y-41030000D01*
X32730000Y-42780000D02*
X28230000Y-42780000D01*
X28820000Y-46010000D02*
X28820000Y-50510000D01*
X28820000Y-46010000D02*
X27070000Y-46010000D01*
X27070000Y-50510000D02*
X28820000Y-50510000D01*
X27070000Y-50510000D02*
X27070000Y-46010000D01*
X52360000Y-60080000D02*
X56860000Y-60080000D01*
X52360000Y-60080000D02*
X52360000Y-61830000D01*
X56860000Y-61830000D02*
X56860000Y-60080000D01*
X56860000Y-61830000D02*
X52360000Y-61830000D01*
X52360000Y-63890000D02*
X56860000Y-63890000D01*
X52360000Y-63890000D02*
X52360000Y-65640000D01*
X56860000Y-65640000D02*
X56860000Y-63890000D01*
X56860000Y-65640000D02*
X52360000Y-65640000D01*
X61250000Y-61350000D02*
X65750000Y-61350000D01*
X61250000Y-61350000D02*
X61250000Y-63100000D01*
X65750000Y-63100000D02*
X65750000Y-61350000D01*
X65750000Y-63100000D02*
X61250000Y-63100000D01*
X25040000Y-93980000D02*
G75*
G03X25040000Y-93980000I-3450000J0D01*
G01*
M02*
