G04 #@! TF.FileFunction,Soldermask,Bot*
%FSLAX46Y46*%
G04 Gerber Fmt 4.6, Leading zero omitted, Abs format (unit mm)*
G04 Created by KiCad (PCBNEW 4.0.7) date 11/14/18 00:40:59*
%MOMM*%
%LPD*%
G01*
G04 APERTURE LIST*
%ADD10C,0.100000*%
%ADD11C,3.600000*%
%ADD12R,2.100000X2.100000*%
%ADD13O,2.100000X2.100000*%
%ADD14R,2.000000X2.000000*%
%ADD15O,2.000000X2.000000*%
%ADD16R,2.200000X2.200000*%
%ADD17O,2.200000X2.200000*%
G04 APERTURE END LIST*
D10*
D11*
X72390000Y-93980000D03*
X21590000Y-19050000D03*
X72390000Y-19050000D03*
D12*
X29210000Y-90170000D03*
D13*
X29210000Y-87630000D03*
X31750000Y-90170000D03*
X31750000Y-87630000D03*
X34290000Y-90170000D03*
X34290000Y-87630000D03*
X36830000Y-90170000D03*
X36830000Y-87630000D03*
X39370000Y-90170000D03*
X39370000Y-87630000D03*
X41910000Y-90170000D03*
X41910000Y-87630000D03*
X44450000Y-90170000D03*
X44450000Y-87630000D03*
X46990000Y-90170000D03*
X46990000Y-87630000D03*
X49530000Y-90170000D03*
X49530000Y-87630000D03*
X52070000Y-90170000D03*
X52070000Y-87630000D03*
D14*
X33020000Y-46990000D03*
D15*
X48260000Y-80010000D03*
X33020000Y-49530000D03*
X48260000Y-77470000D03*
X33020000Y-52070000D03*
X48260000Y-74930000D03*
X33020000Y-54610000D03*
X48260000Y-72390000D03*
X33020000Y-57150000D03*
X48260000Y-69850000D03*
X33020000Y-59690000D03*
X48260000Y-67310000D03*
X33020000Y-62230000D03*
X48260000Y-64770000D03*
X33020000Y-64770000D03*
X48260000Y-62230000D03*
X33020000Y-67310000D03*
X48260000Y-59690000D03*
X33020000Y-69850000D03*
X48260000Y-57150000D03*
X33020000Y-72390000D03*
X48260000Y-54610000D03*
X33020000Y-74930000D03*
X48260000Y-52070000D03*
X33020000Y-77470000D03*
X48260000Y-49530000D03*
X33020000Y-80010000D03*
X48260000Y-46990000D03*
D12*
X43180000Y-19050000D03*
D13*
X40640000Y-19050000D03*
D16*
X43180000Y-25400000D03*
D17*
X40640000Y-25400000D03*
X38100000Y-25400000D03*
D11*
X21590000Y-93980000D03*
M02*
