M48
;DRILL file {KiCad 4.0.7} date 11/14/18 00:41:05
;FORMAT={-:-/ absolute / metric / decimal}
FMAT,2
METRIC,TZ
T1C0.400
T2C0.600
T3C0.800
T4C1.000
T5C3.200
%
G90
G05
M71
T1
X25.78Y-79.79
X29.21Y-60.96
T2
X25.78Y-50.79
X57.18Y-49.79
X57.18Y-52.99
T3
X33.02Y-46.99
X33.02Y-49.53
X33.02Y-52.07
X33.02Y-54.61
X33.02Y-57.15
X33.02Y-59.69
X33.02Y-62.23
X33.02Y-64.77
X33.02Y-67.31
X33.02Y-69.85
X33.02Y-72.39
X33.02Y-74.93
X33.02Y-77.47
X33.02Y-80.01
X48.26Y-46.99
X48.26Y-49.53
X48.26Y-52.07
X48.26Y-54.61
X48.26Y-57.15
X48.26Y-59.69
X48.26Y-62.23
X48.26Y-64.77
X48.26Y-67.31
X48.26Y-69.85
X48.26Y-72.39
X48.26Y-74.93
X48.26Y-77.47
X48.26Y-80.01
T4
X29.21Y-87.63
X29.21Y-90.17
X31.75Y-87.63
X31.75Y-90.17
X34.29Y-87.63
X34.29Y-90.17
X36.83Y-87.63
X36.83Y-90.17
X38.1Y-25.4
X39.37Y-87.63
X39.37Y-90.17
X40.64Y-19.05
X40.64Y-25.4
X41.91Y-87.63
X41.91Y-90.17
X43.18Y-19.05
X43.18Y-25.4
X44.45Y-87.63
X44.45Y-90.17
X46.99Y-87.63
X46.99Y-90.17
X49.53Y-87.63
X49.53Y-90.17
X52.07Y-87.63
X52.07Y-90.17
T5
X21.59Y-19.05
X21.59Y-93.98
X72.39Y-19.05
X72.39Y-93.98
T0
M30
