G04 #@! TF.FileFunction,Copper,L2,Bot,Signal*
%FSLAX46Y46*%
G04 Gerber Fmt 4.6, Leading zero omitted, Abs format (unit mm)*
G04 Created by KiCad (PCBNEW 4.0.7) date 11/10/18 18:38:00*
%MOMM*%
%LPD*%
G01*
G04 APERTURE LIST*
%ADD10C,0.100000*%
%ADD11C,3.200000*%
%ADD12R,1.700000X1.700000*%
%ADD13O,1.700000X1.700000*%
%ADD14R,1.600000X1.600000*%
%ADD15O,1.600000X1.600000*%
%ADD16R,1.800000X1.800000*%
%ADD17O,1.800000X1.800000*%
%ADD18C,0.600000*%
%ADD19C,0.800000*%
%ADD20C,0.400000*%
%ADD21C,0.600000*%
%ADD22C,0.254000*%
G04 APERTURE END LIST*
D10*
D11*
X72390000Y-93980000D03*
X21590000Y-19050000D03*
X72390000Y-19050000D03*
D12*
X29210000Y-90170000D03*
D13*
X29210000Y-87630000D03*
X31750000Y-90170000D03*
X31750000Y-87630000D03*
X34290000Y-90170000D03*
X34290000Y-87630000D03*
X36830000Y-90170000D03*
X36830000Y-87630000D03*
X39370000Y-90170000D03*
X39370000Y-87630000D03*
X41910000Y-90170000D03*
X41910000Y-87630000D03*
X44450000Y-90170000D03*
X44450000Y-87630000D03*
X46990000Y-90170000D03*
X46990000Y-87630000D03*
X49530000Y-90170000D03*
X49530000Y-87630000D03*
X52070000Y-90170000D03*
X52070000Y-87630000D03*
D14*
X33020000Y-46990000D03*
D15*
X48260000Y-80010000D03*
X33020000Y-49530000D03*
X48260000Y-77470000D03*
X33020000Y-52070000D03*
X48260000Y-74930000D03*
X33020000Y-54610000D03*
X48260000Y-72390000D03*
X33020000Y-57150000D03*
X48260000Y-69850000D03*
X33020000Y-59690000D03*
X48260000Y-67310000D03*
X33020000Y-62230000D03*
X48260000Y-64770000D03*
X33020000Y-64770000D03*
X48260000Y-62230000D03*
X33020000Y-67310000D03*
X48260000Y-59690000D03*
X33020000Y-69850000D03*
X48260000Y-57150000D03*
X33020000Y-72390000D03*
X48260000Y-54610000D03*
X33020000Y-74930000D03*
X48260000Y-52070000D03*
X33020000Y-77470000D03*
X48260000Y-49530000D03*
X33020000Y-80010000D03*
X48260000Y-46990000D03*
D12*
X43180000Y-19050000D03*
D13*
X40640000Y-19050000D03*
D16*
X43180000Y-25400000D03*
D17*
X40640000Y-25400000D03*
X38100000Y-25400000D03*
D11*
X21590000Y-93980000D03*
D18*
X29210000Y-60960000D03*
D19*
X57180000Y-49790000D03*
X57180000Y-52990000D03*
X25780000Y-50790000D03*
D18*
X25780000Y-79790000D03*
D20*
X33020000Y-57150000D02*
X29210000Y-60960000D01*
X29210000Y-87630000D02*
X29210000Y-87220000D01*
X29210000Y-87220000D02*
X23780000Y-81790000D01*
X28260000Y-67310000D02*
X33020000Y-67310000D01*
X23780000Y-71790000D02*
X28260000Y-67310000D01*
X23780000Y-81790000D02*
X23780000Y-71790000D01*
X31750000Y-87630000D02*
X31620000Y-87630000D01*
X31620000Y-87630000D02*
X24780000Y-80790000D01*
X27720000Y-69850000D02*
X33020000Y-69850000D01*
X24780000Y-72790000D02*
X27720000Y-69850000D01*
X24780000Y-80790000D02*
X24780000Y-72790000D01*
X36830000Y-72390000D02*
X33020000Y-72390000D01*
X39370000Y-74930000D02*
X36830000Y-72390000D01*
X39370000Y-87630000D02*
X39370000Y-74930000D01*
X35560000Y-74930000D02*
X36830000Y-76200000D01*
X36830000Y-87630000D02*
X36830000Y-76200000D01*
X35560000Y-74930000D02*
X33020000Y-74930000D01*
X34290000Y-77470000D02*
X35560000Y-78740000D01*
X34290000Y-87630000D02*
X34290000Y-83820000D01*
X35560000Y-82550000D02*
X35560000Y-78740000D01*
X34290000Y-83820000D02*
X35560000Y-82550000D01*
X34290000Y-77470000D02*
X33020000Y-77470000D01*
X46990000Y-87630000D02*
X46990000Y-81280000D01*
X46990000Y-81280000D02*
X48260000Y-80010000D01*
X44450000Y-87630000D02*
X44450000Y-81280000D01*
X44450000Y-81280000D02*
X48260000Y-77470000D01*
X41910000Y-87630000D02*
X41910000Y-81280000D01*
X41910000Y-81280000D02*
X48260000Y-74930000D01*
X49530000Y-87630000D02*
X49530000Y-83820000D01*
X50800000Y-74930000D02*
X48260000Y-72390000D01*
X50800000Y-82550000D02*
X50800000Y-74930000D01*
X49530000Y-83820000D02*
X50800000Y-82550000D01*
X52070000Y-87630000D02*
X52070000Y-73660000D01*
X52070000Y-73660000D02*
X48260000Y-69850000D01*
D21*
X57180000Y-52990000D02*
X57180000Y-49790000D01*
X26780000Y-32910000D02*
X40640000Y-19050000D01*
X26780000Y-49790000D02*
X26780000Y-32910000D01*
X25780000Y-50790000D02*
X26780000Y-49790000D01*
X33020000Y-80010000D02*
X26000000Y-80010000D01*
X26000000Y-80010000D02*
X25780000Y-79790000D01*
D22*
G36*
X20355390Y-17134640D02*
X20183403Y-17463798D01*
X21590000Y-18870395D01*
X22996597Y-17463798D01*
X22824610Y-17134640D01*
X22273654Y-16917000D01*
X71680820Y-16917000D01*
X71155390Y-17134640D01*
X70983403Y-17463798D01*
X72390000Y-18870395D01*
X73796597Y-17463798D01*
X73624610Y-17134640D01*
X73073654Y-16917000D01*
X74653000Y-16917000D01*
X74653000Y-95663000D01*
X73746019Y-95663000D01*
X73796597Y-95566202D01*
X72390000Y-94159605D01*
X70983403Y-95566202D01*
X71033981Y-95663000D01*
X22946019Y-95663000D01*
X22996597Y-95566202D01*
X21590000Y-94159605D01*
X20183403Y-95566202D01*
X20233981Y-95663000D01*
X18907000Y-95663000D01*
X18907000Y-93572346D01*
X19347974Y-93572346D01*
X19362635Y-94461363D01*
X19674640Y-95214610D01*
X20003798Y-95386597D01*
X21410395Y-93980000D01*
X21769605Y-93980000D01*
X23176202Y-95386597D01*
X23505360Y-95214610D01*
X23832026Y-94387654D01*
X23818581Y-93572346D01*
X70147974Y-93572346D01*
X70162635Y-94461363D01*
X70474640Y-95214610D01*
X70803798Y-95386597D01*
X72210395Y-93980000D01*
X72569605Y-93980000D01*
X73976202Y-95386597D01*
X74305360Y-95214610D01*
X74632026Y-94387654D01*
X74617365Y-93498637D01*
X74305360Y-92745390D01*
X73976202Y-92573403D01*
X72569605Y-93980000D01*
X72210395Y-93980000D01*
X70803798Y-92573403D01*
X70474640Y-92745390D01*
X70147974Y-93572346D01*
X23818581Y-93572346D01*
X23817365Y-93498637D01*
X23505360Y-92745390D01*
X23176202Y-92573403D01*
X21769605Y-93980000D01*
X21410395Y-93980000D01*
X20003798Y-92573403D01*
X19674640Y-92745390D01*
X19347974Y-93572346D01*
X18907000Y-93572346D01*
X18907000Y-92393798D01*
X20183403Y-92393798D01*
X21590000Y-93800395D01*
X22996597Y-92393798D01*
X70983403Y-92393798D01*
X72390000Y-93800395D01*
X73796597Y-92393798D01*
X73624610Y-92064640D01*
X72797654Y-91737974D01*
X71908637Y-91752635D01*
X71155390Y-92064640D01*
X70983403Y-92393798D01*
X22996597Y-92393798D01*
X22824610Y-92064640D01*
X21997654Y-91737974D01*
X21108637Y-91752635D01*
X20355390Y-92064640D01*
X20183403Y-92393798D01*
X18907000Y-92393798D01*
X18907000Y-71790000D01*
X22945000Y-71790000D01*
X22945000Y-81790000D01*
X23008561Y-82109541D01*
X23012209Y-82115000D01*
X23189566Y-82380434D01*
X27839527Y-87030395D01*
X27838039Y-87032622D01*
X27725000Y-87600907D01*
X27725000Y-87659093D01*
X27838039Y-88227378D01*
X28159946Y-88709147D01*
X28161179Y-88709971D01*
X28124683Y-88716838D01*
X27908559Y-88855910D01*
X27763569Y-89068110D01*
X27712560Y-89320000D01*
X27712560Y-91020000D01*
X27756838Y-91255317D01*
X27895910Y-91471441D01*
X28108110Y-91616431D01*
X28360000Y-91667440D01*
X30060000Y-91667440D01*
X30295317Y-91623162D01*
X30511441Y-91484090D01*
X30656431Y-91271890D01*
X30670086Y-91204459D01*
X30699946Y-91249147D01*
X31181715Y-91571054D01*
X31750000Y-91684093D01*
X32318285Y-91571054D01*
X32800054Y-91249147D01*
X33020000Y-90919974D01*
X33239946Y-91249147D01*
X33721715Y-91571054D01*
X34290000Y-91684093D01*
X34858285Y-91571054D01*
X35340054Y-91249147D01*
X35560000Y-90919974D01*
X35779946Y-91249147D01*
X36261715Y-91571054D01*
X36830000Y-91684093D01*
X37398285Y-91571054D01*
X37880054Y-91249147D01*
X38100000Y-90919974D01*
X38319946Y-91249147D01*
X38801715Y-91571054D01*
X39370000Y-91684093D01*
X39938285Y-91571054D01*
X40420054Y-91249147D01*
X40640000Y-90919974D01*
X40859946Y-91249147D01*
X41341715Y-91571054D01*
X41910000Y-91684093D01*
X42478285Y-91571054D01*
X42960054Y-91249147D01*
X43187702Y-90908447D01*
X43254817Y-91051358D01*
X43683076Y-91441645D01*
X44093110Y-91611476D01*
X44323000Y-91490155D01*
X44323000Y-90297000D01*
X44577000Y-90297000D01*
X44577000Y-91490155D01*
X44806890Y-91611476D01*
X45216924Y-91441645D01*
X45645183Y-91051358D01*
X45720000Y-90892046D01*
X45794817Y-91051358D01*
X46223076Y-91441645D01*
X46633110Y-91611476D01*
X46863000Y-91490155D01*
X46863000Y-90297000D01*
X44577000Y-90297000D01*
X44323000Y-90297000D01*
X44303000Y-90297000D01*
X44303000Y-90043000D01*
X44323000Y-90043000D01*
X44323000Y-90023000D01*
X44577000Y-90023000D01*
X44577000Y-90043000D01*
X46863000Y-90043000D01*
X46863000Y-90023000D01*
X47117000Y-90023000D01*
X47117000Y-90043000D01*
X47137000Y-90043000D01*
X47137000Y-90297000D01*
X47117000Y-90297000D01*
X47117000Y-91490155D01*
X47346890Y-91611476D01*
X47756924Y-91441645D01*
X48185183Y-91051358D01*
X48252298Y-90908447D01*
X48479946Y-91249147D01*
X48961715Y-91571054D01*
X49530000Y-91684093D01*
X50098285Y-91571054D01*
X50580054Y-91249147D01*
X50800000Y-90919974D01*
X51019946Y-91249147D01*
X51501715Y-91571054D01*
X52070000Y-91684093D01*
X52638285Y-91571054D01*
X53120054Y-91249147D01*
X53441961Y-90767378D01*
X53555000Y-90199093D01*
X53555000Y-90140907D01*
X53441961Y-89572622D01*
X53120054Y-89090853D01*
X52834422Y-88900000D01*
X53120054Y-88709147D01*
X53441961Y-88227378D01*
X53555000Y-87659093D01*
X53555000Y-87600907D01*
X53441961Y-87032622D01*
X53120054Y-86550853D01*
X52905000Y-86407159D01*
X52905000Y-73660000D01*
X52885395Y-73561439D01*
X52841440Y-73340460D01*
X52660434Y-73069566D01*
X49676286Y-70085418D01*
X49723113Y-69850000D01*
X49613880Y-69300849D01*
X49302811Y-68835302D01*
X48920725Y-68580000D01*
X49302811Y-68324698D01*
X49613880Y-67859151D01*
X49723113Y-67310000D01*
X49613880Y-66760849D01*
X49302811Y-66295302D01*
X48920725Y-66040000D01*
X49302811Y-65784698D01*
X49613880Y-65319151D01*
X49723113Y-64770000D01*
X49613880Y-64220849D01*
X49302811Y-63755302D01*
X48920725Y-63500000D01*
X49302811Y-63244698D01*
X49613880Y-62779151D01*
X49723113Y-62230000D01*
X49613880Y-61680849D01*
X49302811Y-61215302D01*
X48920725Y-60960000D01*
X49302811Y-60704698D01*
X49613880Y-60239151D01*
X49723113Y-59690000D01*
X49613880Y-59140849D01*
X49302811Y-58675302D01*
X48920725Y-58420000D01*
X49302811Y-58164698D01*
X49613880Y-57699151D01*
X49723113Y-57150000D01*
X49613880Y-56600849D01*
X49302811Y-56135302D01*
X48920725Y-55880000D01*
X49302811Y-55624698D01*
X49613880Y-55159151D01*
X49723113Y-54610000D01*
X49613880Y-54060849D01*
X49302811Y-53595302D01*
X48920725Y-53340000D01*
X49302811Y-53084698D01*
X49613880Y-52619151D01*
X49723113Y-52070000D01*
X49613880Y-51520849D01*
X49302811Y-51055302D01*
X48920725Y-50800000D01*
X49302811Y-50544698D01*
X49613880Y-50079151D01*
X49723113Y-49530000D01*
X49613880Y-48980849D01*
X49302811Y-48515302D01*
X48920725Y-48260000D01*
X49302811Y-48004698D01*
X49613880Y-47539151D01*
X49723113Y-46990000D01*
X49613880Y-46440849D01*
X49302811Y-45975302D01*
X48837264Y-45664233D01*
X48288113Y-45555000D01*
X48231887Y-45555000D01*
X47682736Y-45664233D01*
X47217189Y-45975302D01*
X46906120Y-46440849D01*
X46796887Y-46990000D01*
X46906120Y-47539151D01*
X47217189Y-48004698D01*
X47599275Y-48260000D01*
X47217189Y-48515302D01*
X46906120Y-48980849D01*
X46796887Y-49530000D01*
X46906120Y-50079151D01*
X47217189Y-50544698D01*
X47599275Y-50800000D01*
X47217189Y-51055302D01*
X46906120Y-51520849D01*
X46796887Y-52070000D01*
X46906120Y-52619151D01*
X47217189Y-53084698D01*
X47599275Y-53340000D01*
X47217189Y-53595302D01*
X46906120Y-54060849D01*
X46796887Y-54610000D01*
X46906120Y-55159151D01*
X47217189Y-55624698D01*
X47599275Y-55880000D01*
X47217189Y-56135302D01*
X46906120Y-56600849D01*
X46796887Y-57150000D01*
X46906120Y-57699151D01*
X47217189Y-58164698D01*
X47599275Y-58420000D01*
X47217189Y-58675302D01*
X46906120Y-59140849D01*
X46796887Y-59690000D01*
X46906120Y-60239151D01*
X47217189Y-60704698D01*
X47599275Y-60960000D01*
X47217189Y-61215302D01*
X46906120Y-61680849D01*
X46796887Y-62230000D01*
X46906120Y-62779151D01*
X47217189Y-63244698D01*
X47599275Y-63500000D01*
X47217189Y-63755302D01*
X46906120Y-64220849D01*
X46796887Y-64770000D01*
X46906120Y-65319151D01*
X47217189Y-65784698D01*
X47599275Y-66040000D01*
X47217189Y-66295302D01*
X46906120Y-66760849D01*
X46796887Y-67310000D01*
X46906120Y-67859151D01*
X47217189Y-68324698D01*
X47599275Y-68580000D01*
X47217189Y-68835302D01*
X46906120Y-69300849D01*
X46796887Y-69850000D01*
X46906120Y-70399151D01*
X47217189Y-70864698D01*
X47599275Y-71120000D01*
X47217189Y-71375302D01*
X46906120Y-71840849D01*
X46796887Y-72390000D01*
X46906120Y-72939151D01*
X47217189Y-73404698D01*
X47599275Y-73660000D01*
X47217189Y-73915302D01*
X46906120Y-74380849D01*
X46796887Y-74930000D01*
X46843714Y-75165418D01*
X41319566Y-80689566D01*
X41138561Y-80960459D01*
X41075000Y-81280000D01*
X41075000Y-86407159D01*
X40859946Y-86550853D01*
X40640000Y-86880026D01*
X40420054Y-86550853D01*
X40205000Y-86407159D01*
X40205000Y-74930000D01*
X40141439Y-74610459D01*
X39960434Y-74339566D01*
X37420434Y-71799566D01*
X37406117Y-71790000D01*
X37149541Y-71618561D01*
X36830000Y-71555000D01*
X34182882Y-71555000D01*
X34062811Y-71375302D01*
X33680725Y-71120000D01*
X34062811Y-70864698D01*
X34373880Y-70399151D01*
X34483113Y-69850000D01*
X34373880Y-69300849D01*
X34062811Y-68835302D01*
X33680725Y-68580000D01*
X34062811Y-68324698D01*
X34373880Y-67859151D01*
X34483113Y-67310000D01*
X34373880Y-66760849D01*
X34062811Y-66295302D01*
X33680725Y-66040000D01*
X34062811Y-65784698D01*
X34373880Y-65319151D01*
X34483113Y-64770000D01*
X34373880Y-64220849D01*
X34062811Y-63755302D01*
X33680725Y-63500000D01*
X34062811Y-63244698D01*
X34373880Y-62779151D01*
X34483113Y-62230000D01*
X34373880Y-61680849D01*
X34062811Y-61215302D01*
X33680725Y-60960000D01*
X34062811Y-60704698D01*
X34373880Y-60239151D01*
X34483113Y-59690000D01*
X34373880Y-59140849D01*
X34062811Y-58675302D01*
X33680725Y-58420000D01*
X34062811Y-58164698D01*
X34373880Y-57699151D01*
X34483113Y-57150000D01*
X34373880Y-56600849D01*
X34062811Y-56135302D01*
X33680725Y-55880000D01*
X34062811Y-55624698D01*
X34373880Y-55159151D01*
X34483113Y-54610000D01*
X34373880Y-54060849D01*
X34062811Y-53595302D01*
X33680725Y-53340000D01*
X34062811Y-53084698D01*
X34373880Y-52619151D01*
X34483113Y-52070000D01*
X34373880Y-51520849D01*
X34062811Y-51055302D01*
X33680725Y-50800000D01*
X34062811Y-50544698D01*
X34373880Y-50079151D01*
X34483113Y-49530000D01*
X34373880Y-48980849D01*
X34062811Y-48515302D01*
X33918535Y-48418899D01*
X34055317Y-48393162D01*
X34271441Y-48254090D01*
X34416431Y-48041890D01*
X34467440Y-47790000D01*
X34467440Y-46190000D01*
X34423162Y-45954683D01*
X34284090Y-45738559D01*
X34071890Y-45593569D01*
X33820000Y-45542560D01*
X32220000Y-45542560D01*
X31984683Y-45586838D01*
X31768559Y-45725910D01*
X31623569Y-45938110D01*
X31572560Y-46190000D01*
X31572560Y-47790000D01*
X31616838Y-48025317D01*
X31755910Y-48241441D01*
X31968110Y-48386431D01*
X32123089Y-48417815D01*
X31977189Y-48515302D01*
X31666120Y-48980849D01*
X31556887Y-49530000D01*
X31666120Y-50079151D01*
X31977189Y-50544698D01*
X32359275Y-50800000D01*
X31977189Y-51055302D01*
X31666120Y-51520849D01*
X31556887Y-52070000D01*
X31666120Y-52619151D01*
X31977189Y-53084698D01*
X32359275Y-53340000D01*
X31977189Y-53595302D01*
X31666120Y-54060849D01*
X31556887Y-54610000D01*
X31666120Y-55159151D01*
X31977189Y-55624698D01*
X32359275Y-55880000D01*
X31977189Y-56135302D01*
X31666120Y-56600849D01*
X31556887Y-57150000D01*
X31603714Y-57385418D01*
X28921667Y-60067465D01*
X28681057Y-60166883D01*
X28417808Y-60429673D01*
X28275162Y-60773201D01*
X28274838Y-61145167D01*
X28416883Y-61488943D01*
X28679673Y-61752192D01*
X29023201Y-61894838D01*
X29395167Y-61895162D01*
X29738943Y-61753117D01*
X30002192Y-61490327D01*
X30102778Y-61248090D01*
X31574139Y-59776729D01*
X31666120Y-60239151D01*
X31977189Y-60704698D01*
X32359275Y-60960000D01*
X31977189Y-61215302D01*
X31666120Y-61680849D01*
X31556887Y-62230000D01*
X31666120Y-62779151D01*
X31977189Y-63244698D01*
X32359275Y-63500000D01*
X31977189Y-63755302D01*
X31666120Y-64220849D01*
X31556887Y-64770000D01*
X31666120Y-65319151D01*
X31977189Y-65784698D01*
X32359275Y-66040000D01*
X31977189Y-66295302D01*
X31857118Y-66475000D01*
X28260000Y-66475000D01*
X27940460Y-66538560D01*
X27669566Y-66719566D01*
X23189566Y-71199566D01*
X23008561Y-71470459D01*
X22945000Y-71790000D01*
X18907000Y-71790000D01*
X18907000Y-25400000D01*
X36534928Y-25400000D01*
X36651773Y-25987419D01*
X36984519Y-26485409D01*
X37482509Y-26818155D01*
X38069928Y-26935000D01*
X38130072Y-26935000D01*
X38717491Y-26818155D01*
X39215481Y-26485409D01*
X39374501Y-26247418D01*
X39732424Y-26637966D01*
X40275258Y-26891046D01*
X40513000Y-26770997D01*
X40513000Y-25527000D01*
X40493000Y-25527000D01*
X40493000Y-25273000D01*
X40513000Y-25273000D01*
X40513000Y-24029003D01*
X40767000Y-24029003D01*
X40767000Y-25273000D01*
X40787000Y-25273000D01*
X40787000Y-25527000D01*
X40767000Y-25527000D01*
X40767000Y-26770997D01*
X41004742Y-26891046D01*
X41547576Y-26637966D01*
X41670844Y-26503462D01*
X41676838Y-26535317D01*
X41815910Y-26751441D01*
X42028110Y-26896431D01*
X42280000Y-26947440D01*
X44080000Y-26947440D01*
X44315317Y-26903162D01*
X44531441Y-26764090D01*
X44676431Y-26551890D01*
X44727440Y-26300000D01*
X44727440Y-24500000D01*
X44683162Y-24264683D01*
X44544090Y-24048559D01*
X44331890Y-23903569D01*
X44080000Y-23852560D01*
X42280000Y-23852560D01*
X42044683Y-23896838D01*
X41828559Y-24035910D01*
X41683569Y-24248110D01*
X41673234Y-24299146D01*
X41547576Y-24162034D01*
X41004742Y-23908954D01*
X40767000Y-24029003D01*
X40513000Y-24029003D01*
X40275258Y-23908954D01*
X39732424Y-24162034D01*
X39374501Y-24552582D01*
X39215481Y-24314591D01*
X38717491Y-23981845D01*
X38130072Y-23865000D01*
X38069928Y-23865000D01*
X37482509Y-23981845D01*
X36984519Y-24314591D01*
X36651773Y-24812581D01*
X36534928Y-25400000D01*
X18907000Y-25400000D01*
X18907000Y-20636202D01*
X20183403Y-20636202D01*
X20355390Y-20965360D01*
X21182346Y-21292026D01*
X22071363Y-21277365D01*
X22824610Y-20965360D01*
X22996597Y-20636202D01*
X70983403Y-20636202D01*
X71155390Y-20965360D01*
X71982346Y-21292026D01*
X72871363Y-21277365D01*
X73624610Y-20965360D01*
X73796597Y-20636202D01*
X72390000Y-19229605D01*
X70983403Y-20636202D01*
X22996597Y-20636202D01*
X21590000Y-19229605D01*
X20183403Y-20636202D01*
X18907000Y-20636202D01*
X18907000Y-18642346D01*
X19347974Y-18642346D01*
X19362635Y-19531363D01*
X19674640Y-20284610D01*
X20003798Y-20456597D01*
X21410395Y-19050000D01*
X21769605Y-19050000D01*
X23176202Y-20456597D01*
X23505360Y-20284610D01*
X23832026Y-19457654D01*
X23831189Y-19406892D01*
X39198514Y-19406892D01*
X39444817Y-19931358D01*
X39873076Y-20321645D01*
X40283110Y-20491476D01*
X40513000Y-20370155D01*
X40513000Y-19177000D01*
X39319181Y-19177000D01*
X39198514Y-19406892D01*
X23831189Y-19406892D01*
X23819418Y-18693108D01*
X39198514Y-18693108D01*
X39319181Y-18923000D01*
X40513000Y-18923000D01*
X40513000Y-17729845D01*
X40767000Y-17729845D01*
X40767000Y-18923000D01*
X40787000Y-18923000D01*
X40787000Y-19177000D01*
X40767000Y-19177000D01*
X40767000Y-20370155D01*
X40996890Y-20491476D01*
X41406924Y-20321645D01*
X41709937Y-20045499D01*
X41726838Y-20135317D01*
X41865910Y-20351441D01*
X42078110Y-20496431D01*
X42330000Y-20547440D01*
X44030000Y-20547440D01*
X44265317Y-20503162D01*
X44481441Y-20364090D01*
X44626431Y-20151890D01*
X44677440Y-19900000D01*
X44677440Y-18642346D01*
X70147974Y-18642346D01*
X70162635Y-19531363D01*
X70474640Y-20284610D01*
X70803798Y-20456597D01*
X72210395Y-19050000D01*
X72569605Y-19050000D01*
X73976202Y-20456597D01*
X74305360Y-20284610D01*
X74632026Y-19457654D01*
X74617365Y-18568637D01*
X74305360Y-17815390D01*
X73976202Y-17643403D01*
X72569605Y-19050000D01*
X72210395Y-19050000D01*
X70803798Y-17643403D01*
X70474640Y-17815390D01*
X70147974Y-18642346D01*
X44677440Y-18642346D01*
X44677440Y-18200000D01*
X44633162Y-17964683D01*
X44494090Y-17748559D01*
X44281890Y-17603569D01*
X44030000Y-17552560D01*
X42330000Y-17552560D01*
X42094683Y-17596838D01*
X41878559Y-17735910D01*
X41733569Y-17948110D01*
X41711699Y-18056107D01*
X41406924Y-17778355D01*
X40996890Y-17608524D01*
X40767000Y-17729845D01*
X40513000Y-17729845D01*
X40283110Y-17608524D01*
X39873076Y-17778355D01*
X39444817Y-18168642D01*
X39198514Y-18693108D01*
X23819418Y-18693108D01*
X23817365Y-18568637D01*
X23505360Y-17815390D01*
X23176202Y-17643403D01*
X21769605Y-19050000D01*
X21410395Y-19050000D01*
X20003798Y-17643403D01*
X19674640Y-17815390D01*
X19347974Y-18642346D01*
X18907000Y-18642346D01*
X18907000Y-16917000D01*
X20880820Y-16917000D01*
X20355390Y-17134640D01*
X20355390Y-17134640D01*
G37*
X20355390Y-17134640D02*
X20183403Y-17463798D01*
X21590000Y-18870395D01*
X22996597Y-17463798D01*
X22824610Y-17134640D01*
X22273654Y-16917000D01*
X71680820Y-16917000D01*
X71155390Y-17134640D01*
X70983403Y-17463798D01*
X72390000Y-18870395D01*
X73796597Y-17463798D01*
X73624610Y-17134640D01*
X73073654Y-16917000D01*
X74653000Y-16917000D01*
X74653000Y-95663000D01*
X73746019Y-95663000D01*
X73796597Y-95566202D01*
X72390000Y-94159605D01*
X70983403Y-95566202D01*
X71033981Y-95663000D01*
X22946019Y-95663000D01*
X22996597Y-95566202D01*
X21590000Y-94159605D01*
X20183403Y-95566202D01*
X20233981Y-95663000D01*
X18907000Y-95663000D01*
X18907000Y-93572346D01*
X19347974Y-93572346D01*
X19362635Y-94461363D01*
X19674640Y-95214610D01*
X20003798Y-95386597D01*
X21410395Y-93980000D01*
X21769605Y-93980000D01*
X23176202Y-95386597D01*
X23505360Y-95214610D01*
X23832026Y-94387654D01*
X23818581Y-93572346D01*
X70147974Y-93572346D01*
X70162635Y-94461363D01*
X70474640Y-95214610D01*
X70803798Y-95386597D01*
X72210395Y-93980000D01*
X72569605Y-93980000D01*
X73976202Y-95386597D01*
X74305360Y-95214610D01*
X74632026Y-94387654D01*
X74617365Y-93498637D01*
X74305360Y-92745390D01*
X73976202Y-92573403D01*
X72569605Y-93980000D01*
X72210395Y-93980000D01*
X70803798Y-92573403D01*
X70474640Y-92745390D01*
X70147974Y-93572346D01*
X23818581Y-93572346D01*
X23817365Y-93498637D01*
X23505360Y-92745390D01*
X23176202Y-92573403D01*
X21769605Y-93980000D01*
X21410395Y-93980000D01*
X20003798Y-92573403D01*
X19674640Y-92745390D01*
X19347974Y-93572346D01*
X18907000Y-93572346D01*
X18907000Y-92393798D01*
X20183403Y-92393798D01*
X21590000Y-93800395D01*
X22996597Y-92393798D01*
X70983403Y-92393798D01*
X72390000Y-93800395D01*
X73796597Y-92393798D01*
X73624610Y-92064640D01*
X72797654Y-91737974D01*
X71908637Y-91752635D01*
X71155390Y-92064640D01*
X70983403Y-92393798D01*
X22996597Y-92393798D01*
X22824610Y-92064640D01*
X21997654Y-91737974D01*
X21108637Y-91752635D01*
X20355390Y-92064640D01*
X20183403Y-92393798D01*
X18907000Y-92393798D01*
X18907000Y-71790000D01*
X22945000Y-71790000D01*
X22945000Y-81790000D01*
X23008561Y-82109541D01*
X23012209Y-82115000D01*
X23189566Y-82380434D01*
X27839527Y-87030395D01*
X27838039Y-87032622D01*
X27725000Y-87600907D01*
X27725000Y-87659093D01*
X27838039Y-88227378D01*
X28159946Y-88709147D01*
X28161179Y-88709971D01*
X28124683Y-88716838D01*
X27908559Y-88855910D01*
X27763569Y-89068110D01*
X27712560Y-89320000D01*
X27712560Y-91020000D01*
X27756838Y-91255317D01*
X27895910Y-91471441D01*
X28108110Y-91616431D01*
X28360000Y-91667440D01*
X30060000Y-91667440D01*
X30295317Y-91623162D01*
X30511441Y-91484090D01*
X30656431Y-91271890D01*
X30670086Y-91204459D01*
X30699946Y-91249147D01*
X31181715Y-91571054D01*
X31750000Y-91684093D01*
X32318285Y-91571054D01*
X32800054Y-91249147D01*
X33020000Y-90919974D01*
X33239946Y-91249147D01*
X33721715Y-91571054D01*
X34290000Y-91684093D01*
X34858285Y-91571054D01*
X35340054Y-91249147D01*
X35560000Y-90919974D01*
X35779946Y-91249147D01*
X36261715Y-91571054D01*
X36830000Y-91684093D01*
X37398285Y-91571054D01*
X37880054Y-91249147D01*
X38100000Y-90919974D01*
X38319946Y-91249147D01*
X38801715Y-91571054D01*
X39370000Y-91684093D01*
X39938285Y-91571054D01*
X40420054Y-91249147D01*
X40640000Y-90919974D01*
X40859946Y-91249147D01*
X41341715Y-91571054D01*
X41910000Y-91684093D01*
X42478285Y-91571054D01*
X42960054Y-91249147D01*
X43187702Y-90908447D01*
X43254817Y-91051358D01*
X43683076Y-91441645D01*
X44093110Y-91611476D01*
X44323000Y-91490155D01*
X44323000Y-90297000D01*
X44577000Y-90297000D01*
X44577000Y-91490155D01*
X44806890Y-91611476D01*
X45216924Y-91441645D01*
X45645183Y-91051358D01*
X45720000Y-90892046D01*
X45794817Y-91051358D01*
X46223076Y-91441645D01*
X46633110Y-91611476D01*
X46863000Y-91490155D01*
X46863000Y-90297000D01*
X44577000Y-90297000D01*
X44323000Y-90297000D01*
X44303000Y-90297000D01*
X44303000Y-90043000D01*
X44323000Y-90043000D01*
X44323000Y-90023000D01*
X44577000Y-90023000D01*
X44577000Y-90043000D01*
X46863000Y-90043000D01*
X46863000Y-90023000D01*
X47117000Y-90023000D01*
X47117000Y-90043000D01*
X47137000Y-90043000D01*
X47137000Y-90297000D01*
X47117000Y-90297000D01*
X47117000Y-91490155D01*
X47346890Y-91611476D01*
X47756924Y-91441645D01*
X48185183Y-91051358D01*
X48252298Y-90908447D01*
X48479946Y-91249147D01*
X48961715Y-91571054D01*
X49530000Y-91684093D01*
X50098285Y-91571054D01*
X50580054Y-91249147D01*
X50800000Y-90919974D01*
X51019946Y-91249147D01*
X51501715Y-91571054D01*
X52070000Y-91684093D01*
X52638285Y-91571054D01*
X53120054Y-91249147D01*
X53441961Y-90767378D01*
X53555000Y-90199093D01*
X53555000Y-90140907D01*
X53441961Y-89572622D01*
X53120054Y-89090853D01*
X52834422Y-88900000D01*
X53120054Y-88709147D01*
X53441961Y-88227378D01*
X53555000Y-87659093D01*
X53555000Y-87600907D01*
X53441961Y-87032622D01*
X53120054Y-86550853D01*
X52905000Y-86407159D01*
X52905000Y-73660000D01*
X52885395Y-73561439D01*
X52841440Y-73340460D01*
X52660434Y-73069566D01*
X49676286Y-70085418D01*
X49723113Y-69850000D01*
X49613880Y-69300849D01*
X49302811Y-68835302D01*
X48920725Y-68580000D01*
X49302811Y-68324698D01*
X49613880Y-67859151D01*
X49723113Y-67310000D01*
X49613880Y-66760849D01*
X49302811Y-66295302D01*
X48920725Y-66040000D01*
X49302811Y-65784698D01*
X49613880Y-65319151D01*
X49723113Y-64770000D01*
X49613880Y-64220849D01*
X49302811Y-63755302D01*
X48920725Y-63500000D01*
X49302811Y-63244698D01*
X49613880Y-62779151D01*
X49723113Y-62230000D01*
X49613880Y-61680849D01*
X49302811Y-61215302D01*
X48920725Y-60960000D01*
X49302811Y-60704698D01*
X49613880Y-60239151D01*
X49723113Y-59690000D01*
X49613880Y-59140849D01*
X49302811Y-58675302D01*
X48920725Y-58420000D01*
X49302811Y-58164698D01*
X49613880Y-57699151D01*
X49723113Y-57150000D01*
X49613880Y-56600849D01*
X49302811Y-56135302D01*
X48920725Y-55880000D01*
X49302811Y-55624698D01*
X49613880Y-55159151D01*
X49723113Y-54610000D01*
X49613880Y-54060849D01*
X49302811Y-53595302D01*
X48920725Y-53340000D01*
X49302811Y-53084698D01*
X49613880Y-52619151D01*
X49723113Y-52070000D01*
X49613880Y-51520849D01*
X49302811Y-51055302D01*
X48920725Y-50800000D01*
X49302811Y-50544698D01*
X49613880Y-50079151D01*
X49723113Y-49530000D01*
X49613880Y-48980849D01*
X49302811Y-48515302D01*
X48920725Y-48260000D01*
X49302811Y-48004698D01*
X49613880Y-47539151D01*
X49723113Y-46990000D01*
X49613880Y-46440849D01*
X49302811Y-45975302D01*
X48837264Y-45664233D01*
X48288113Y-45555000D01*
X48231887Y-45555000D01*
X47682736Y-45664233D01*
X47217189Y-45975302D01*
X46906120Y-46440849D01*
X46796887Y-46990000D01*
X46906120Y-47539151D01*
X47217189Y-48004698D01*
X47599275Y-48260000D01*
X47217189Y-48515302D01*
X46906120Y-48980849D01*
X46796887Y-49530000D01*
X46906120Y-50079151D01*
X47217189Y-50544698D01*
X47599275Y-50800000D01*
X47217189Y-51055302D01*
X46906120Y-51520849D01*
X46796887Y-52070000D01*
X46906120Y-52619151D01*
X47217189Y-53084698D01*
X47599275Y-53340000D01*
X47217189Y-53595302D01*
X46906120Y-54060849D01*
X46796887Y-54610000D01*
X46906120Y-55159151D01*
X47217189Y-55624698D01*
X47599275Y-55880000D01*
X47217189Y-56135302D01*
X46906120Y-56600849D01*
X46796887Y-57150000D01*
X46906120Y-57699151D01*
X47217189Y-58164698D01*
X47599275Y-58420000D01*
X47217189Y-58675302D01*
X46906120Y-59140849D01*
X46796887Y-59690000D01*
X46906120Y-60239151D01*
X47217189Y-60704698D01*
X47599275Y-60960000D01*
X47217189Y-61215302D01*
X46906120Y-61680849D01*
X46796887Y-62230000D01*
X46906120Y-62779151D01*
X47217189Y-63244698D01*
X47599275Y-63500000D01*
X47217189Y-63755302D01*
X46906120Y-64220849D01*
X46796887Y-64770000D01*
X46906120Y-65319151D01*
X47217189Y-65784698D01*
X47599275Y-66040000D01*
X47217189Y-66295302D01*
X46906120Y-66760849D01*
X46796887Y-67310000D01*
X46906120Y-67859151D01*
X47217189Y-68324698D01*
X47599275Y-68580000D01*
X47217189Y-68835302D01*
X46906120Y-69300849D01*
X46796887Y-69850000D01*
X46906120Y-70399151D01*
X47217189Y-70864698D01*
X47599275Y-71120000D01*
X47217189Y-71375302D01*
X46906120Y-71840849D01*
X46796887Y-72390000D01*
X46906120Y-72939151D01*
X47217189Y-73404698D01*
X47599275Y-73660000D01*
X47217189Y-73915302D01*
X46906120Y-74380849D01*
X46796887Y-74930000D01*
X46843714Y-75165418D01*
X41319566Y-80689566D01*
X41138561Y-80960459D01*
X41075000Y-81280000D01*
X41075000Y-86407159D01*
X40859946Y-86550853D01*
X40640000Y-86880026D01*
X40420054Y-86550853D01*
X40205000Y-86407159D01*
X40205000Y-74930000D01*
X40141439Y-74610459D01*
X39960434Y-74339566D01*
X37420434Y-71799566D01*
X37406117Y-71790000D01*
X37149541Y-71618561D01*
X36830000Y-71555000D01*
X34182882Y-71555000D01*
X34062811Y-71375302D01*
X33680725Y-71120000D01*
X34062811Y-70864698D01*
X34373880Y-70399151D01*
X34483113Y-69850000D01*
X34373880Y-69300849D01*
X34062811Y-68835302D01*
X33680725Y-68580000D01*
X34062811Y-68324698D01*
X34373880Y-67859151D01*
X34483113Y-67310000D01*
X34373880Y-66760849D01*
X34062811Y-66295302D01*
X33680725Y-66040000D01*
X34062811Y-65784698D01*
X34373880Y-65319151D01*
X34483113Y-64770000D01*
X34373880Y-64220849D01*
X34062811Y-63755302D01*
X33680725Y-63500000D01*
X34062811Y-63244698D01*
X34373880Y-62779151D01*
X34483113Y-62230000D01*
X34373880Y-61680849D01*
X34062811Y-61215302D01*
X33680725Y-60960000D01*
X34062811Y-60704698D01*
X34373880Y-60239151D01*
X34483113Y-59690000D01*
X34373880Y-59140849D01*
X34062811Y-58675302D01*
X33680725Y-58420000D01*
X34062811Y-58164698D01*
X34373880Y-57699151D01*
X34483113Y-57150000D01*
X34373880Y-56600849D01*
X34062811Y-56135302D01*
X33680725Y-55880000D01*
X34062811Y-55624698D01*
X34373880Y-55159151D01*
X34483113Y-54610000D01*
X34373880Y-54060849D01*
X34062811Y-53595302D01*
X33680725Y-53340000D01*
X34062811Y-53084698D01*
X34373880Y-52619151D01*
X34483113Y-52070000D01*
X34373880Y-51520849D01*
X34062811Y-51055302D01*
X33680725Y-50800000D01*
X34062811Y-50544698D01*
X34373880Y-50079151D01*
X34483113Y-49530000D01*
X34373880Y-48980849D01*
X34062811Y-48515302D01*
X33918535Y-48418899D01*
X34055317Y-48393162D01*
X34271441Y-48254090D01*
X34416431Y-48041890D01*
X34467440Y-47790000D01*
X34467440Y-46190000D01*
X34423162Y-45954683D01*
X34284090Y-45738559D01*
X34071890Y-45593569D01*
X33820000Y-45542560D01*
X32220000Y-45542560D01*
X31984683Y-45586838D01*
X31768559Y-45725910D01*
X31623569Y-45938110D01*
X31572560Y-46190000D01*
X31572560Y-47790000D01*
X31616838Y-48025317D01*
X31755910Y-48241441D01*
X31968110Y-48386431D01*
X32123089Y-48417815D01*
X31977189Y-48515302D01*
X31666120Y-48980849D01*
X31556887Y-49530000D01*
X31666120Y-50079151D01*
X31977189Y-50544698D01*
X32359275Y-50800000D01*
X31977189Y-51055302D01*
X31666120Y-51520849D01*
X31556887Y-52070000D01*
X31666120Y-52619151D01*
X31977189Y-53084698D01*
X32359275Y-53340000D01*
X31977189Y-53595302D01*
X31666120Y-54060849D01*
X31556887Y-54610000D01*
X31666120Y-55159151D01*
X31977189Y-55624698D01*
X32359275Y-55880000D01*
X31977189Y-56135302D01*
X31666120Y-56600849D01*
X31556887Y-57150000D01*
X31603714Y-57385418D01*
X28921667Y-60067465D01*
X28681057Y-60166883D01*
X28417808Y-60429673D01*
X28275162Y-60773201D01*
X28274838Y-61145167D01*
X28416883Y-61488943D01*
X28679673Y-61752192D01*
X29023201Y-61894838D01*
X29395167Y-61895162D01*
X29738943Y-61753117D01*
X30002192Y-61490327D01*
X30102778Y-61248090D01*
X31574139Y-59776729D01*
X31666120Y-60239151D01*
X31977189Y-60704698D01*
X32359275Y-60960000D01*
X31977189Y-61215302D01*
X31666120Y-61680849D01*
X31556887Y-62230000D01*
X31666120Y-62779151D01*
X31977189Y-63244698D01*
X32359275Y-63500000D01*
X31977189Y-63755302D01*
X31666120Y-64220849D01*
X31556887Y-64770000D01*
X31666120Y-65319151D01*
X31977189Y-65784698D01*
X32359275Y-66040000D01*
X31977189Y-66295302D01*
X31857118Y-66475000D01*
X28260000Y-66475000D01*
X27940460Y-66538560D01*
X27669566Y-66719566D01*
X23189566Y-71199566D01*
X23008561Y-71470459D01*
X22945000Y-71790000D01*
X18907000Y-71790000D01*
X18907000Y-25400000D01*
X36534928Y-25400000D01*
X36651773Y-25987419D01*
X36984519Y-26485409D01*
X37482509Y-26818155D01*
X38069928Y-26935000D01*
X38130072Y-26935000D01*
X38717491Y-26818155D01*
X39215481Y-26485409D01*
X39374501Y-26247418D01*
X39732424Y-26637966D01*
X40275258Y-26891046D01*
X40513000Y-26770997D01*
X40513000Y-25527000D01*
X40493000Y-25527000D01*
X40493000Y-25273000D01*
X40513000Y-25273000D01*
X40513000Y-24029003D01*
X40767000Y-24029003D01*
X40767000Y-25273000D01*
X40787000Y-25273000D01*
X40787000Y-25527000D01*
X40767000Y-25527000D01*
X40767000Y-26770997D01*
X41004742Y-26891046D01*
X41547576Y-26637966D01*
X41670844Y-26503462D01*
X41676838Y-26535317D01*
X41815910Y-26751441D01*
X42028110Y-26896431D01*
X42280000Y-26947440D01*
X44080000Y-26947440D01*
X44315317Y-26903162D01*
X44531441Y-26764090D01*
X44676431Y-26551890D01*
X44727440Y-26300000D01*
X44727440Y-24500000D01*
X44683162Y-24264683D01*
X44544090Y-24048559D01*
X44331890Y-23903569D01*
X44080000Y-23852560D01*
X42280000Y-23852560D01*
X42044683Y-23896838D01*
X41828559Y-24035910D01*
X41683569Y-24248110D01*
X41673234Y-24299146D01*
X41547576Y-24162034D01*
X41004742Y-23908954D01*
X40767000Y-24029003D01*
X40513000Y-24029003D01*
X40275258Y-23908954D01*
X39732424Y-24162034D01*
X39374501Y-24552582D01*
X39215481Y-24314591D01*
X38717491Y-23981845D01*
X38130072Y-23865000D01*
X38069928Y-23865000D01*
X37482509Y-23981845D01*
X36984519Y-24314591D01*
X36651773Y-24812581D01*
X36534928Y-25400000D01*
X18907000Y-25400000D01*
X18907000Y-20636202D01*
X20183403Y-20636202D01*
X20355390Y-20965360D01*
X21182346Y-21292026D01*
X22071363Y-21277365D01*
X22824610Y-20965360D01*
X22996597Y-20636202D01*
X70983403Y-20636202D01*
X71155390Y-20965360D01*
X71982346Y-21292026D01*
X72871363Y-21277365D01*
X73624610Y-20965360D01*
X73796597Y-20636202D01*
X72390000Y-19229605D01*
X70983403Y-20636202D01*
X22996597Y-20636202D01*
X21590000Y-19229605D01*
X20183403Y-20636202D01*
X18907000Y-20636202D01*
X18907000Y-18642346D01*
X19347974Y-18642346D01*
X19362635Y-19531363D01*
X19674640Y-20284610D01*
X20003798Y-20456597D01*
X21410395Y-19050000D01*
X21769605Y-19050000D01*
X23176202Y-20456597D01*
X23505360Y-20284610D01*
X23832026Y-19457654D01*
X23831189Y-19406892D01*
X39198514Y-19406892D01*
X39444817Y-19931358D01*
X39873076Y-20321645D01*
X40283110Y-20491476D01*
X40513000Y-20370155D01*
X40513000Y-19177000D01*
X39319181Y-19177000D01*
X39198514Y-19406892D01*
X23831189Y-19406892D01*
X23819418Y-18693108D01*
X39198514Y-18693108D01*
X39319181Y-18923000D01*
X40513000Y-18923000D01*
X40513000Y-17729845D01*
X40767000Y-17729845D01*
X40767000Y-18923000D01*
X40787000Y-18923000D01*
X40787000Y-19177000D01*
X40767000Y-19177000D01*
X40767000Y-20370155D01*
X40996890Y-20491476D01*
X41406924Y-20321645D01*
X41709937Y-20045499D01*
X41726838Y-20135317D01*
X41865910Y-20351441D01*
X42078110Y-20496431D01*
X42330000Y-20547440D01*
X44030000Y-20547440D01*
X44265317Y-20503162D01*
X44481441Y-20364090D01*
X44626431Y-20151890D01*
X44677440Y-19900000D01*
X44677440Y-18642346D01*
X70147974Y-18642346D01*
X70162635Y-19531363D01*
X70474640Y-20284610D01*
X70803798Y-20456597D01*
X72210395Y-19050000D01*
X72569605Y-19050000D01*
X73976202Y-20456597D01*
X74305360Y-20284610D01*
X74632026Y-19457654D01*
X74617365Y-18568637D01*
X74305360Y-17815390D01*
X73976202Y-17643403D01*
X72569605Y-19050000D01*
X72210395Y-19050000D01*
X70803798Y-17643403D01*
X70474640Y-17815390D01*
X70147974Y-18642346D01*
X44677440Y-18642346D01*
X44677440Y-18200000D01*
X44633162Y-17964683D01*
X44494090Y-17748559D01*
X44281890Y-17603569D01*
X44030000Y-17552560D01*
X42330000Y-17552560D01*
X42094683Y-17596838D01*
X41878559Y-17735910D01*
X41733569Y-17948110D01*
X41711699Y-18056107D01*
X41406924Y-17778355D01*
X40996890Y-17608524D01*
X40767000Y-17729845D01*
X40513000Y-17729845D01*
X40283110Y-17608524D01*
X39873076Y-17778355D01*
X39444817Y-18168642D01*
X39198514Y-18693108D01*
X23819418Y-18693108D01*
X23817365Y-18568637D01*
X23505360Y-17815390D01*
X23176202Y-17643403D01*
X21769605Y-19050000D01*
X21410395Y-19050000D01*
X20003798Y-17643403D01*
X19674640Y-17815390D01*
X19347974Y-18642346D01*
X18907000Y-18642346D01*
X18907000Y-16917000D01*
X20880820Y-16917000D01*
X20355390Y-17134640D01*
G36*
X31977189Y-70864698D02*
X32359275Y-71120000D01*
X31977189Y-71375302D01*
X31666120Y-71840849D01*
X31556887Y-72390000D01*
X31666120Y-72939151D01*
X31977189Y-73404698D01*
X32359275Y-73660000D01*
X31977189Y-73915302D01*
X31666120Y-74380849D01*
X31556887Y-74930000D01*
X31666120Y-75479151D01*
X31977189Y-75944698D01*
X32359275Y-76200000D01*
X31977189Y-76455302D01*
X31666120Y-76920849D01*
X31556887Y-77470000D01*
X31666120Y-78019151D01*
X31977189Y-78484698D01*
X32381703Y-78754986D01*
X32164866Y-78857611D01*
X31788959Y-79272577D01*
X31628096Y-79660961D01*
X31750085Y-79883000D01*
X32893000Y-79883000D01*
X32893000Y-79863000D01*
X33147000Y-79863000D01*
X33147000Y-79883000D01*
X34289915Y-79883000D01*
X34411904Y-79660961D01*
X34251041Y-79272577D01*
X33875134Y-78857611D01*
X33658297Y-78754986D01*
X34062811Y-78484698D01*
X34087252Y-78448120D01*
X34725000Y-79085868D01*
X34725000Y-82204132D01*
X33699566Y-83229566D01*
X33518561Y-83500459D01*
X33455000Y-83820000D01*
X33455000Y-86407159D01*
X33239946Y-86550853D01*
X33020000Y-86880026D01*
X32800054Y-86550853D01*
X32318285Y-86228946D01*
X31750000Y-86115907D01*
X31363629Y-86192761D01*
X25615000Y-80444132D01*
X25615000Y-80359039D01*
X31628096Y-80359039D01*
X31788959Y-80747423D01*
X32164866Y-81162389D01*
X32670959Y-81401914D01*
X32893000Y-81280629D01*
X32893000Y-80137000D01*
X33147000Y-80137000D01*
X33147000Y-81280629D01*
X33369041Y-81401914D01*
X33875134Y-81162389D01*
X34251041Y-80747423D01*
X34411904Y-80359039D01*
X34289915Y-80137000D01*
X33147000Y-80137000D01*
X32893000Y-80137000D01*
X31750085Y-80137000D01*
X31628096Y-80359039D01*
X25615000Y-80359039D01*
X25615000Y-73135868D01*
X28065868Y-70685000D01*
X31857118Y-70685000D01*
X31977189Y-70864698D01*
X31977189Y-70864698D01*
G37*
X31977189Y-70864698D02*
X32359275Y-71120000D01*
X31977189Y-71375302D01*
X31666120Y-71840849D01*
X31556887Y-72390000D01*
X31666120Y-72939151D01*
X31977189Y-73404698D01*
X32359275Y-73660000D01*
X31977189Y-73915302D01*
X31666120Y-74380849D01*
X31556887Y-74930000D01*
X31666120Y-75479151D01*
X31977189Y-75944698D01*
X32359275Y-76200000D01*
X31977189Y-76455302D01*
X31666120Y-76920849D01*
X31556887Y-77470000D01*
X31666120Y-78019151D01*
X31977189Y-78484698D01*
X32381703Y-78754986D01*
X32164866Y-78857611D01*
X31788959Y-79272577D01*
X31628096Y-79660961D01*
X31750085Y-79883000D01*
X32893000Y-79883000D01*
X32893000Y-79863000D01*
X33147000Y-79863000D01*
X33147000Y-79883000D01*
X34289915Y-79883000D01*
X34411904Y-79660961D01*
X34251041Y-79272577D01*
X33875134Y-78857611D01*
X33658297Y-78754986D01*
X34062811Y-78484698D01*
X34087252Y-78448120D01*
X34725000Y-79085868D01*
X34725000Y-82204132D01*
X33699566Y-83229566D01*
X33518561Y-83500459D01*
X33455000Y-83820000D01*
X33455000Y-86407159D01*
X33239946Y-86550853D01*
X33020000Y-86880026D01*
X32800054Y-86550853D01*
X32318285Y-86228946D01*
X31750000Y-86115907D01*
X31363629Y-86192761D01*
X25615000Y-80444132D01*
X25615000Y-80359039D01*
X31628096Y-80359039D01*
X31788959Y-80747423D01*
X32164866Y-81162389D01*
X32670959Y-81401914D01*
X32893000Y-81280629D01*
X32893000Y-80137000D01*
X33147000Y-80137000D01*
X33147000Y-81280629D01*
X33369041Y-81401914D01*
X33875134Y-81162389D01*
X34251041Y-80747423D01*
X34411904Y-80359039D01*
X34289915Y-80137000D01*
X33147000Y-80137000D01*
X32893000Y-80137000D01*
X31750085Y-80137000D01*
X31628096Y-80359039D01*
X25615000Y-80359039D01*
X25615000Y-73135868D01*
X28065868Y-70685000D01*
X31857118Y-70685000D01*
X31977189Y-70864698D01*
M02*
