G04 #@! TF.FileFunction,Other,User*
%FSLAX46Y46*%
G04 Gerber Fmt 4.6, Leading zero omitted, Abs format (unit mm)*
G04 Created by KiCad (PCBNEW 4.0.7) date 12/21/18 01:54:59*
%MOMM*%
%LPD*%
G01*
G04 APERTURE LIST*
%ADD10C,0.100000*%
%ADD11C,0.050000*%
G04 APERTURE END LIST*
D10*
D11*
X80950000Y-86350000D02*
X80950000Y-92450000D01*
X80950000Y-92450000D02*
X84050000Y-92450000D01*
X84050000Y-92450000D02*
X84050000Y-86350000D01*
X84050000Y-86350000D02*
X80950000Y-86350000D01*
X84450000Y-46950000D02*
X84450000Y-42450000D01*
X84450000Y-46950000D02*
X86550000Y-46950000D01*
X86550000Y-42450000D02*
X84450000Y-42450000D01*
X86550000Y-42450000D02*
X86550000Y-46950000D01*
X55450000Y-41800000D02*
X55450000Y-78050000D01*
X55450000Y-78050000D02*
X73800000Y-78050000D01*
X73800000Y-78050000D02*
X73800000Y-41800000D01*
X73800000Y-41800000D02*
X55450000Y-41800000D01*
X75750000Y-40380000D02*
X71250000Y-40380000D01*
X75750000Y-40380000D02*
X75750000Y-38630000D01*
X71250000Y-38630000D02*
X71250000Y-40380000D01*
X71250000Y-38630000D02*
X75750000Y-38630000D01*
X75850000Y-34380000D02*
X71350000Y-34380000D01*
X75850000Y-34380000D02*
X75850000Y-32630000D01*
X71350000Y-32630000D02*
X71350000Y-34380000D01*
X71350000Y-32630000D02*
X75850000Y-32630000D01*
X62200000Y-26300000D02*
X68350000Y-26300000D01*
X68350000Y-26300000D02*
X68350000Y-22700000D01*
X68350000Y-22700000D02*
X62200000Y-22700000D01*
X62200000Y-22700000D02*
X62200000Y-26300000D01*
X59790000Y-30750000D02*
X59790000Y-35660000D01*
X59790000Y-35660000D02*
X70290000Y-35660000D01*
X70290000Y-35660000D02*
X70290000Y-30750000D01*
X70290000Y-30750000D02*
X59790000Y-30750000D01*
X53750000Y-35420000D02*
X58250000Y-35420000D01*
X53750000Y-35420000D02*
X53750000Y-37170000D01*
X58250000Y-37170000D02*
X58250000Y-35420000D01*
X58250000Y-37170000D02*
X53750000Y-37170000D01*
X53750000Y-32720000D02*
X58250000Y-32720000D01*
X53750000Y-32720000D02*
X53750000Y-34470000D01*
X58250000Y-34470000D02*
X58250000Y-32720000D01*
X58250000Y-34470000D02*
X53750000Y-34470000D01*
X81050000Y-51880000D02*
X76550000Y-51880000D01*
X81050000Y-51880000D02*
X81050000Y-50130000D01*
X76550000Y-50130000D02*
X76550000Y-51880000D01*
X76550000Y-50130000D02*
X81050000Y-50130000D01*
X62450000Y-81220000D02*
X66950000Y-81220000D01*
X62450000Y-81220000D02*
X62450000Y-82970000D01*
X66950000Y-82970000D02*
X66950000Y-81220000D01*
X66950000Y-82970000D02*
X62450000Y-82970000D01*
X50250000Y-89120000D02*
X54750000Y-89120000D01*
X50250000Y-89120000D02*
X50250000Y-90870000D01*
X54750000Y-90870000D02*
X54750000Y-89120000D01*
X54750000Y-90870000D02*
X50250000Y-90870000D01*
X44100000Y-25400000D02*
X39400000Y-25400000D01*
X44100000Y-25400000D02*
X44100000Y-23600000D01*
X39400000Y-23600000D02*
X39400000Y-25400000D01*
X39400000Y-23600000D02*
X44100000Y-23600000D01*
X76550000Y-52720000D02*
X81050000Y-52720000D01*
X76550000Y-52720000D02*
X76550000Y-54470000D01*
X81050000Y-54470000D02*
X81050000Y-52720000D01*
X81050000Y-54470000D02*
X76550000Y-54470000D01*
X76550000Y-55320000D02*
X81050000Y-55320000D01*
X76550000Y-55320000D02*
X76550000Y-57070000D01*
X81050000Y-57070000D02*
X81050000Y-55320000D01*
X81050000Y-57070000D02*
X76550000Y-57070000D01*
X77900000Y-47600000D02*
X83600000Y-47600000D01*
X83600000Y-47600000D02*
X83600000Y-41900000D01*
X83600000Y-41900000D02*
X77900000Y-41900000D01*
X77900000Y-41900000D02*
X77900000Y-47600000D01*
X34800000Y-65400000D02*
X41200000Y-65400000D01*
X41200000Y-65400000D02*
X41200000Y-41750000D01*
X41200000Y-41750000D02*
X34800000Y-41750000D01*
X34800000Y-41750000D02*
X34800000Y-65400000D01*
X34800000Y-95900000D02*
X41200000Y-95900000D01*
X41200000Y-95900000D02*
X41200000Y-72250000D01*
X41200000Y-72250000D02*
X34800000Y-72250000D01*
X34800000Y-72250000D02*
X34800000Y-95900000D01*
X93150000Y-42000000D02*
X87450000Y-42000000D01*
X87450000Y-42000000D02*
X87450000Y-47700000D01*
X87450000Y-47700000D02*
X93150000Y-47700000D01*
X93150000Y-47700000D02*
X93150000Y-42000000D01*
X76620000Y-101250000D02*
X76620000Y-96750000D01*
X76620000Y-101250000D02*
X78370000Y-101250000D01*
X78370000Y-96750000D02*
X76620000Y-96750000D01*
X78370000Y-96750000D02*
X78370000Y-101250000D01*
X67050000Y-104880000D02*
X62550000Y-104880000D01*
X67050000Y-104880000D02*
X67050000Y-103130000D01*
X62550000Y-103130000D02*
X62550000Y-104880000D01*
X62550000Y-103130000D02*
X67050000Y-103130000D01*
X79650000Y-87780000D02*
X75150000Y-87780000D01*
X79650000Y-87780000D02*
X79650000Y-86030000D01*
X75150000Y-86030000D02*
X75150000Y-87780000D01*
X75150000Y-86030000D02*
X79650000Y-86030000D01*
X65120000Y-112000000D02*
X65120000Y-107500000D01*
X65120000Y-112000000D02*
X66870000Y-112000000D01*
X66870000Y-107500000D02*
X65120000Y-107500000D01*
X66870000Y-107500000D02*
X66870000Y-112000000D01*
X46250000Y-102370000D02*
X50750000Y-102370000D01*
X46250000Y-102370000D02*
X46250000Y-104120000D01*
X50750000Y-104120000D02*
X50750000Y-102370000D01*
X50750000Y-104120000D02*
X46250000Y-104120000D01*
X36250000Y-25380000D02*
X31750000Y-25380000D01*
X36250000Y-25380000D02*
X36250000Y-23630000D01*
X31750000Y-23630000D02*
X31750000Y-25380000D01*
X31750000Y-23630000D02*
X36250000Y-23630000D01*
X80450000Y-83420000D02*
X84950000Y-83420000D01*
X80450000Y-83420000D02*
X80450000Y-85170000D01*
X84950000Y-85170000D02*
X84950000Y-83420000D01*
X84950000Y-85170000D02*
X80450000Y-85170000D01*
X81150000Y-75400000D02*
X76450000Y-75400000D01*
X81150000Y-75400000D02*
X81150000Y-73600000D01*
X76450000Y-73600000D02*
X76450000Y-75400000D01*
X76450000Y-73600000D02*
X81150000Y-73600000D01*
X97175000Y-107125000D02*
X97175000Y-103125000D01*
X97175000Y-103125000D02*
X99075000Y-103125000D01*
X99075000Y-107125000D02*
X99075000Y-103125000D01*
X97175000Y-107125000D02*
X99075000Y-107125000D01*
X83350000Y-25300000D02*
X78650000Y-25300000D01*
X83350000Y-25300000D02*
X83350000Y-23500000D01*
X78650000Y-23500000D02*
X78650000Y-25300000D01*
X78650000Y-23500000D02*
X83350000Y-23500000D01*
X83800000Y-38050000D02*
X83800000Y-31900000D01*
X83800000Y-31900000D02*
X80200000Y-31900000D01*
X80200000Y-31900000D02*
X80200000Y-38050000D01*
X80200000Y-38050000D02*
X83800000Y-38050000D01*
X86500000Y-81400000D02*
X86500000Y-72750000D01*
X86500000Y-72750000D02*
X82900000Y-72750000D01*
X82900000Y-72750000D02*
X82900000Y-81400000D01*
X82900000Y-81400000D02*
X86500000Y-81400000D01*
X101325000Y-102075000D02*
X101325000Y-108225000D01*
X101325000Y-108225000D02*
X104925000Y-108225000D01*
X104925000Y-108225000D02*
X104925000Y-102075000D01*
X104925000Y-102075000D02*
X101325000Y-102075000D01*
X101800000Y-91700000D02*
X88050000Y-91700000D01*
X88050000Y-91700000D02*
X88050000Y-97850000D01*
X88050000Y-97850000D02*
X101800000Y-97850000D01*
X101800000Y-97850000D02*
X101800000Y-91700000D01*
X92200000Y-38000000D02*
X92200000Y-31850000D01*
X92200000Y-31850000D02*
X88600000Y-31850000D01*
X88600000Y-31850000D02*
X88600000Y-38000000D01*
X88600000Y-38000000D02*
X92200000Y-38000000D01*
X46700000Y-93450000D02*
X46700000Y-99600000D01*
X46700000Y-99600000D02*
X50300000Y-99600000D01*
X50300000Y-99600000D02*
X50300000Y-93450000D01*
X50300000Y-93450000D02*
X46700000Y-93450000D01*
X50850000Y-53650000D02*
X50850000Y-55950000D01*
X50850000Y-55950000D02*
X53950000Y-55950000D01*
X53950000Y-55950000D02*
X53950000Y-53650000D01*
X53950000Y-53650000D02*
X50850000Y-53650000D01*
X58200000Y-80350000D02*
X58200000Y-82650000D01*
X58200000Y-82650000D02*
X61300000Y-82650000D01*
X61300000Y-82650000D02*
X61300000Y-80350000D01*
X61300000Y-80350000D02*
X58200000Y-80350000D01*
X74550000Y-81610000D02*
X68050000Y-81610000D01*
X74550000Y-81610000D02*
X74550000Y-79400000D01*
X68050000Y-79400000D02*
X68050000Y-81610000D01*
X68050000Y-79400000D02*
X74550000Y-79400000D01*
X97050000Y-110300000D02*
X101750000Y-110300000D01*
X97050000Y-110300000D02*
X97050000Y-112100000D01*
X101750000Y-112100000D02*
X101750000Y-110300000D01*
X101750000Y-112100000D02*
X97050000Y-112100000D01*
X76600000Y-81350000D02*
X76600000Y-76650000D01*
X76600000Y-81350000D02*
X78400000Y-81350000D01*
X78400000Y-76650000D02*
X76600000Y-76650000D01*
X78400000Y-76650000D02*
X78400000Y-81350000D01*
X81300000Y-102650000D02*
X81300000Y-107350000D01*
X81300000Y-102650000D02*
X79500000Y-102650000D01*
X79500000Y-107350000D02*
X81300000Y-107350000D01*
X79500000Y-107350000D02*
X79500000Y-102650000D01*
X84650000Y-112300000D02*
X89350000Y-112300000D01*
X84650000Y-112300000D02*
X84650000Y-114100000D01*
X89350000Y-114100000D02*
X89350000Y-112300000D01*
X89350000Y-114100000D02*
X84650000Y-114100000D01*
X61400000Y-107400000D02*
X61400000Y-112100000D01*
X61400000Y-107400000D02*
X59600000Y-107400000D01*
X59600000Y-112100000D02*
X61400000Y-112100000D01*
X59600000Y-112100000D02*
X59600000Y-107400000D01*
X57650000Y-107400000D02*
X57650000Y-112100000D01*
X57650000Y-107400000D02*
X55850000Y-107400000D01*
X55850000Y-112100000D02*
X57650000Y-112100000D01*
X55850000Y-112100000D02*
X55850000Y-107400000D01*
X53350000Y-59500000D02*
X48650000Y-59500000D01*
X53350000Y-59500000D02*
X53350000Y-57700000D01*
X48650000Y-57700000D02*
X48650000Y-59500000D01*
X48650000Y-57700000D02*
X53350000Y-57700000D01*
X46400000Y-86650000D02*
X46400000Y-91350000D01*
X46400000Y-86650000D02*
X44600000Y-86650000D01*
X44600000Y-91350000D02*
X46400000Y-91350000D01*
X44600000Y-91350000D02*
X44600000Y-86650000D01*
X49400000Y-86650000D02*
X49400000Y-91350000D01*
X49400000Y-86650000D02*
X47600000Y-86650000D01*
X47600000Y-91350000D02*
X49400000Y-91350000D01*
X47600000Y-91350000D02*
X47600000Y-86650000D01*
X72650000Y-23500000D02*
X77350000Y-23500000D01*
X72650000Y-23500000D02*
X72650000Y-25300000D01*
X77350000Y-25300000D02*
X77350000Y-23500000D01*
X77350000Y-25300000D02*
X72650000Y-25300000D01*
X33500000Y-29250000D02*
X33250000Y-29250000D01*
X33250000Y-29250000D02*
X33250000Y-29500000D01*
X33500000Y-36750000D02*
X33250000Y-36750000D01*
X33250000Y-36750000D02*
X33250000Y-36500000D01*
X42750000Y-36500000D02*
X42750000Y-36750000D01*
X42750000Y-36750000D02*
X42500000Y-36750000D01*
X42750000Y-29500000D02*
X42750000Y-29250000D01*
X42750000Y-29250000D02*
X42500000Y-29250000D01*
X42500000Y-36750000D02*
X33500000Y-36750000D01*
X42750000Y-29500000D02*
X42750000Y-36500000D01*
X33500000Y-29250000D02*
X42500000Y-29250000D01*
X33250000Y-36500000D02*
X33250000Y-29500000D01*
X94475000Y-110475000D02*
X94475000Y-99775000D01*
X94475000Y-99775000D02*
X84275000Y-99775000D01*
X84275000Y-99775000D02*
X84275000Y-110475000D01*
X84275000Y-110475000D02*
X94475000Y-110475000D01*
X73200000Y-84800000D02*
X55800000Y-84800000D01*
X73200000Y-102200000D02*
X55800000Y-102200000D01*
X73200000Y-84800000D02*
X73200000Y-102200000D01*
X55800000Y-84800000D02*
X55800000Y-102200000D01*
X52200000Y-112350000D02*
X52200000Y-107150000D01*
X52200000Y-107150000D02*
X31800000Y-107150000D01*
X31800000Y-107150000D02*
X31800000Y-112350000D01*
X31800000Y-112350000D02*
X52200000Y-112350000D01*
M02*
