G04 #@! TF.FileFunction,Legend,Top*
%FSLAX46Y46*%
G04 Gerber Fmt 4.6, Leading zero omitted, Abs format (unit mm)*
G04 Created by KiCad (PCBNEW 4.0.7) date 12/21/18 13:01:04*
%MOMM*%
%LPD*%
G01*
G04 APERTURE LIST*
%ADD10C,0.100000*%
%ADD11C,0.300000*%
%ADD12C,0.120000*%
%ADD13C,0.150000*%
G04 APERTURE END LIST*
D10*
D11*
X84450000Y-90900000D02*
X84378571Y-91042857D01*
X84378571Y-91257143D01*
X84450000Y-91471428D01*
X84592857Y-91614286D01*
X84735714Y-91685714D01*
X85021429Y-91757143D01*
X85235714Y-91757143D01*
X85521429Y-91685714D01*
X85664286Y-91614286D01*
X85807143Y-91471428D01*
X85878571Y-91257143D01*
X85878571Y-91114286D01*
X85807143Y-90900000D01*
X85735714Y-90828571D01*
X85235714Y-90828571D01*
X85235714Y-91114286D01*
X85878571Y-90185714D02*
X84378571Y-90185714D01*
X84378571Y-89614286D01*
X84450000Y-89471428D01*
X84521429Y-89400000D01*
X84664286Y-89328571D01*
X84878571Y-89328571D01*
X85021429Y-89400000D01*
X85092857Y-89471428D01*
X85164286Y-89614286D01*
X85164286Y-90185714D01*
X85878571Y-88685714D02*
X84378571Y-88685714D01*
X84378571Y-87685714D02*
X84378571Y-87400000D01*
X84450000Y-87257142D01*
X84592857Y-87114285D01*
X84878571Y-87042857D01*
X85378571Y-87042857D01*
X85664286Y-87114285D01*
X85807143Y-87257142D01*
X85878571Y-87400000D01*
X85878571Y-87685714D01*
X85807143Y-87828571D01*
X85664286Y-87971428D01*
X85378571Y-88042857D01*
X84878571Y-88042857D01*
X84592857Y-87971428D01*
X84450000Y-87828571D01*
X84378571Y-87685714D01*
X48207143Y-55678571D02*
X47707143Y-54964286D01*
X47350000Y-55678571D02*
X47350000Y-54178571D01*
X47921428Y-54178571D01*
X48064286Y-54250000D01*
X48135714Y-54321429D01*
X48207143Y-54464286D01*
X48207143Y-54678571D01*
X48135714Y-54821429D01*
X48064286Y-54892857D01*
X47921428Y-54964286D01*
X47350000Y-54964286D01*
X48707143Y-54178571D02*
X49064286Y-55678571D01*
X49350000Y-54607143D01*
X49635714Y-55678571D01*
X49992857Y-54178571D01*
X46992857Y-53920000D02*
X50207143Y-53920000D01*
X53142858Y-81935714D02*
X53071429Y-82007143D01*
X52857143Y-82078571D01*
X52714286Y-82078571D01*
X52500001Y-82007143D01*
X52357143Y-81864286D01*
X52285715Y-81721429D01*
X52214286Y-81435714D01*
X52214286Y-81221429D01*
X52285715Y-80935714D01*
X52357143Y-80792857D01*
X52500001Y-80650000D01*
X52714286Y-80578571D01*
X52857143Y-80578571D01*
X53071429Y-80650000D01*
X53142858Y-80721429D01*
X54000001Y-82078571D02*
X53857143Y-82007143D01*
X53785715Y-81864286D01*
X53785715Y-80578571D01*
X54785715Y-82078571D02*
X54642857Y-82007143D01*
X54571429Y-81935714D01*
X54500000Y-81792857D01*
X54500000Y-81364286D01*
X54571429Y-81221429D01*
X54642857Y-81150000D01*
X54785715Y-81078571D01*
X55000000Y-81078571D01*
X55142857Y-81150000D01*
X55214286Y-81221429D01*
X55285715Y-81364286D01*
X55285715Y-81792857D01*
X55214286Y-81935714D01*
X55142857Y-82007143D01*
X55000000Y-82078571D01*
X54785715Y-82078571D01*
X56571429Y-82007143D02*
X56428572Y-82078571D01*
X56142858Y-82078571D01*
X56000000Y-82007143D01*
X55928572Y-81935714D01*
X55857143Y-81792857D01*
X55857143Y-81364286D01*
X55928572Y-81221429D01*
X56000000Y-81150000D01*
X56142858Y-81078571D01*
X56428572Y-81078571D01*
X56571429Y-81150000D01*
X57214286Y-82078571D02*
X57214286Y-80578571D01*
X57357143Y-81507143D02*
X57785714Y-82078571D01*
X57785714Y-81078571D02*
X57214286Y-81650000D01*
X41978572Y-98607143D02*
X42192858Y-98678571D01*
X42550001Y-98678571D01*
X42692858Y-98607143D01*
X42764287Y-98535714D01*
X42835715Y-98392857D01*
X42835715Y-98250000D01*
X42764287Y-98107143D01*
X42692858Y-98035714D01*
X42550001Y-97964286D01*
X42264287Y-97892857D01*
X42121429Y-97821429D01*
X42050001Y-97750000D01*
X41978572Y-97607143D01*
X41978572Y-97464286D01*
X42050001Y-97321429D01*
X42121429Y-97250000D01*
X42264287Y-97178571D01*
X42621429Y-97178571D01*
X42835715Y-97250000D01*
X43478572Y-98678571D02*
X43478572Y-97178571D01*
X43835715Y-97178571D01*
X44050000Y-97250000D01*
X44192858Y-97392857D01*
X44264286Y-97535714D01*
X44335715Y-97821429D01*
X44335715Y-98035714D01*
X44264286Y-98321429D01*
X44192858Y-98464286D01*
X44050000Y-98607143D01*
X43835715Y-98678571D01*
X43478572Y-98678571D01*
X44907143Y-98250000D02*
X45621429Y-98250000D01*
X44764286Y-98678571D02*
X45264286Y-97178571D01*
X45764286Y-98678571D01*
X42614286Y-95607143D02*
X42828572Y-95678571D01*
X43185715Y-95678571D01*
X43328572Y-95607143D01*
X43400001Y-95535714D01*
X43471429Y-95392857D01*
X43471429Y-95250000D01*
X43400001Y-95107143D01*
X43328572Y-95035714D01*
X43185715Y-94964286D01*
X42900001Y-94892857D01*
X42757143Y-94821429D01*
X42685715Y-94750000D01*
X42614286Y-94607143D01*
X42614286Y-94464286D01*
X42685715Y-94321429D01*
X42757143Y-94250000D01*
X42900001Y-94178571D01*
X43257143Y-94178571D01*
X43471429Y-94250000D01*
X44971429Y-95535714D02*
X44900000Y-95607143D01*
X44685714Y-95678571D01*
X44542857Y-95678571D01*
X44328572Y-95607143D01*
X44185714Y-95464286D01*
X44114286Y-95321429D01*
X44042857Y-95035714D01*
X44042857Y-94821429D01*
X44114286Y-94535714D01*
X44185714Y-94392857D01*
X44328572Y-94250000D01*
X44542857Y-94178571D01*
X44685714Y-94178571D01*
X44900000Y-94250000D01*
X44971429Y-94321429D01*
X46328572Y-95678571D02*
X45614286Y-95678571D01*
X45614286Y-94178571D01*
X26942858Y-33278571D02*
X26442858Y-32564286D01*
X26085715Y-33278571D02*
X26085715Y-31778571D01*
X26657143Y-31778571D01*
X26800001Y-31850000D01*
X26871429Y-31921429D01*
X26942858Y-32064286D01*
X26942858Y-32278571D01*
X26871429Y-32421429D01*
X26800001Y-32492857D01*
X26657143Y-32564286D01*
X26085715Y-32564286D01*
X28157143Y-33207143D02*
X28014286Y-33278571D01*
X27728572Y-33278571D01*
X27585715Y-33207143D01*
X27514286Y-33064286D01*
X27514286Y-32492857D01*
X27585715Y-32350000D01*
X27728572Y-32278571D01*
X28014286Y-32278571D01*
X28157143Y-32350000D01*
X28228572Y-32492857D01*
X28228572Y-32635714D01*
X27514286Y-32778571D01*
X28800000Y-33207143D02*
X28942857Y-33278571D01*
X29228572Y-33278571D01*
X29371429Y-33207143D01*
X29442857Y-33064286D01*
X29442857Y-32992857D01*
X29371429Y-32850000D01*
X29228572Y-32778571D01*
X29014286Y-32778571D01*
X28871429Y-32707143D01*
X28800000Y-32564286D01*
X28800000Y-32492857D01*
X28871429Y-32350000D01*
X29014286Y-32278571D01*
X29228572Y-32278571D01*
X29371429Y-32350000D01*
X30657143Y-33207143D02*
X30514286Y-33278571D01*
X30228572Y-33278571D01*
X30085715Y-33207143D01*
X30014286Y-33064286D01*
X30014286Y-32492857D01*
X30085715Y-32350000D01*
X30228572Y-32278571D01*
X30514286Y-32278571D01*
X30657143Y-32350000D01*
X30728572Y-32492857D01*
X30728572Y-32635714D01*
X30014286Y-32778571D01*
X31157143Y-32278571D02*
X31728572Y-32278571D01*
X31371429Y-31778571D02*
X31371429Y-33064286D01*
X31442857Y-33207143D01*
X31585715Y-33278571D01*
X31728572Y-33278571D01*
X62235715Y-22078571D02*
X62235715Y-20578571D01*
X62807143Y-20578571D01*
X62950001Y-20650000D01*
X63021429Y-20721429D01*
X63092858Y-20864286D01*
X63092858Y-21078571D01*
X63021429Y-21221429D01*
X62950001Y-21292857D01*
X62807143Y-21364286D01*
X62235715Y-21364286D01*
X63950001Y-22078571D02*
X63807143Y-22007143D01*
X63735715Y-21935714D01*
X63664286Y-21792857D01*
X63664286Y-21364286D01*
X63735715Y-21221429D01*
X63807143Y-21150000D01*
X63950001Y-21078571D01*
X64164286Y-21078571D01*
X64307143Y-21150000D01*
X64378572Y-21221429D01*
X64450001Y-21364286D01*
X64450001Y-21792857D01*
X64378572Y-21935714D01*
X64307143Y-22007143D01*
X64164286Y-22078571D01*
X63950001Y-22078571D01*
X64950001Y-21078571D02*
X65235715Y-22078571D01*
X65521429Y-21364286D01*
X65807144Y-22078571D01*
X66092858Y-21078571D01*
X67235715Y-22007143D02*
X67092858Y-22078571D01*
X66807144Y-22078571D01*
X66664287Y-22007143D01*
X66592858Y-21864286D01*
X66592858Y-21292857D01*
X66664287Y-21150000D01*
X66807144Y-21078571D01*
X67092858Y-21078571D01*
X67235715Y-21150000D01*
X67307144Y-21292857D01*
X67307144Y-21435714D01*
X66592858Y-21578571D01*
X67950001Y-22078571D02*
X67950001Y-21078571D01*
X67950001Y-21364286D02*
X68021429Y-21221429D01*
X68092858Y-21150000D01*
X68235715Y-21078571D01*
X68378572Y-21078571D01*
X69028572Y-24307143D02*
X70171429Y-24307143D01*
X59428572Y-24507143D02*
X60571429Y-24507143D01*
X60000000Y-25078571D02*
X60000000Y-23935714D01*
X87650000Y-28575000D02*
X88364286Y-28575000D01*
X87507143Y-29003571D02*
X88007143Y-27503571D01*
X88507143Y-29003571D01*
X89650000Y-28003571D02*
X89650000Y-29003571D01*
X89007143Y-28003571D02*
X89007143Y-28789286D01*
X89078571Y-28932143D01*
X89221429Y-29003571D01*
X89435714Y-29003571D01*
X89578571Y-28932143D01*
X89650000Y-28860714D01*
X91007143Y-29003571D02*
X91007143Y-27503571D01*
X91007143Y-28932143D02*
X90864286Y-29003571D01*
X90578572Y-29003571D01*
X90435714Y-28932143D01*
X90364286Y-28860714D01*
X90292857Y-28717857D01*
X90292857Y-28289286D01*
X90364286Y-28146429D01*
X90435714Y-28075000D01*
X90578572Y-28003571D01*
X90864286Y-28003571D01*
X91007143Y-28075000D01*
X91721429Y-29003571D02*
X91721429Y-28003571D01*
X91721429Y-27503571D02*
X91650000Y-27575000D01*
X91721429Y-27646429D01*
X91792857Y-27575000D01*
X91721429Y-27503571D01*
X91721429Y-27646429D01*
X92650001Y-29003571D02*
X92507143Y-28932143D01*
X92435715Y-28860714D01*
X92364286Y-28717857D01*
X92364286Y-28289286D01*
X92435715Y-28146429D01*
X92507143Y-28075000D01*
X92650001Y-28003571D01*
X92864286Y-28003571D01*
X93007143Y-28075000D01*
X93078572Y-28146429D01*
X93150001Y-28289286D01*
X93150001Y-28717857D01*
X93078572Y-28860714D01*
X93007143Y-28932143D01*
X92864286Y-29003571D01*
X92650001Y-29003571D01*
X89721429Y-31553571D02*
X89721429Y-30053571D01*
X90435715Y-30553571D02*
X90435715Y-31553571D01*
X90435715Y-30696429D02*
X90507143Y-30625000D01*
X90650001Y-30553571D01*
X90864286Y-30553571D01*
X91007143Y-30625000D01*
X91078572Y-30767857D01*
X91078572Y-31553571D01*
X79250000Y-28975000D02*
X79964286Y-28975000D01*
X79107143Y-29403571D02*
X79607143Y-27903571D01*
X80107143Y-29403571D01*
X81250000Y-28403571D02*
X81250000Y-29403571D01*
X80607143Y-28403571D02*
X80607143Y-29189286D01*
X80678571Y-29332143D01*
X80821429Y-29403571D01*
X81035714Y-29403571D01*
X81178571Y-29332143D01*
X81250000Y-29260714D01*
X82607143Y-29403571D02*
X82607143Y-27903571D01*
X82607143Y-29332143D02*
X82464286Y-29403571D01*
X82178572Y-29403571D01*
X82035714Y-29332143D01*
X81964286Y-29260714D01*
X81892857Y-29117857D01*
X81892857Y-28689286D01*
X81964286Y-28546429D01*
X82035714Y-28475000D01*
X82178572Y-28403571D01*
X82464286Y-28403571D01*
X82607143Y-28475000D01*
X83321429Y-29403571D02*
X83321429Y-28403571D01*
X83321429Y-27903571D02*
X83250000Y-27975000D01*
X83321429Y-28046429D01*
X83392857Y-27975000D01*
X83321429Y-27903571D01*
X83321429Y-28046429D01*
X84250001Y-29403571D02*
X84107143Y-29332143D01*
X84035715Y-29260714D01*
X83964286Y-29117857D01*
X83964286Y-28689286D01*
X84035715Y-28546429D01*
X84107143Y-28475000D01*
X84250001Y-28403571D01*
X84464286Y-28403571D01*
X84607143Y-28475000D01*
X84678572Y-28546429D01*
X84750001Y-28689286D01*
X84750001Y-29117857D01*
X84678572Y-29260714D01*
X84607143Y-29332143D01*
X84464286Y-29403571D01*
X84250001Y-29403571D01*
X80750000Y-30453571D02*
X81035714Y-30453571D01*
X81178572Y-30525000D01*
X81321429Y-30667857D01*
X81392857Y-30953571D01*
X81392857Y-31453571D01*
X81321429Y-31739286D01*
X81178572Y-31882143D01*
X81035714Y-31953571D01*
X80750000Y-31953571D01*
X80607143Y-31882143D01*
X80464286Y-31739286D01*
X80392857Y-31453571D01*
X80392857Y-30953571D01*
X80464286Y-30667857D01*
X80607143Y-30525000D01*
X80750000Y-30453571D01*
X82678572Y-30953571D02*
X82678572Y-31953571D01*
X82035715Y-30953571D02*
X82035715Y-31739286D01*
X82107143Y-31882143D01*
X82250001Y-31953571D01*
X82464286Y-31953571D01*
X82607143Y-31882143D01*
X82678572Y-31810714D01*
X83178572Y-30953571D02*
X83750001Y-30953571D01*
X83392858Y-30453571D02*
X83392858Y-31739286D01*
X83464286Y-31882143D01*
X83607144Y-31953571D01*
X83750001Y-31953571D01*
X87128572Y-73003571D02*
X87128572Y-71503571D01*
X87485715Y-71503571D01*
X87700000Y-71575000D01*
X87842858Y-71717857D01*
X87914286Y-71860714D01*
X87985715Y-72146429D01*
X87985715Y-72360714D01*
X87914286Y-72646429D01*
X87842858Y-72789286D01*
X87700000Y-72932143D01*
X87485715Y-73003571D01*
X87128572Y-73003571D01*
X89200000Y-72932143D02*
X89057143Y-73003571D01*
X88771429Y-73003571D01*
X88628572Y-72932143D01*
X88557143Y-72789286D01*
X88557143Y-72217857D01*
X88628572Y-72075000D01*
X88771429Y-72003571D01*
X89057143Y-72003571D01*
X89200000Y-72075000D01*
X89271429Y-72217857D01*
X89271429Y-72360714D01*
X88557143Y-72503571D01*
X89914286Y-73003571D02*
X89914286Y-71503571D01*
X89914286Y-72075000D02*
X90057143Y-72003571D01*
X90342857Y-72003571D01*
X90485714Y-72075000D01*
X90557143Y-72146429D01*
X90628572Y-72289286D01*
X90628572Y-72717857D01*
X90557143Y-72860714D01*
X90485714Y-72932143D01*
X90342857Y-73003571D01*
X90057143Y-73003571D01*
X89914286Y-72932143D01*
X91914286Y-72003571D02*
X91914286Y-73003571D01*
X91271429Y-72003571D02*
X91271429Y-72789286D01*
X91342857Y-72932143D01*
X91485715Y-73003571D01*
X91700000Y-73003571D01*
X91842857Y-72932143D01*
X91914286Y-72860714D01*
X93271429Y-72003571D02*
X93271429Y-73217857D01*
X93200000Y-73360714D01*
X93128572Y-73432143D01*
X92985715Y-73503571D01*
X92771429Y-73503571D01*
X92628572Y-73432143D01*
X93271429Y-72932143D02*
X93128572Y-73003571D01*
X92842858Y-73003571D01*
X92700000Y-72932143D01*
X92628572Y-72860714D01*
X92557143Y-72717857D01*
X92557143Y-72289286D01*
X92628572Y-72146429D01*
X92700000Y-72075000D01*
X92842858Y-72003571D01*
X93128572Y-72003571D01*
X93271429Y-72075000D01*
X87807143Y-74053571D02*
X87807143Y-75267857D01*
X87878571Y-75410714D01*
X87950000Y-75482143D01*
X88092857Y-75553571D01*
X88378571Y-75553571D01*
X88521429Y-75482143D01*
X88592857Y-75410714D01*
X88664286Y-75267857D01*
X88664286Y-74053571D01*
X89307143Y-75125000D02*
X90021429Y-75125000D01*
X89164286Y-75553571D02*
X89664286Y-74053571D01*
X90164286Y-75553571D01*
X91521429Y-75553571D02*
X91021429Y-74839286D01*
X90664286Y-75553571D02*
X90664286Y-74053571D01*
X91235714Y-74053571D01*
X91378572Y-74125000D01*
X91450000Y-74196429D01*
X91521429Y-74339286D01*
X91521429Y-74553571D01*
X91450000Y-74696429D01*
X91378572Y-74767857D01*
X91235714Y-74839286D01*
X90664286Y-74839286D01*
X91950000Y-74053571D02*
X92807143Y-74053571D01*
X92378572Y-75553571D02*
X92378572Y-74053571D01*
X87057143Y-76578571D02*
X87914286Y-76578571D01*
X87485715Y-78078571D02*
X87485715Y-76578571D01*
X88271429Y-76578571D02*
X89271429Y-78078571D01*
X89271429Y-76578571D02*
X88271429Y-78078571D01*
X87950001Y-80478571D02*
X87450001Y-79764286D01*
X87092858Y-80478571D02*
X87092858Y-78978571D01*
X87664286Y-78978571D01*
X87807144Y-79050000D01*
X87878572Y-79121429D01*
X87950001Y-79264286D01*
X87950001Y-79478571D01*
X87878572Y-79621429D01*
X87807144Y-79692857D01*
X87664286Y-79764286D01*
X87092858Y-79764286D01*
X88450001Y-78978571D02*
X89450001Y-80478571D01*
X89450001Y-78978571D02*
X88450001Y-80478571D01*
X92600000Y-89678571D02*
X92600000Y-90750000D01*
X92528572Y-90964286D01*
X92385715Y-91107143D01*
X92171429Y-91178571D01*
X92028572Y-91178571D01*
X93100000Y-89678571D02*
X93957143Y-89678571D01*
X93528572Y-91178571D02*
X93528572Y-89678571D01*
X94385714Y-90750000D02*
X95100000Y-90750000D01*
X94242857Y-91178571D02*
X94742857Y-89678571D01*
X95242857Y-91178571D01*
X96528571Y-89750000D02*
X96385714Y-89678571D01*
X96171428Y-89678571D01*
X95957143Y-89750000D01*
X95814285Y-89892857D01*
X95742857Y-90035714D01*
X95671428Y-90321429D01*
X95671428Y-90535714D01*
X95742857Y-90821429D01*
X95814285Y-90964286D01*
X95957143Y-91107143D01*
X96171428Y-91178571D01*
X96314285Y-91178571D01*
X96528571Y-91107143D01*
X96600000Y-91035714D01*
X96600000Y-90535714D01*
X96314285Y-90535714D01*
X105435714Y-104603571D02*
X105435714Y-103103571D01*
X105935714Y-104175000D01*
X106435714Y-103103571D01*
X106435714Y-104603571D01*
X107150000Y-104603571D02*
X107150000Y-103103571D01*
X107864286Y-104603571D02*
X107864286Y-103103571D01*
X108221429Y-103103571D01*
X108435714Y-103175000D01*
X108578572Y-103317857D01*
X108650000Y-103460714D01*
X108721429Y-103746429D01*
X108721429Y-103960714D01*
X108650000Y-104246429D01*
X108578572Y-104389286D01*
X108435714Y-104532143D01*
X108221429Y-104603571D01*
X107864286Y-104603571D01*
X109364286Y-104603571D02*
X109364286Y-103103571D01*
X106614286Y-107153571D02*
X106614286Y-105653571D01*
X107328572Y-107153571D02*
X107328572Y-105653571D01*
X108185715Y-107153571D01*
X108185715Y-105653571D01*
X94357143Y-53303571D02*
X94357143Y-51803571D01*
X94857143Y-52875000D01*
X95357143Y-51803571D01*
X95357143Y-53303571D01*
X96357143Y-51803571D02*
X96642857Y-51803571D01*
X96785715Y-51875000D01*
X96928572Y-52017857D01*
X97000000Y-52303571D01*
X97000000Y-52803571D01*
X96928572Y-53089286D01*
X96785715Y-53232143D01*
X96642857Y-53303571D01*
X96357143Y-53303571D01*
X96214286Y-53232143D01*
X96071429Y-53089286D01*
X96000000Y-52803571D01*
X96000000Y-52303571D01*
X96071429Y-52017857D01*
X96214286Y-51875000D01*
X96357143Y-51803571D01*
X97571429Y-53232143D02*
X97785715Y-53303571D01*
X98142858Y-53303571D01*
X98285715Y-53232143D01*
X98357144Y-53160714D01*
X98428572Y-53017857D01*
X98428572Y-52875000D01*
X98357144Y-52732143D01*
X98285715Y-52660714D01*
X98142858Y-52589286D01*
X97857144Y-52517857D01*
X97714286Y-52446429D01*
X97642858Y-52375000D01*
X97571429Y-52232143D01*
X97571429Y-52089286D01*
X97642858Y-51946429D01*
X97714286Y-51875000D01*
X97857144Y-51803571D01*
X98214286Y-51803571D01*
X98428572Y-51875000D01*
X99714286Y-51803571D02*
X99428572Y-51803571D01*
X99285715Y-51875000D01*
X99214286Y-51946429D01*
X99071429Y-52160714D01*
X99000000Y-52446429D01*
X99000000Y-53017857D01*
X99071429Y-53160714D01*
X99142857Y-53232143D01*
X99285715Y-53303571D01*
X99571429Y-53303571D01*
X99714286Y-53232143D01*
X99785715Y-53160714D01*
X99857143Y-53017857D01*
X99857143Y-52660714D01*
X99785715Y-52517857D01*
X99714286Y-52446429D01*
X99571429Y-52375000D01*
X99285715Y-52375000D01*
X99142857Y-52446429D01*
X99071429Y-52517857D01*
X99000000Y-52660714D01*
X101214286Y-51803571D02*
X100500000Y-51803571D01*
X100428571Y-52517857D01*
X100500000Y-52446429D01*
X100642857Y-52375000D01*
X101000000Y-52375000D01*
X101142857Y-52446429D01*
X101214286Y-52517857D01*
X101285714Y-52660714D01*
X101285714Y-53017857D01*
X101214286Y-53160714D01*
X101142857Y-53232143D01*
X101000000Y-53303571D01*
X100642857Y-53303571D01*
X100500000Y-53232143D01*
X100428571Y-53160714D01*
X102142857Y-52446429D02*
X101999999Y-52375000D01*
X101928571Y-52303571D01*
X101857142Y-52160714D01*
X101857142Y-52089286D01*
X101928571Y-51946429D01*
X101999999Y-51875000D01*
X102142857Y-51803571D01*
X102428571Y-51803571D01*
X102571428Y-51875000D01*
X102642857Y-51946429D01*
X102714285Y-52089286D01*
X102714285Y-52160714D01*
X102642857Y-52303571D01*
X102571428Y-52375000D01*
X102428571Y-52446429D01*
X102142857Y-52446429D01*
X101999999Y-52517857D01*
X101928571Y-52589286D01*
X101857142Y-52732143D01*
X101857142Y-53017857D01*
X101928571Y-53160714D01*
X101999999Y-53232143D01*
X102142857Y-53303571D01*
X102428571Y-53303571D01*
X102571428Y-53232143D01*
X102642857Y-53160714D01*
X102714285Y-53017857D01*
X102714285Y-52732143D01*
X102642857Y-52589286D01*
X102571428Y-52517857D01*
X102428571Y-52446429D01*
X104142856Y-53303571D02*
X103285713Y-53303571D01*
X103714285Y-53303571D02*
X103714285Y-51803571D01*
X103571428Y-52017857D01*
X103428570Y-52160714D01*
X103285713Y-52232143D01*
X105928570Y-53303571D02*
X105928570Y-51803571D01*
X105928570Y-52375000D02*
X106071427Y-52303571D01*
X106357141Y-52303571D01*
X106499998Y-52375000D01*
X106571427Y-52446429D01*
X106642856Y-52589286D01*
X106642856Y-53017857D01*
X106571427Y-53160714D01*
X106499998Y-53232143D01*
X106357141Y-53303571D01*
X106071427Y-53303571D01*
X105928570Y-53232143D01*
X107499999Y-53303571D02*
X107357141Y-53232143D01*
X107285713Y-53160714D01*
X107214284Y-53017857D01*
X107214284Y-52589286D01*
X107285713Y-52446429D01*
X107357141Y-52375000D01*
X107499999Y-52303571D01*
X107714284Y-52303571D01*
X107857141Y-52375000D01*
X107928570Y-52446429D01*
X107999999Y-52589286D01*
X107999999Y-53017857D01*
X107928570Y-53160714D01*
X107857141Y-53232143D01*
X107714284Y-53303571D01*
X107499999Y-53303571D01*
X109285713Y-53303571D02*
X109285713Y-52517857D01*
X109214284Y-52375000D01*
X109071427Y-52303571D01*
X108785713Y-52303571D01*
X108642856Y-52375000D01*
X109285713Y-53232143D02*
X109142856Y-53303571D01*
X108785713Y-53303571D01*
X108642856Y-53232143D01*
X108571427Y-53089286D01*
X108571427Y-52946429D01*
X108642856Y-52803571D01*
X108785713Y-52732143D01*
X109142856Y-52732143D01*
X109285713Y-52660714D01*
X109999999Y-53303571D02*
X109999999Y-52303571D01*
X109999999Y-52589286D02*
X110071427Y-52446429D01*
X110142856Y-52375000D01*
X110285713Y-52303571D01*
X110428570Y-52303571D01*
X111571427Y-53303571D02*
X111571427Y-51803571D01*
X111571427Y-53232143D02*
X111428570Y-53303571D01*
X111142856Y-53303571D01*
X110999998Y-53232143D01*
X110928570Y-53160714D01*
X110857141Y-53017857D01*
X110857141Y-52589286D01*
X110928570Y-52446429D01*
X110999998Y-52375000D01*
X111142856Y-52303571D01*
X111428570Y-52303571D01*
X111571427Y-52375000D01*
X94214286Y-54853571D02*
X94571429Y-55853571D01*
X94928571Y-54853571D01*
X95785714Y-54353571D02*
X95928571Y-54353571D01*
X96071428Y-54425000D01*
X96142857Y-54496429D01*
X96214286Y-54639286D01*
X96285714Y-54925000D01*
X96285714Y-55282143D01*
X96214286Y-55567857D01*
X96142857Y-55710714D01*
X96071428Y-55782143D01*
X95928571Y-55853571D01*
X95785714Y-55853571D01*
X95642857Y-55782143D01*
X95571428Y-55710714D01*
X95500000Y-55567857D01*
X95428571Y-55282143D01*
X95428571Y-54925000D01*
X95500000Y-54639286D01*
X95571428Y-54496429D01*
X95642857Y-54425000D01*
X95785714Y-54353571D01*
X96857142Y-54496429D02*
X96928571Y-54425000D01*
X97071428Y-54353571D01*
X97428571Y-54353571D01*
X97571428Y-54425000D01*
X97642857Y-54496429D01*
X97714285Y-54639286D01*
X97714285Y-54782143D01*
X97642857Y-54996429D01*
X96785714Y-55853571D01*
X97714285Y-55853571D01*
X95214286Y-58260714D02*
X95142857Y-58332143D01*
X94928571Y-58403571D01*
X94785714Y-58403571D01*
X94571429Y-58332143D01*
X94428571Y-58189286D01*
X94357143Y-58046429D01*
X94285714Y-57760714D01*
X94285714Y-57546429D01*
X94357143Y-57260714D01*
X94428571Y-57117857D01*
X94571429Y-56975000D01*
X94785714Y-56903571D01*
X94928571Y-56903571D01*
X95142857Y-56975000D01*
X95214286Y-57046429D01*
X95857143Y-58403571D02*
X95857143Y-57403571D01*
X95857143Y-57689286D02*
X95928571Y-57546429D01*
X96000000Y-57475000D01*
X96142857Y-57403571D01*
X96285714Y-57403571D01*
X97000000Y-58403571D02*
X96857142Y-58332143D01*
X96785714Y-58260714D01*
X96714285Y-58117857D01*
X96714285Y-57689286D01*
X96785714Y-57546429D01*
X96857142Y-57475000D01*
X97000000Y-57403571D01*
X97214285Y-57403571D01*
X97357142Y-57475000D01*
X97428571Y-57546429D01*
X97500000Y-57689286D01*
X97500000Y-58117857D01*
X97428571Y-58260714D01*
X97357142Y-58332143D01*
X97214285Y-58403571D01*
X97000000Y-58403571D01*
X97928571Y-57403571D02*
X98500000Y-57403571D01*
X98142857Y-58403571D02*
X98142857Y-57117857D01*
X98214285Y-56975000D01*
X98357143Y-56903571D01*
X98500000Y-56903571D01*
X98785714Y-57403571D02*
X99357143Y-57403571D01*
X99000000Y-56903571D02*
X99000000Y-58189286D01*
X99071428Y-58332143D01*
X99214286Y-58403571D01*
X99357143Y-58403571D01*
X94357143Y-60953571D02*
X94357143Y-59453571D01*
X94714286Y-59453571D01*
X94928571Y-59525000D01*
X95071429Y-59667857D01*
X95142857Y-59810714D01*
X95214286Y-60096429D01*
X95214286Y-60310714D01*
X95142857Y-60596429D01*
X95071429Y-60739286D01*
X94928571Y-60882143D01*
X94714286Y-60953571D01*
X94357143Y-60953571D01*
X95928571Y-59453571D02*
X95785714Y-59739286D01*
X96500000Y-60525000D02*
X97214286Y-60525000D01*
X96357143Y-60953571D02*
X96857143Y-59453571D01*
X97357143Y-60953571D01*
X97857143Y-59953571D02*
X97857143Y-60953571D01*
X97857143Y-60096429D02*
X97928571Y-60025000D01*
X98071429Y-59953571D01*
X98285714Y-59953571D01*
X98428571Y-60025000D01*
X98500000Y-60167857D01*
X98500000Y-60953571D01*
X99857143Y-60953571D02*
X99857143Y-59453571D01*
X99857143Y-60882143D02*
X99714286Y-60953571D01*
X99428572Y-60953571D01*
X99285714Y-60882143D01*
X99214286Y-60810714D01*
X99142857Y-60667857D01*
X99142857Y-60239286D01*
X99214286Y-60096429D01*
X99285714Y-60025000D01*
X99428572Y-59953571D01*
X99714286Y-59953571D01*
X99857143Y-60025000D01*
X100571429Y-60953571D02*
X100571429Y-59953571D01*
X100571429Y-60239286D02*
X100642857Y-60096429D01*
X100714286Y-60025000D01*
X100857143Y-59953571D01*
X101000000Y-59953571D01*
X102071428Y-60882143D02*
X101928571Y-60953571D01*
X101642857Y-60953571D01*
X101500000Y-60882143D01*
X101428571Y-60739286D01*
X101428571Y-60167857D01*
X101500000Y-60025000D01*
X101642857Y-59953571D01*
X101928571Y-59953571D01*
X102071428Y-60025000D01*
X102142857Y-60167857D01*
X102142857Y-60310714D01*
X101428571Y-60453571D01*
X103428571Y-60953571D02*
X103428571Y-60167857D01*
X103357142Y-60025000D01*
X103214285Y-59953571D01*
X102928571Y-59953571D01*
X102785714Y-60025000D01*
X103428571Y-60882143D02*
X103285714Y-60953571D01*
X102928571Y-60953571D01*
X102785714Y-60882143D01*
X102714285Y-60739286D01*
X102714285Y-60596429D01*
X102785714Y-60453571D01*
X102928571Y-60382143D01*
X103285714Y-60382143D01*
X103428571Y-60310714D01*
X94357143Y-63503571D02*
X94357143Y-62003571D01*
X94714286Y-62003571D01*
X94928571Y-62075000D01*
X95071429Y-62217857D01*
X95142857Y-62360714D01*
X95214286Y-62646429D01*
X95214286Y-62860714D01*
X95142857Y-63146429D01*
X95071429Y-63289286D01*
X94928571Y-63432143D01*
X94714286Y-63503571D01*
X94357143Y-63503571D01*
X95857143Y-63503571D02*
X95857143Y-62503571D01*
X95857143Y-62003571D02*
X95785714Y-62075000D01*
X95857143Y-62146429D01*
X95928571Y-62075000D01*
X95857143Y-62003571D01*
X95857143Y-62146429D01*
X96571429Y-63503571D02*
X96571429Y-62003571D01*
X97142857Y-62003571D01*
X97285715Y-62075000D01*
X97357143Y-62146429D01*
X97428572Y-62289286D01*
X97428572Y-62503571D01*
X97357143Y-62646429D01*
X97285715Y-62717857D01*
X97142857Y-62789286D01*
X96571429Y-62789286D01*
X98071429Y-63503571D02*
X98071429Y-62503571D01*
X98071429Y-62003571D02*
X98000000Y-62075000D01*
X98071429Y-62146429D01*
X98142857Y-62075000D01*
X98071429Y-62003571D01*
X98071429Y-62146429D01*
X99357143Y-63432143D02*
X99214286Y-63503571D01*
X98928572Y-63503571D01*
X98785715Y-63432143D01*
X98714286Y-63289286D01*
X98714286Y-62717857D01*
X98785715Y-62575000D01*
X98928572Y-62503571D01*
X99214286Y-62503571D01*
X99357143Y-62575000D01*
X99428572Y-62717857D01*
X99428572Y-62860714D01*
X98714286Y-63003571D01*
X99857143Y-62503571D02*
X100428572Y-62503571D01*
X100071429Y-62003571D02*
X100071429Y-63289286D01*
X100142857Y-63432143D01*
X100285715Y-63503571D01*
X100428572Y-63503571D01*
X100928572Y-63503571D02*
X100928572Y-62503571D01*
X100928572Y-62789286D02*
X101000000Y-62646429D01*
X101071429Y-62575000D01*
X101214286Y-62503571D01*
X101357143Y-62503571D01*
X102071429Y-63503571D02*
X101928571Y-63432143D01*
X101857143Y-63360714D01*
X101785714Y-63217857D01*
X101785714Y-62789286D01*
X101857143Y-62646429D01*
X101928571Y-62575000D01*
X102071429Y-62503571D01*
X102285714Y-62503571D01*
X102428571Y-62575000D01*
X102500000Y-62646429D01*
X102571429Y-62789286D01*
X102571429Y-63217857D01*
X102500000Y-63360714D01*
X102428571Y-63432143D01*
X102285714Y-63503571D01*
X102071429Y-63503571D01*
X94285714Y-64696429D02*
X94357143Y-64625000D01*
X94500000Y-64553571D01*
X94857143Y-64553571D01*
X95000000Y-64625000D01*
X95071429Y-64696429D01*
X95142857Y-64839286D01*
X95142857Y-64982143D01*
X95071429Y-65196429D01*
X94214286Y-66053571D01*
X95142857Y-66053571D01*
X96071428Y-64553571D02*
X96214285Y-64553571D01*
X96357142Y-64625000D01*
X96428571Y-64696429D01*
X96500000Y-64839286D01*
X96571428Y-65125000D01*
X96571428Y-65482143D01*
X96500000Y-65767857D01*
X96428571Y-65910714D01*
X96357142Y-65982143D01*
X96214285Y-66053571D01*
X96071428Y-66053571D01*
X95928571Y-65982143D01*
X95857142Y-65910714D01*
X95785714Y-65767857D01*
X95714285Y-65482143D01*
X95714285Y-65125000D01*
X95785714Y-64839286D01*
X95857142Y-64696429D01*
X95928571Y-64625000D01*
X96071428Y-64553571D01*
X97999999Y-66053571D02*
X97142856Y-66053571D01*
X97571428Y-66053571D02*
X97571428Y-64553571D01*
X97428571Y-64767857D01*
X97285713Y-64910714D01*
X97142856Y-64982143D01*
X98857142Y-65196429D02*
X98714284Y-65125000D01*
X98642856Y-65053571D01*
X98571427Y-64910714D01*
X98571427Y-64839286D01*
X98642856Y-64696429D01*
X98714284Y-64625000D01*
X98857142Y-64553571D01*
X99142856Y-64553571D01*
X99285713Y-64625000D01*
X99357142Y-64696429D01*
X99428570Y-64839286D01*
X99428570Y-64910714D01*
X99357142Y-65053571D01*
X99285713Y-65125000D01*
X99142856Y-65196429D01*
X98857142Y-65196429D01*
X98714284Y-65267857D01*
X98642856Y-65339286D01*
X98571427Y-65482143D01*
X98571427Y-65767857D01*
X98642856Y-65910714D01*
X98714284Y-65982143D01*
X98857142Y-66053571D01*
X99142856Y-66053571D01*
X99285713Y-65982143D01*
X99357142Y-65910714D01*
X99428570Y-65767857D01*
X99428570Y-65482143D01*
X99357142Y-65339286D01*
X99285713Y-65267857D01*
X99142856Y-65196429D01*
D12*
X81390000Y-92005000D02*
X82192470Y-92005000D01*
X82807530Y-92005000D02*
X83610000Y-92005000D01*
X81390000Y-88260000D02*
X81390000Y-92005000D01*
X83610000Y-88260000D02*
X83610000Y-92005000D01*
X81390000Y-88260000D02*
X81936529Y-88260000D01*
X83063471Y-88260000D02*
X83610000Y-88260000D01*
X81390000Y-87500000D02*
X81390000Y-86740000D01*
X81390000Y-86740000D02*
X82500000Y-86740000D01*
X84480000Y-43700000D02*
X84480000Y-45700000D01*
X86520000Y-45700000D02*
X86520000Y-43700000D01*
X65620000Y-42070000D02*
G75*
G02X63620000Y-42070000I-1000000J0D01*
G01*
X63620000Y-42070000D02*
X58160000Y-42070000D01*
X58160000Y-42070000D02*
X58160000Y-77750000D01*
X58160000Y-77750000D02*
X71080000Y-77750000D01*
X71080000Y-77750000D02*
X71080000Y-42070000D01*
X71080000Y-42070000D02*
X65620000Y-42070000D01*
X55670000Y-42010000D02*
X55670000Y-77810000D01*
X55670000Y-77810000D02*
X73570000Y-77810000D01*
X73570000Y-77810000D02*
X73570000Y-42010000D01*
X73570000Y-42010000D02*
X55670000Y-42010000D01*
X73000000Y-40350000D02*
X74000000Y-40350000D01*
X74000000Y-38650000D02*
X73000000Y-38650000D01*
X73100000Y-34350000D02*
X74100000Y-34350000D01*
X74100000Y-32650000D02*
X73100000Y-32650000D01*
X67870000Y-25830000D02*
X67870000Y-23170000D01*
X65270000Y-25830000D02*
X67870000Y-25830000D01*
X65270000Y-23170000D02*
X67870000Y-23170000D01*
X65270000Y-25830000D02*
X65270000Y-23170000D01*
X64000000Y-25830000D02*
X62670000Y-25830000D01*
X62670000Y-25830000D02*
X62670000Y-24500000D01*
X59920000Y-30880000D02*
X70160000Y-30880000D01*
X59920000Y-35521000D02*
X70160000Y-35521000D01*
X59920000Y-30880000D02*
X59920000Y-35521000D01*
X70160000Y-30880000D02*
X70160000Y-35521000D01*
X59920000Y-32390000D02*
X70160000Y-32390000D01*
X63190000Y-30880000D02*
X63190000Y-32390000D01*
X66891000Y-30880000D02*
X66891000Y-32390000D01*
X56500000Y-35450000D02*
X55500000Y-35450000D01*
X55500000Y-37150000D02*
X56500000Y-37150000D01*
X56500000Y-32750000D02*
X55500000Y-32750000D01*
X55500000Y-34450000D02*
X56500000Y-34450000D01*
X78300000Y-51850000D02*
X79300000Y-51850000D01*
X79300000Y-50150000D02*
X78300000Y-50150000D01*
X65200000Y-81250000D02*
X64200000Y-81250000D01*
X64200000Y-82950000D02*
X65200000Y-82950000D01*
X53000000Y-89150000D02*
X52000000Y-89150000D01*
X52000000Y-90850000D02*
X53000000Y-90850000D01*
X41150000Y-23620000D02*
X42350000Y-23620000D01*
X42350000Y-25380000D02*
X41150000Y-25380000D01*
X79300000Y-52750000D02*
X78300000Y-52750000D01*
X78300000Y-54450000D02*
X79300000Y-54450000D01*
X79300000Y-55350000D02*
X78300000Y-55350000D01*
X78300000Y-57050000D02*
X79300000Y-57050000D01*
X79570277Y-42444278D02*
G75*
G03X79570000Y-47055580I1179723J-2305722D01*
G01*
X81929723Y-42444278D02*
G75*
G02X81930000Y-47055580I-1179723J-2305722D01*
G01*
X81929723Y-42444278D02*
G75*
G03X79570000Y-42444420I-1179723J-2305722D01*
G01*
X78200000Y-44750000D02*
X83300000Y-44750000D01*
X78200000Y-44710000D02*
X83300000Y-44710000D01*
X78201000Y-44670000D02*
X83299000Y-44670000D01*
X78202000Y-44630000D02*
X83298000Y-44630000D01*
X78204000Y-44590000D02*
X83296000Y-44590000D01*
X78207000Y-44550000D02*
X83293000Y-44550000D01*
X78211000Y-44510000D02*
X83289000Y-44510000D01*
X78215000Y-44470000D02*
X79770000Y-44470000D01*
X81730000Y-44470000D02*
X83285000Y-44470000D01*
X78219000Y-44430000D02*
X79770000Y-44430000D01*
X81730000Y-44430000D02*
X83281000Y-44430000D01*
X78225000Y-44390000D02*
X79770000Y-44390000D01*
X81730000Y-44390000D02*
X83275000Y-44390000D01*
X78231000Y-44350000D02*
X79770000Y-44350000D01*
X81730000Y-44350000D02*
X83269000Y-44350000D01*
X78237000Y-44310000D02*
X79770000Y-44310000D01*
X81730000Y-44310000D02*
X83263000Y-44310000D01*
X78244000Y-44270000D02*
X79770000Y-44270000D01*
X81730000Y-44270000D02*
X83256000Y-44270000D01*
X78252000Y-44230000D02*
X79770000Y-44230000D01*
X81730000Y-44230000D02*
X83248000Y-44230000D01*
X78261000Y-44190000D02*
X79770000Y-44190000D01*
X81730000Y-44190000D02*
X83239000Y-44190000D01*
X78270000Y-44150000D02*
X79770000Y-44150000D01*
X81730000Y-44150000D02*
X83230000Y-44150000D01*
X78280000Y-44110000D02*
X79770000Y-44110000D01*
X81730000Y-44110000D02*
X83220000Y-44110000D01*
X78290000Y-44070000D02*
X79770000Y-44070000D01*
X81730000Y-44070000D02*
X83210000Y-44070000D01*
X78302000Y-44029000D02*
X79770000Y-44029000D01*
X81730000Y-44029000D02*
X83198000Y-44029000D01*
X78314000Y-43989000D02*
X79770000Y-43989000D01*
X81730000Y-43989000D02*
X83186000Y-43989000D01*
X78326000Y-43949000D02*
X79770000Y-43949000D01*
X81730000Y-43949000D02*
X83174000Y-43949000D01*
X78340000Y-43909000D02*
X79770000Y-43909000D01*
X81730000Y-43909000D02*
X83160000Y-43909000D01*
X78354000Y-43869000D02*
X79770000Y-43869000D01*
X81730000Y-43869000D02*
X83146000Y-43869000D01*
X78368000Y-43829000D02*
X79770000Y-43829000D01*
X81730000Y-43829000D02*
X83132000Y-43829000D01*
X78384000Y-43789000D02*
X79770000Y-43789000D01*
X81730000Y-43789000D02*
X83116000Y-43789000D01*
X78400000Y-43749000D02*
X79770000Y-43749000D01*
X81730000Y-43749000D02*
X83100000Y-43749000D01*
X78417000Y-43709000D02*
X79770000Y-43709000D01*
X81730000Y-43709000D02*
X83083000Y-43709000D01*
X78435000Y-43669000D02*
X79770000Y-43669000D01*
X81730000Y-43669000D02*
X83065000Y-43669000D01*
X78454000Y-43629000D02*
X79770000Y-43629000D01*
X81730000Y-43629000D02*
X83046000Y-43629000D01*
X78474000Y-43589000D02*
X79770000Y-43589000D01*
X81730000Y-43589000D02*
X83026000Y-43589000D01*
X78494000Y-43549000D02*
X79770000Y-43549000D01*
X81730000Y-43549000D02*
X83006000Y-43549000D01*
X78516000Y-43509000D02*
X79770000Y-43509000D01*
X81730000Y-43509000D02*
X82984000Y-43509000D01*
X78538000Y-43469000D02*
X79770000Y-43469000D01*
X81730000Y-43469000D02*
X82962000Y-43469000D01*
X78561000Y-43429000D02*
X79770000Y-43429000D01*
X81730000Y-43429000D02*
X82939000Y-43429000D01*
X78585000Y-43389000D02*
X79770000Y-43389000D01*
X81730000Y-43389000D02*
X82915000Y-43389000D01*
X78610000Y-43349000D02*
X79770000Y-43349000D01*
X81730000Y-43349000D02*
X82890000Y-43349000D01*
X78637000Y-43309000D02*
X79770000Y-43309000D01*
X81730000Y-43309000D02*
X82863000Y-43309000D01*
X78664000Y-43269000D02*
X79770000Y-43269000D01*
X81730000Y-43269000D02*
X82836000Y-43269000D01*
X78692000Y-43229000D02*
X79770000Y-43229000D01*
X81730000Y-43229000D02*
X82808000Y-43229000D01*
X78722000Y-43189000D02*
X79770000Y-43189000D01*
X81730000Y-43189000D02*
X82778000Y-43189000D01*
X78753000Y-43149000D02*
X79770000Y-43149000D01*
X81730000Y-43149000D02*
X82747000Y-43149000D01*
X78785000Y-43109000D02*
X79770000Y-43109000D01*
X81730000Y-43109000D02*
X82715000Y-43109000D01*
X78818000Y-43069000D02*
X79770000Y-43069000D01*
X81730000Y-43069000D02*
X82682000Y-43069000D01*
X78853000Y-43029000D02*
X79770000Y-43029000D01*
X81730000Y-43029000D02*
X82647000Y-43029000D01*
X78889000Y-42989000D02*
X79770000Y-42989000D01*
X81730000Y-42989000D02*
X82611000Y-42989000D01*
X78927000Y-42949000D02*
X79770000Y-42949000D01*
X81730000Y-42949000D02*
X82573000Y-42949000D01*
X78967000Y-42909000D02*
X79770000Y-42909000D01*
X81730000Y-42909000D02*
X82533000Y-42909000D01*
X79008000Y-42869000D02*
X79770000Y-42869000D01*
X81730000Y-42869000D02*
X82492000Y-42869000D01*
X79051000Y-42829000D02*
X79770000Y-42829000D01*
X81730000Y-42829000D02*
X82449000Y-42829000D01*
X79096000Y-42789000D02*
X79770000Y-42789000D01*
X81730000Y-42789000D02*
X82404000Y-42789000D01*
X79144000Y-42749000D02*
X79770000Y-42749000D01*
X81730000Y-42749000D02*
X82356000Y-42749000D01*
X79194000Y-42709000D02*
X79770000Y-42709000D01*
X81730000Y-42709000D02*
X82306000Y-42709000D01*
X79246000Y-42669000D02*
X79770000Y-42669000D01*
X81730000Y-42669000D02*
X82254000Y-42669000D01*
X79302000Y-42629000D02*
X79770000Y-42629000D01*
X81730000Y-42629000D02*
X82198000Y-42629000D01*
X79360000Y-42589000D02*
X79770000Y-42589000D01*
X81730000Y-42589000D02*
X82140000Y-42589000D01*
X79423000Y-42549000D02*
X79770000Y-42549000D01*
X81730000Y-42549000D02*
X82077000Y-42549000D01*
X79489000Y-42509000D02*
X82011000Y-42509000D01*
X79561000Y-42469000D02*
X81939000Y-42469000D01*
X79638000Y-42429000D02*
X81862000Y-42429000D01*
X79722000Y-42389000D02*
X81778000Y-42389000D01*
X79816000Y-42349000D02*
X81684000Y-42349000D01*
X79921000Y-42309000D02*
X81579000Y-42309000D01*
X80043000Y-42269000D02*
X81457000Y-42269000D01*
X80191000Y-42229000D02*
X81309000Y-42229000D01*
X80396000Y-42189000D02*
X81104000Y-42189000D01*
X80750000Y-48200000D02*
X80750000Y-47000000D01*
X80100000Y-47600000D02*
X81400000Y-47600000D01*
X35090000Y-60800000D02*
X40910000Y-60800000D01*
X40910000Y-60800000D02*
X40910000Y-46380000D01*
X40910000Y-46380000D02*
X35090000Y-46380000D01*
X35090000Y-46380000D02*
X35090000Y-60800000D01*
X38000000Y-62170000D02*
X38000000Y-60800000D01*
X38000000Y-45010000D02*
X38000000Y-46380000D01*
X35090000Y-91300000D02*
X40910000Y-91300000D01*
X40910000Y-91300000D02*
X40910000Y-76880000D01*
X40910000Y-76880000D02*
X35090000Y-76880000D01*
X35090000Y-76880000D02*
X35090000Y-91300000D01*
X38000000Y-92670000D02*
X38000000Y-91300000D01*
X38000000Y-75510000D02*
X38000000Y-76880000D01*
X91479723Y-47155722D02*
G75*
G03X91480000Y-42544420I-1179723J2305722D01*
G01*
X89120277Y-47155722D02*
G75*
G02X89120000Y-42544420I1179723J2305722D01*
G01*
X89120277Y-47155722D02*
G75*
G03X91480000Y-47155580I1179723J2305722D01*
G01*
X92850000Y-44850000D02*
X87750000Y-44850000D01*
X92850000Y-44890000D02*
X87750000Y-44890000D01*
X92849000Y-44930000D02*
X87751000Y-44930000D01*
X92848000Y-44970000D02*
X87752000Y-44970000D01*
X92846000Y-45010000D02*
X87754000Y-45010000D01*
X92843000Y-45050000D02*
X87757000Y-45050000D01*
X92839000Y-45090000D02*
X87761000Y-45090000D01*
X92835000Y-45130000D02*
X91280000Y-45130000D01*
X89320000Y-45130000D02*
X87765000Y-45130000D01*
X92831000Y-45170000D02*
X91280000Y-45170000D01*
X89320000Y-45170000D02*
X87769000Y-45170000D01*
X92825000Y-45210000D02*
X91280000Y-45210000D01*
X89320000Y-45210000D02*
X87775000Y-45210000D01*
X92819000Y-45250000D02*
X91280000Y-45250000D01*
X89320000Y-45250000D02*
X87781000Y-45250000D01*
X92813000Y-45290000D02*
X91280000Y-45290000D01*
X89320000Y-45290000D02*
X87787000Y-45290000D01*
X92806000Y-45330000D02*
X91280000Y-45330000D01*
X89320000Y-45330000D02*
X87794000Y-45330000D01*
X92798000Y-45370000D02*
X91280000Y-45370000D01*
X89320000Y-45370000D02*
X87802000Y-45370000D01*
X92789000Y-45410000D02*
X91280000Y-45410000D01*
X89320000Y-45410000D02*
X87811000Y-45410000D01*
X92780000Y-45450000D02*
X91280000Y-45450000D01*
X89320000Y-45450000D02*
X87820000Y-45450000D01*
X92770000Y-45490000D02*
X91280000Y-45490000D01*
X89320000Y-45490000D02*
X87830000Y-45490000D01*
X92760000Y-45530000D02*
X91280000Y-45530000D01*
X89320000Y-45530000D02*
X87840000Y-45530000D01*
X92748000Y-45571000D02*
X91280000Y-45571000D01*
X89320000Y-45571000D02*
X87852000Y-45571000D01*
X92736000Y-45611000D02*
X91280000Y-45611000D01*
X89320000Y-45611000D02*
X87864000Y-45611000D01*
X92724000Y-45651000D02*
X91280000Y-45651000D01*
X89320000Y-45651000D02*
X87876000Y-45651000D01*
X92710000Y-45691000D02*
X91280000Y-45691000D01*
X89320000Y-45691000D02*
X87890000Y-45691000D01*
X92696000Y-45731000D02*
X91280000Y-45731000D01*
X89320000Y-45731000D02*
X87904000Y-45731000D01*
X92682000Y-45771000D02*
X91280000Y-45771000D01*
X89320000Y-45771000D02*
X87918000Y-45771000D01*
X92666000Y-45811000D02*
X91280000Y-45811000D01*
X89320000Y-45811000D02*
X87934000Y-45811000D01*
X92650000Y-45851000D02*
X91280000Y-45851000D01*
X89320000Y-45851000D02*
X87950000Y-45851000D01*
X92633000Y-45891000D02*
X91280000Y-45891000D01*
X89320000Y-45891000D02*
X87967000Y-45891000D01*
X92615000Y-45931000D02*
X91280000Y-45931000D01*
X89320000Y-45931000D02*
X87985000Y-45931000D01*
X92596000Y-45971000D02*
X91280000Y-45971000D01*
X89320000Y-45971000D02*
X88004000Y-45971000D01*
X92576000Y-46011000D02*
X91280000Y-46011000D01*
X89320000Y-46011000D02*
X88024000Y-46011000D01*
X92556000Y-46051000D02*
X91280000Y-46051000D01*
X89320000Y-46051000D02*
X88044000Y-46051000D01*
X92534000Y-46091000D02*
X91280000Y-46091000D01*
X89320000Y-46091000D02*
X88066000Y-46091000D01*
X92512000Y-46131000D02*
X91280000Y-46131000D01*
X89320000Y-46131000D02*
X88088000Y-46131000D01*
X92489000Y-46171000D02*
X91280000Y-46171000D01*
X89320000Y-46171000D02*
X88111000Y-46171000D01*
X92465000Y-46211000D02*
X91280000Y-46211000D01*
X89320000Y-46211000D02*
X88135000Y-46211000D01*
X92440000Y-46251000D02*
X91280000Y-46251000D01*
X89320000Y-46251000D02*
X88160000Y-46251000D01*
X92413000Y-46291000D02*
X91280000Y-46291000D01*
X89320000Y-46291000D02*
X88187000Y-46291000D01*
X92386000Y-46331000D02*
X91280000Y-46331000D01*
X89320000Y-46331000D02*
X88214000Y-46331000D01*
X92358000Y-46371000D02*
X91280000Y-46371000D01*
X89320000Y-46371000D02*
X88242000Y-46371000D01*
X92328000Y-46411000D02*
X91280000Y-46411000D01*
X89320000Y-46411000D02*
X88272000Y-46411000D01*
X92297000Y-46451000D02*
X91280000Y-46451000D01*
X89320000Y-46451000D02*
X88303000Y-46451000D01*
X92265000Y-46491000D02*
X91280000Y-46491000D01*
X89320000Y-46491000D02*
X88335000Y-46491000D01*
X92232000Y-46531000D02*
X91280000Y-46531000D01*
X89320000Y-46531000D02*
X88368000Y-46531000D01*
X92197000Y-46571000D02*
X91280000Y-46571000D01*
X89320000Y-46571000D02*
X88403000Y-46571000D01*
X92161000Y-46611000D02*
X91280000Y-46611000D01*
X89320000Y-46611000D02*
X88439000Y-46611000D01*
X92123000Y-46651000D02*
X91280000Y-46651000D01*
X89320000Y-46651000D02*
X88477000Y-46651000D01*
X92083000Y-46691000D02*
X91280000Y-46691000D01*
X89320000Y-46691000D02*
X88517000Y-46691000D01*
X92042000Y-46731000D02*
X91280000Y-46731000D01*
X89320000Y-46731000D02*
X88558000Y-46731000D01*
X91999000Y-46771000D02*
X91280000Y-46771000D01*
X89320000Y-46771000D02*
X88601000Y-46771000D01*
X91954000Y-46811000D02*
X91280000Y-46811000D01*
X89320000Y-46811000D02*
X88646000Y-46811000D01*
X91906000Y-46851000D02*
X91280000Y-46851000D01*
X89320000Y-46851000D02*
X88694000Y-46851000D01*
X91856000Y-46891000D02*
X91280000Y-46891000D01*
X89320000Y-46891000D02*
X88744000Y-46891000D01*
X91804000Y-46931000D02*
X91280000Y-46931000D01*
X89320000Y-46931000D02*
X88796000Y-46931000D01*
X91748000Y-46971000D02*
X91280000Y-46971000D01*
X89320000Y-46971000D02*
X88852000Y-46971000D01*
X91690000Y-47011000D02*
X91280000Y-47011000D01*
X89320000Y-47011000D02*
X88910000Y-47011000D01*
X91627000Y-47051000D02*
X91280000Y-47051000D01*
X89320000Y-47051000D02*
X88973000Y-47051000D01*
X91561000Y-47091000D02*
X89039000Y-47091000D01*
X91489000Y-47131000D02*
X89111000Y-47131000D01*
X91412000Y-47171000D02*
X89188000Y-47171000D01*
X91328000Y-47211000D02*
X89272000Y-47211000D01*
X91234000Y-47251000D02*
X89366000Y-47251000D01*
X91129000Y-47291000D02*
X89471000Y-47291000D01*
X91007000Y-47331000D02*
X89593000Y-47331000D01*
X90859000Y-47371000D02*
X89741000Y-47371000D01*
X90654000Y-47411000D02*
X89946000Y-47411000D01*
X90300000Y-41400000D02*
X90300000Y-42600000D01*
X90950000Y-42000000D02*
X89650000Y-42000000D01*
X76650000Y-98500000D02*
X76650000Y-99500000D01*
X78350000Y-99500000D02*
X78350000Y-98500000D01*
X64300000Y-104850000D02*
X65300000Y-104850000D01*
X65300000Y-103150000D02*
X64300000Y-103150000D01*
X76900000Y-87750000D02*
X77900000Y-87750000D01*
X77900000Y-86050000D02*
X76900000Y-86050000D01*
X39900000Y-103950000D02*
X38900000Y-103950000D01*
X38900000Y-105650000D02*
X39900000Y-105650000D01*
X44650000Y-105700000D02*
X45650000Y-105700000D01*
X45650000Y-104000000D02*
X44650000Y-104000000D01*
X33500000Y-25350000D02*
X34500000Y-25350000D01*
X34500000Y-23650000D02*
X33500000Y-23650000D01*
X83200000Y-83450000D02*
X82200000Y-83450000D01*
X82200000Y-85150000D02*
X83200000Y-85150000D01*
X77800000Y-73750000D02*
X81000000Y-73750000D01*
X81000000Y-75250000D02*
X77800000Y-75250000D01*
X81000000Y-75250000D02*
X81000000Y-73750000D01*
X97275000Y-107025000D02*
X98975000Y-107025000D01*
X98975000Y-107025000D02*
X98975000Y-103875000D01*
X97275000Y-107025000D02*
X97275000Y-103875000D01*
X80000000Y-23650000D02*
X83200000Y-23650000D01*
X83200000Y-25150000D02*
X80000000Y-25150000D01*
X83200000Y-25150000D02*
X83200000Y-23650000D01*
X83330000Y-32380000D02*
X80670000Y-32380000D01*
X83330000Y-34980000D02*
X83330000Y-32380000D01*
X80670000Y-34980000D02*
X80670000Y-32380000D01*
X83330000Y-34980000D02*
X80670000Y-34980000D01*
X83330000Y-36250000D02*
X83330000Y-37580000D01*
X83330000Y-37580000D02*
X82000000Y-37580000D01*
X86030000Y-73190000D02*
X83370000Y-73190000D01*
X86030000Y-78330000D02*
X86030000Y-73190000D01*
X83370000Y-78330000D02*
X83370000Y-73190000D01*
X86030000Y-78330000D02*
X83370000Y-78330000D01*
X86030000Y-79600000D02*
X86030000Y-80930000D01*
X86030000Y-80930000D02*
X84700000Y-80930000D01*
X101795000Y-107745000D02*
X104455000Y-107745000D01*
X101795000Y-105145000D02*
X101795000Y-107745000D01*
X104455000Y-105145000D02*
X104455000Y-107745000D01*
X101795000Y-105145000D02*
X104455000Y-105145000D01*
X101795000Y-103875000D02*
X101795000Y-102545000D01*
X101795000Y-102545000D02*
X103125000Y-102545000D01*
X88510000Y-92170000D02*
X88510000Y-97370000D01*
X98730000Y-92170000D02*
X88510000Y-92170000D01*
X101330000Y-97370000D02*
X88510000Y-97370000D01*
X98730000Y-92170000D02*
X98730000Y-94770000D01*
X98730000Y-94770000D02*
X101330000Y-94770000D01*
X101330000Y-94770000D02*
X101330000Y-97370000D01*
X100000000Y-92170000D02*
X101330000Y-92170000D01*
X101330000Y-92170000D02*
X101330000Y-93500000D01*
X91730000Y-32330000D02*
X89070000Y-32330000D01*
X91730000Y-34930000D02*
X91730000Y-32330000D01*
X89070000Y-34930000D02*
X89070000Y-32330000D01*
X91730000Y-34930000D02*
X89070000Y-34930000D01*
X91730000Y-36200000D02*
X91730000Y-37530000D01*
X91730000Y-37530000D02*
X90400000Y-37530000D01*
X47170000Y-99120000D02*
X49830000Y-99120000D01*
X47170000Y-96520000D02*
X47170000Y-99120000D01*
X49830000Y-96520000D02*
X49830000Y-99120000D01*
X47170000Y-96520000D02*
X49830000Y-96520000D01*
X47170000Y-95250000D02*
X47170000Y-93920000D01*
X47170000Y-93920000D02*
X48500000Y-93920000D01*
X51290000Y-55560000D02*
X53510000Y-55560000D01*
X51290000Y-55560000D02*
X51290000Y-55495000D01*
X53510000Y-55560000D02*
X53510000Y-55495000D01*
X51290000Y-55560000D02*
X51836529Y-55560000D01*
X52963471Y-55560000D02*
X53510000Y-55560000D01*
X51290000Y-54800000D02*
X51290000Y-54040000D01*
X51290000Y-54040000D02*
X52400000Y-54040000D01*
X58640000Y-82260000D02*
X60860000Y-82260000D01*
X58640000Y-82260000D02*
X58640000Y-82195000D01*
X60860000Y-82260000D02*
X60860000Y-82195000D01*
X58640000Y-82260000D02*
X59186529Y-82260000D01*
X60313471Y-82260000D02*
X60860000Y-82260000D01*
X58640000Y-81500000D02*
X58640000Y-80740000D01*
X58640000Y-80740000D02*
X59750000Y-80740000D01*
X70300000Y-79430000D02*
X72300000Y-79430000D01*
X72300000Y-81570000D02*
X70300000Y-81570000D01*
X100000000Y-112080000D02*
X98800000Y-112080000D01*
X98800000Y-110320000D02*
X100000000Y-110320000D01*
X78380000Y-78400000D02*
X78380000Y-79600000D01*
X76620000Y-79600000D02*
X76620000Y-78400000D01*
X79520000Y-105600000D02*
X79520000Y-104400000D01*
X81280000Y-104400000D02*
X81280000Y-105600000D01*
X87600000Y-114080000D02*
X86400000Y-114080000D01*
X86400000Y-112320000D02*
X87600000Y-112320000D01*
X41800000Y-100020000D02*
X43000000Y-100020000D01*
X43000000Y-101780000D02*
X41800000Y-101780000D01*
X55870000Y-110350000D02*
X55870000Y-109150000D01*
X57630000Y-109150000D02*
X57630000Y-110350000D01*
X50400000Y-57720000D02*
X51600000Y-57720000D01*
X51600000Y-59480000D02*
X50400000Y-59480000D01*
X44620000Y-89600000D02*
X44620000Y-88400000D01*
X46380000Y-88400000D02*
X46380000Y-89600000D01*
X47620000Y-89600000D02*
X47620000Y-88400000D01*
X49380000Y-88400000D02*
X49380000Y-89600000D01*
X75600000Y-25280000D02*
X74400000Y-25280000D01*
X74400000Y-23520000D02*
X75600000Y-23520000D01*
X40250000Y-29750000D02*
X35750000Y-29750000D01*
X41500000Y-33750000D02*
X41500000Y-32250000D01*
X35750000Y-36250000D02*
X40250000Y-36250000D01*
X34500000Y-32250000D02*
X34500000Y-33750000D01*
X88375000Y-110265000D02*
G75*
G02X90375000Y-110265000I1000000J0D01*
G01*
X90375000Y-110265000D02*
X91825000Y-110265000D01*
X91825000Y-110265000D02*
X91825000Y-99985000D01*
X91825000Y-99985000D02*
X86925000Y-99985000D01*
X86925000Y-99985000D02*
X86925000Y-110265000D01*
X86925000Y-110265000D02*
X88375000Y-110265000D01*
D13*
X71675000Y-86325000D02*
X70950000Y-86325000D01*
X71675000Y-100675000D02*
X70875000Y-100675000D01*
X57325000Y-100675000D02*
X58125000Y-100675000D01*
X57325000Y-86325000D02*
X58125000Y-86325000D01*
X71675000Y-86325000D02*
X71675000Y-87125000D01*
X57325000Y-86325000D02*
X57325000Y-87125000D01*
X57325000Y-100675000D02*
X57325000Y-99875000D01*
X71675000Y-100675000D02*
X71675000Y-99875000D01*
X70950000Y-86325000D02*
X70950000Y-85050000D01*
D12*
X36100000Y-112300000D02*
X52075000Y-112300000D01*
X52075000Y-112300000D02*
X52075000Y-107200000D01*
X52075000Y-107200000D02*
X36100000Y-107200000D01*
D13*
X82466667Y-92852381D02*
X82466667Y-93566667D01*
X82419047Y-93709524D01*
X82323809Y-93804762D01*
X82180952Y-93852381D01*
X82085714Y-93852381D01*
X83085714Y-93280952D02*
X82990476Y-93233333D01*
X82942857Y-93185714D01*
X82895238Y-93090476D01*
X82895238Y-93042857D01*
X82942857Y-92947619D01*
X82990476Y-92900000D01*
X83085714Y-92852381D01*
X83276191Y-92852381D01*
X83371429Y-92900000D01*
X83419048Y-92947619D01*
X83466667Y-93042857D01*
X83466667Y-93090476D01*
X83419048Y-93185714D01*
X83371429Y-93233333D01*
X83276191Y-93280952D01*
X83085714Y-93280952D01*
X82990476Y-93328571D01*
X82942857Y-93376190D01*
X82895238Y-93471429D01*
X82895238Y-93661905D01*
X82942857Y-93757143D01*
X82990476Y-93804762D01*
X83085714Y-93852381D01*
X83276191Y-93852381D01*
X83371429Y-93804762D01*
X83419048Y-93757143D01*
X83466667Y-93661905D01*
X83466667Y-93471429D01*
X83419048Y-93376190D01*
X83371429Y-93328571D01*
X83276191Y-93280952D01*
X84202381Y-44866666D02*
X83726190Y-45200000D01*
X84202381Y-45438095D02*
X83202381Y-45438095D01*
X83202381Y-45057142D01*
X83250000Y-44961904D01*
X83297619Y-44914285D01*
X83392857Y-44866666D01*
X83535714Y-44866666D01*
X83630952Y-44914285D01*
X83678571Y-44961904D01*
X83726190Y-45057142D01*
X83726190Y-45438095D01*
X84202381Y-43914285D02*
X84202381Y-44485714D01*
X84202381Y-44200000D02*
X83202381Y-44200000D01*
X83345238Y-44295238D01*
X83440476Y-44390476D01*
X83488095Y-44485714D01*
X63858095Y-40522381D02*
X63858095Y-41331905D01*
X63905714Y-41427143D01*
X63953333Y-41474762D01*
X64048571Y-41522381D01*
X64239048Y-41522381D01*
X64334286Y-41474762D01*
X64381905Y-41427143D01*
X64429524Y-41331905D01*
X64429524Y-40522381D01*
X65429524Y-41522381D02*
X64858095Y-41522381D01*
X65143809Y-41522381D02*
X65143809Y-40522381D01*
X65048571Y-40665238D01*
X64953333Y-40760476D01*
X64858095Y-40808095D01*
X73333334Y-41607143D02*
X73285715Y-41654762D01*
X73142858Y-41702381D01*
X73047620Y-41702381D01*
X72904762Y-41654762D01*
X72809524Y-41559524D01*
X72761905Y-41464286D01*
X72714286Y-41273810D01*
X72714286Y-41130952D01*
X72761905Y-40940476D01*
X72809524Y-40845238D01*
X72904762Y-40750000D01*
X73047620Y-40702381D01*
X73142858Y-40702381D01*
X73285715Y-40750000D01*
X73333334Y-40797619D01*
X74190477Y-40702381D02*
X74000000Y-40702381D01*
X73904762Y-40750000D01*
X73857143Y-40797619D01*
X73761905Y-40940476D01*
X73714286Y-41130952D01*
X73714286Y-41511905D01*
X73761905Y-41607143D01*
X73809524Y-41654762D01*
X73904762Y-41702381D01*
X74095239Y-41702381D01*
X74190477Y-41654762D01*
X74238096Y-41607143D01*
X74285715Y-41511905D01*
X74285715Y-41273810D01*
X74238096Y-41178571D01*
X74190477Y-41130952D01*
X74095239Y-41083333D01*
X73904762Y-41083333D01*
X73809524Y-41130952D01*
X73761905Y-41178571D01*
X73714286Y-41273810D01*
X73433334Y-35607143D02*
X73385715Y-35654762D01*
X73242858Y-35702381D01*
X73147620Y-35702381D01*
X73004762Y-35654762D01*
X72909524Y-35559524D01*
X72861905Y-35464286D01*
X72814286Y-35273810D01*
X72814286Y-35130952D01*
X72861905Y-34940476D01*
X72909524Y-34845238D01*
X73004762Y-34750000D01*
X73147620Y-34702381D01*
X73242858Y-34702381D01*
X73385715Y-34750000D01*
X73433334Y-34797619D01*
X73766667Y-34702381D02*
X74433334Y-34702381D01*
X74004762Y-35702381D01*
X61122381Y-24833333D02*
X61836667Y-24833333D01*
X61979524Y-24880953D01*
X62074762Y-24976191D01*
X62122381Y-25119048D01*
X62122381Y-25214286D01*
X61217619Y-24404762D02*
X61170000Y-24357143D01*
X61122381Y-24261905D01*
X61122381Y-24023809D01*
X61170000Y-23928571D01*
X61217619Y-23880952D01*
X61312857Y-23833333D01*
X61408095Y-23833333D01*
X61550952Y-23880952D01*
X62122381Y-24452381D01*
X62122381Y-23833333D01*
X64278095Y-29332381D02*
X64278095Y-30141905D01*
X64325714Y-30237143D01*
X64373333Y-30284762D01*
X64468571Y-30332381D01*
X64659048Y-30332381D01*
X64754286Y-30284762D01*
X64801905Y-30237143D01*
X64849524Y-30141905D01*
X64849524Y-29332381D01*
X65278095Y-29427619D02*
X65325714Y-29380000D01*
X65420952Y-29332381D01*
X65659048Y-29332381D01*
X65754286Y-29380000D01*
X65801905Y-29427619D01*
X65849524Y-29522857D01*
X65849524Y-29618095D01*
X65801905Y-29760952D01*
X65230476Y-30332381D01*
X65849524Y-30332381D01*
X52023334Y-36657143D02*
X51975715Y-36704762D01*
X51832858Y-36752381D01*
X51737620Y-36752381D01*
X51594762Y-36704762D01*
X51499524Y-36609524D01*
X51451905Y-36514286D01*
X51404286Y-36323810D01*
X51404286Y-36180952D01*
X51451905Y-35990476D01*
X51499524Y-35895238D01*
X51594762Y-35800000D01*
X51737620Y-35752381D01*
X51832858Y-35752381D01*
X51975715Y-35800000D01*
X52023334Y-35847619D01*
X52499524Y-36752381D02*
X52690000Y-36752381D01*
X52785239Y-36704762D01*
X52832858Y-36657143D01*
X52928096Y-36514286D01*
X52975715Y-36323810D01*
X52975715Y-35942857D01*
X52928096Y-35847619D01*
X52880477Y-35800000D01*
X52785239Y-35752381D01*
X52594762Y-35752381D01*
X52499524Y-35800000D01*
X52451905Y-35847619D01*
X52404286Y-35942857D01*
X52404286Y-36180952D01*
X52451905Y-36276190D01*
X52499524Y-36323810D01*
X52594762Y-36371429D01*
X52785239Y-36371429D01*
X52880477Y-36323810D01*
X52928096Y-36276190D01*
X52975715Y-36180952D01*
X51547143Y-33957143D02*
X51499524Y-34004762D01*
X51356667Y-34052381D01*
X51261429Y-34052381D01*
X51118571Y-34004762D01*
X51023333Y-33909524D01*
X50975714Y-33814286D01*
X50928095Y-33623810D01*
X50928095Y-33480952D01*
X50975714Y-33290476D01*
X51023333Y-33195238D01*
X51118571Y-33100000D01*
X51261429Y-33052381D01*
X51356667Y-33052381D01*
X51499524Y-33100000D01*
X51547143Y-33147619D01*
X52499524Y-34052381D02*
X51928095Y-34052381D01*
X52213809Y-34052381D02*
X52213809Y-33052381D01*
X52118571Y-33195238D01*
X52023333Y-33290476D01*
X51928095Y-33338095D01*
X53118571Y-33052381D02*
X53213810Y-33052381D01*
X53309048Y-33100000D01*
X53356667Y-33147619D01*
X53404286Y-33242857D01*
X53451905Y-33433333D01*
X53451905Y-33671429D01*
X53404286Y-33861905D01*
X53356667Y-33957143D01*
X53309048Y-34004762D01*
X53213810Y-34052381D01*
X53118571Y-34052381D01*
X53023333Y-34004762D01*
X52975714Y-33957143D01*
X52928095Y-33861905D01*
X52880476Y-33671429D01*
X52880476Y-33433333D01*
X52928095Y-33242857D01*
X52975714Y-33147619D01*
X53023333Y-33100000D01*
X53118571Y-33052381D01*
X81967143Y-51357143D02*
X81919524Y-51404762D01*
X81776667Y-51452381D01*
X81681429Y-51452381D01*
X81538571Y-51404762D01*
X81443333Y-51309524D01*
X81395714Y-51214286D01*
X81348095Y-51023810D01*
X81348095Y-50880952D01*
X81395714Y-50690476D01*
X81443333Y-50595238D01*
X81538571Y-50500000D01*
X81681429Y-50452381D01*
X81776667Y-50452381D01*
X81919524Y-50500000D01*
X81967143Y-50547619D01*
X82919524Y-51452381D02*
X82348095Y-51452381D01*
X82633809Y-51452381D02*
X82633809Y-50452381D01*
X82538571Y-50595238D01*
X82443333Y-50690476D01*
X82348095Y-50738095D01*
X83871905Y-51452381D02*
X83300476Y-51452381D01*
X83586190Y-51452381D02*
X83586190Y-50452381D01*
X83490952Y-50595238D01*
X83395714Y-50690476D01*
X83300476Y-50738095D01*
X63957143Y-80357143D02*
X63909524Y-80404762D01*
X63766667Y-80452381D01*
X63671429Y-80452381D01*
X63528571Y-80404762D01*
X63433333Y-80309524D01*
X63385714Y-80214286D01*
X63338095Y-80023810D01*
X63338095Y-79880952D01*
X63385714Y-79690476D01*
X63433333Y-79595238D01*
X63528571Y-79500000D01*
X63671429Y-79452381D01*
X63766667Y-79452381D01*
X63909524Y-79500000D01*
X63957143Y-79547619D01*
X64909524Y-80452381D02*
X64338095Y-80452381D01*
X64623809Y-80452381D02*
X64623809Y-79452381D01*
X64528571Y-79595238D01*
X64433333Y-79690476D01*
X64338095Y-79738095D01*
X65290476Y-79547619D02*
X65338095Y-79500000D01*
X65433333Y-79452381D01*
X65671429Y-79452381D01*
X65766667Y-79500000D01*
X65814286Y-79547619D01*
X65861905Y-79642857D01*
X65861905Y-79738095D01*
X65814286Y-79880952D01*
X65242857Y-80452381D01*
X65861905Y-80452381D01*
X51857143Y-88607143D02*
X51809524Y-88654762D01*
X51666667Y-88702381D01*
X51571429Y-88702381D01*
X51428571Y-88654762D01*
X51333333Y-88559524D01*
X51285714Y-88464286D01*
X51238095Y-88273810D01*
X51238095Y-88130952D01*
X51285714Y-87940476D01*
X51333333Y-87845238D01*
X51428571Y-87750000D01*
X51571429Y-87702381D01*
X51666667Y-87702381D01*
X51809524Y-87750000D01*
X51857143Y-87797619D01*
X52809524Y-88702381D02*
X52238095Y-88702381D01*
X52523809Y-88702381D02*
X52523809Y-87702381D01*
X52428571Y-87845238D01*
X52333333Y-87940476D01*
X52238095Y-87988095D01*
X53142857Y-87702381D02*
X53761905Y-87702381D01*
X53428571Y-88083333D01*
X53571429Y-88083333D01*
X53666667Y-88130952D01*
X53714286Y-88178571D01*
X53761905Y-88273810D01*
X53761905Y-88511905D01*
X53714286Y-88607143D01*
X53666667Y-88654762D01*
X53571429Y-88702381D01*
X53285714Y-88702381D01*
X53190476Y-88654762D01*
X53142857Y-88607143D01*
X41583334Y-26652381D02*
X41250000Y-26176190D01*
X41011905Y-26652381D02*
X41011905Y-25652381D01*
X41392858Y-25652381D01*
X41488096Y-25700000D01*
X41535715Y-25747619D01*
X41583334Y-25842857D01*
X41583334Y-25985714D01*
X41535715Y-26080952D01*
X41488096Y-26128571D01*
X41392858Y-26176190D01*
X41011905Y-26176190D01*
X41964286Y-25747619D02*
X42011905Y-25700000D01*
X42107143Y-25652381D01*
X42345239Y-25652381D01*
X42440477Y-25700000D01*
X42488096Y-25747619D01*
X42535715Y-25842857D01*
X42535715Y-25938095D01*
X42488096Y-26080952D01*
X41916667Y-26652381D01*
X42535715Y-26652381D01*
X82433334Y-53957143D02*
X82385715Y-54004762D01*
X82242858Y-54052381D01*
X82147620Y-54052381D01*
X82004762Y-54004762D01*
X81909524Y-53909524D01*
X81861905Y-53814286D01*
X81814286Y-53623810D01*
X81814286Y-53480952D01*
X81861905Y-53290476D01*
X81909524Y-53195238D01*
X82004762Y-53100000D01*
X82147620Y-53052381D01*
X82242858Y-53052381D01*
X82385715Y-53100000D01*
X82433334Y-53147619D01*
X83290477Y-53385714D02*
X83290477Y-54052381D01*
X83052381Y-53004762D02*
X82814286Y-53719048D01*
X83433334Y-53719048D01*
X82433334Y-56557143D02*
X82385715Y-56604762D01*
X82242858Y-56652381D01*
X82147620Y-56652381D01*
X82004762Y-56604762D01*
X81909524Y-56509524D01*
X81861905Y-56414286D01*
X81814286Y-56223810D01*
X81814286Y-56080952D01*
X81861905Y-55890476D01*
X81909524Y-55795238D01*
X82004762Y-55700000D01*
X82147620Y-55652381D01*
X82242858Y-55652381D01*
X82385715Y-55700000D01*
X82433334Y-55747619D01*
X83338096Y-55652381D02*
X82861905Y-55652381D01*
X82814286Y-56128571D01*
X82861905Y-56080952D01*
X82957143Y-56033333D01*
X83195239Y-56033333D01*
X83290477Y-56080952D01*
X83338096Y-56128571D01*
X83385715Y-56223810D01*
X83385715Y-56461905D01*
X83338096Y-56557143D01*
X83290477Y-56604762D01*
X83195239Y-56652381D01*
X82957143Y-56652381D01*
X82861905Y-56604762D01*
X82814286Y-56557143D01*
X77297143Y-44916666D02*
X77344762Y-44964285D01*
X77392381Y-45107142D01*
X77392381Y-45202380D01*
X77344762Y-45345238D01*
X77249524Y-45440476D01*
X77154286Y-45488095D01*
X76963810Y-45535714D01*
X76820952Y-45535714D01*
X76630476Y-45488095D01*
X76535238Y-45440476D01*
X76440000Y-45345238D01*
X76392381Y-45202380D01*
X76392381Y-45107142D01*
X76440000Y-44964285D01*
X76487619Y-44916666D01*
X77392381Y-43964285D02*
X77392381Y-44535714D01*
X77392381Y-44250000D02*
X76392381Y-44250000D01*
X76535238Y-44345238D01*
X76630476Y-44440476D01*
X76678095Y-44535714D01*
X34447143Y-53756666D02*
X34494762Y-53804285D01*
X34542381Y-53947142D01*
X34542381Y-54042380D01*
X34494762Y-54185238D01*
X34399524Y-54280476D01*
X34304286Y-54328095D01*
X34113810Y-54375714D01*
X33970952Y-54375714D01*
X33780476Y-54328095D01*
X33685238Y-54280476D01*
X33590000Y-54185238D01*
X33542381Y-54042380D01*
X33542381Y-53947142D01*
X33590000Y-53804285D01*
X33637619Y-53756666D01*
X33637619Y-53375714D02*
X33590000Y-53328095D01*
X33542381Y-53232857D01*
X33542381Y-52994761D01*
X33590000Y-52899523D01*
X33637619Y-52851904D01*
X33732857Y-52804285D01*
X33828095Y-52804285D01*
X33970952Y-52851904D01*
X34542381Y-53423333D01*
X34542381Y-52804285D01*
X34447143Y-84256666D02*
X34494762Y-84304285D01*
X34542381Y-84447142D01*
X34542381Y-84542380D01*
X34494762Y-84685238D01*
X34399524Y-84780476D01*
X34304286Y-84828095D01*
X34113810Y-84875714D01*
X33970952Y-84875714D01*
X33780476Y-84828095D01*
X33685238Y-84780476D01*
X33590000Y-84685238D01*
X33542381Y-84542380D01*
X33542381Y-84447142D01*
X33590000Y-84304285D01*
X33637619Y-84256666D01*
X33542381Y-83923333D02*
X33542381Y-83304285D01*
X33923333Y-83637619D01*
X33923333Y-83494761D01*
X33970952Y-83399523D01*
X34018571Y-83351904D01*
X34113810Y-83304285D01*
X34351905Y-83304285D01*
X34447143Y-83351904D01*
X34494762Y-83399523D01*
X34542381Y-83494761D01*
X34542381Y-83780476D01*
X34494762Y-83875714D01*
X34447143Y-83923333D01*
X94467143Y-45016666D02*
X94514762Y-45064285D01*
X94562381Y-45207142D01*
X94562381Y-45302380D01*
X94514762Y-45445238D01*
X94419524Y-45540476D01*
X94324286Y-45588095D01*
X94133810Y-45635714D01*
X93990952Y-45635714D01*
X93800476Y-45588095D01*
X93705238Y-45540476D01*
X93610000Y-45445238D01*
X93562381Y-45302380D01*
X93562381Y-45207142D01*
X93610000Y-45064285D01*
X93657619Y-45016666D01*
X93990952Y-44445238D02*
X93943333Y-44540476D01*
X93895714Y-44588095D01*
X93800476Y-44635714D01*
X93752857Y-44635714D01*
X93657619Y-44588095D01*
X93610000Y-44540476D01*
X93562381Y-44445238D01*
X93562381Y-44254761D01*
X93610000Y-44159523D01*
X93657619Y-44111904D01*
X93752857Y-44064285D01*
X93800476Y-44064285D01*
X93895714Y-44111904D01*
X93943333Y-44159523D01*
X93990952Y-44254761D01*
X93990952Y-44445238D01*
X94038571Y-44540476D01*
X94086190Y-44588095D01*
X94181429Y-44635714D01*
X94371905Y-44635714D01*
X94467143Y-44588095D01*
X94514762Y-44540476D01*
X94562381Y-44445238D01*
X94562381Y-44254761D01*
X94514762Y-44159523D01*
X94467143Y-44111904D01*
X94371905Y-44064285D01*
X94181429Y-44064285D01*
X94086190Y-44111904D01*
X94038571Y-44159523D01*
X93990952Y-44254761D01*
X76107143Y-99642857D02*
X76154762Y-99690476D01*
X76202381Y-99833333D01*
X76202381Y-99928571D01*
X76154762Y-100071429D01*
X76059524Y-100166667D01*
X75964286Y-100214286D01*
X75773810Y-100261905D01*
X75630952Y-100261905D01*
X75440476Y-100214286D01*
X75345238Y-100166667D01*
X75250000Y-100071429D01*
X75202381Y-99928571D01*
X75202381Y-99833333D01*
X75250000Y-99690476D01*
X75297619Y-99642857D01*
X76202381Y-98690476D02*
X76202381Y-99261905D01*
X76202381Y-98976191D02*
X75202381Y-98976191D01*
X75345238Y-99071429D01*
X75440476Y-99166667D01*
X75488095Y-99261905D01*
X75535714Y-97833333D02*
X76202381Y-97833333D01*
X75154762Y-98071429D02*
X75869048Y-98309524D01*
X75869048Y-97690476D01*
X64157143Y-106107143D02*
X64109524Y-106154762D01*
X63966667Y-106202381D01*
X63871429Y-106202381D01*
X63728571Y-106154762D01*
X63633333Y-106059524D01*
X63585714Y-105964286D01*
X63538095Y-105773810D01*
X63538095Y-105630952D01*
X63585714Y-105440476D01*
X63633333Y-105345238D01*
X63728571Y-105250000D01*
X63871429Y-105202381D01*
X63966667Y-105202381D01*
X64109524Y-105250000D01*
X64157143Y-105297619D01*
X65109524Y-106202381D02*
X64538095Y-106202381D01*
X64823809Y-106202381D02*
X64823809Y-105202381D01*
X64728571Y-105345238D01*
X64633333Y-105440476D01*
X64538095Y-105488095D01*
X66014286Y-105202381D02*
X65538095Y-105202381D01*
X65490476Y-105678571D01*
X65538095Y-105630952D01*
X65633333Y-105583333D01*
X65871429Y-105583333D01*
X65966667Y-105630952D01*
X66014286Y-105678571D01*
X66061905Y-105773810D01*
X66061905Y-106011905D01*
X66014286Y-106107143D01*
X65966667Y-106154762D01*
X65871429Y-106202381D01*
X65633333Y-106202381D01*
X65538095Y-106154762D01*
X65490476Y-106107143D01*
X76757143Y-89007143D02*
X76709524Y-89054762D01*
X76566667Y-89102381D01*
X76471429Y-89102381D01*
X76328571Y-89054762D01*
X76233333Y-88959524D01*
X76185714Y-88864286D01*
X76138095Y-88673810D01*
X76138095Y-88530952D01*
X76185714Y-88340476D01*
X76233333Y-88245238D01*
X76328571Y-88150000D01*
X76471429Y-88102381D01*
X76566667Y-88102381D01*
X76709524Y-88150000D01*
X76757143Y-88197619D01*
X77709524Y-89102381D02*
X77138095Y-89102381D01*
X77423809Y-89102381D02*
X77423809Y-88102381D01*
X77328571Y-88245238D01*
X77233333Y-88340476D01*
X77138095Y-88388095D01*
X78566667Y-88102381D02*
X78376190Y-88102381D01*
X78280952Y-88150000D01*
X78233333Y-88197619D01*
X78138095Y-88340476D01*
X78090476Y-88530952D01*
X78090476Y-88911905D01*
X78138095Y-89007143D01*
X78185714Y-89054762D01*
X78280952Y-89102381D01*
X78471429Y-89102381D01*
X78566667Y-89054762D01*
X78614286Y-89007143D01*
X78661905Y-88911905D01*
X78661905Y-88673810D01*
X78614286Y-88578571D01*
X78566667Y-88530952D01*
X78471429Y-88483333D01*
X78280952Y-88483333D01*
X78185714Y-88530952D01*
X78138095Y-88578571D01*
X78090476Y-88673810D01*
X34757143Y-105057143D02*
X34709524Y-105104762D01*
X34566667Y-105152381D01*
X34471429Y-105152381D01*
X34328571Y-105104762D01*
X34233333Y-105009524D01*
X34185714Y-104914286D01*
X34138095Y-104723810D01*
X34138095Y-104580952D01*
X34185714Y-104390476D01*
X34233333Y-104295238D01*
X34328571Y-104200000D01*
X34471429Y-104152381D01*
X34566667Y-104152381D01*
X34709524Y-104200000D01*
X34757143Y-104247619D01*
X35709524Y-105152381D02*
X35138095Y-105152381D01*
X35423809Y-105152381D02*
X35423809Y-104152381D01*
X35328571Y-104295238D01*
X35233333Y-104390476D01*
X35138095Y-104438095D01*
X36042857Y-104152381D02*
X36709524Y-104152381D01*
X36280952Y-105152381D01*
X48457143Y-105057143D02*
X48409524Y-105104762D01*
X48266667Y-105152381D01*
X48171429Y-105152381D01*
X48028571Y-105104762D01*
X47933333Y-105009524D01*
X47885714Y-104914286D01*
X47838095Y-104723810D01*
X47838095Y-104580952D01*
X47885714Y-104390476D01*
X47933333Y-104295238D01*
X48028571Y-104200000D01*
X48171429Y-104152381D01*
X48266667Y-104152381D01*
X48409524Y-104200000D01*
X48457143Y-104247619D01*
X49409524Y-105152381D02*
X48838095Y-105152381D01*
X49123809Y-105152381D02*
X49123809Y-104152381D01*
X49028571Y-104295238D01*
X48933333Y-104390476D01*
X48838095Y-104438095D01*
X49980952Y-104580952D02*
X49885714Y-104533333D01*
X49838095Y-104485714D01*
X49790476Y-104390476D01*
X49790476Y-104342857D01*
X49838095Y-104247619D01*
X49885714Y-104200000D01*
X49980952Y-104152381D01*
X50171429Y-104152381D01*
X50266667Y-104200000D01*
X50314286Y-104247619D01*
X50361905Y-104342857D01*
X50361905Y-104390476D01*
X50314286Y-104485714D01*
X50266667Y-104533333D01*
X50171429Y-104580952D01*
X49980952Y-104580952D01*
X49885714Y-104628571D01*
X49838095Y-104676190D01*
X49790476Y-104771429D01*
X49790476Y-104961905D01*
X49838095Y-105057143D01*
X49885714Y-105104762D01*
X49980952Y-105152381D01*
X50171429Y-105152381D01*
X50266667Y-105104762D01*
X50314286Y-105057143D01*
X50361905Y-104961905D01*
X50361905Y-104771429D01*
X50314286Y-104676190D01*
X50266667Y-104628571D01*
X50171429Y-104580952D01*
X33357143Y-26607143D02*
X33309524Y-26654762D01*
X33166667Y-26702381D01*
X33071429Y-26702381D01*
X32928571Y-26654762D01*
X32833333Y-26559524D01*
X32785714Y-26464286D01*
X32738095Y-26273810D01*
X32738095Y-26130952D01*
X32785714Y-25940476D01*
X32833333Y-25845238D01*
X32928571Y-25750000D01*
X33071429Y-25702381D01*
X33166667Y-25702381D01*
X33309524Y-25750000D01*
X33357143Y-25797619D01*
X34309524Y-26702381D02*
X33738095Y-26702381D01*
X34023809Y-26702381D02*
X34023809Y-25702381D01*
X33928571Y-25845238D01*
X33833333Y-25940476D01*
X33738095Y-25988095D01*
X34785714Y-26702381D02*
X34976190Y-26702381D01*
X35071429Y-26654762D01*
X35119048Y-26607143D01*
X35214286Y-26464286D01*
X35261905Y-26273810D01*
X35261905Y-25892857D01*
X35214286Y-25797619D01*
X35166667Y-25750000D01*
X35071429Y-25702381D01*
X34880952Y-25702381D01*
X34785714Y-25750000D01*
X34738095Y-25797619D01*
X34690476Y-25892857D01*
X34690476Y-26130952D01*
X34738095Y-26226190D01*
X34785714Y-26273810D01*
X34880952Y-26321429D01*
X35071429Y-26321429D01*
X35166667Y-26273810D01*
X35214286Y-26226190D01*
X35261905Y-26130952D01*
X82057143Y-82907143D02*
X82009524Y-82954762D01*
X81866667Y-83002381D01*
X81771429Y-83002381D01*
X81628571Y-82954762D01*
X81533333Y-82859524D01*
X81485714Y-82764286D01*
X81438095Y-82573810D01*
X81438095Y-82430952D01*
X81485714Y-82240476D01*
X81533333Y-82145238D01*
X81628571Y-82050000D01*
X81771429Y-82002381D01*
X81866667Y-82002381D01*
X82009524Y-82050000D01*
X82057143Y-82097619D01*
X82438095Y-82097619D02*
X82485714Y-82050000D01*
X82580952Y-82002381D01*
X82819048Y-82002381D01*
X82914286Y-82050000D01*
X82961905Y-82097619D01*
X83009524Y-82192857D01*
X83009524Y-82288095D01*
X82961905Y-82430952D01*
X82390476Y-83002381D01*
X83009524Y-83002381D01*
X83628571Y-82002381D02*
X83723810Y-82002381D01*
X83819048Y-82050000D01*
X83866667Y-82097619D01*
X83914286Y-82192857D01*
X83961905Y-82383333D01*
X83961905Y-82621429D01*
X83914286Y-82811905D01*
X83866667Y-82907143D01*
X83819048Y-82954762D01*
X83723810Y-83002381D01*
X83628571Y-83002381D01*
X83533333Y-82954762D01*
X83485714Y-82907143D01*
X83438095Y-82811905D01*
X83390476Y-82621429D01*
X83390476Y-82383333D01*
X83438095Y-82192857D01*
X83485714Y-82097619D01*
X83533333Y-82050000D01*
X83628571Y-82002381D01*
X78061905Y-76652381D02*
X78061905Y-75652381D01*
X78300000Y-75652381D01*
X78442858Y-75700000D01*
X78538096Y-75795238D01*
X78585715Y-75890476D01*
X78633334Y-76080952D01*
X78633334Y-76223810D01*
X78585715Y-76414286D01*
X78538096Y-76509524D01*
X78442858Y-76604762D01*
X78300000Y-76652381D01*
X78061905Y-76652381D01*
X79585715Y-76652381D02*
X79014286Y-76652381D01*
X79300000Y-76652381D02*
X79300000Y-75652381D01*
X79204762Y-75795238D01*
X79109524Y-75890476D01*
X79014286Y-75938095D01*
X96727381Y-105863095D02*
X95727381Y-105863095D01*
X95727381Y-105625000D01*
X95775000Y-105482142D01*
X95870238Y-105386904D01*
X95965476Y-105339285D01*
X96155952Y-105291666D01*
X96298810Y-105291666D01*
X96489286Y-105339285D01*
X96584524Y-105386904D01*
X96679762Y-105482142D01*
X96727381Y-105625000D01*
X96727381Y-105863095D01*
X95822619Y-104910714D02*
X95775000Y-104863095D01*
X95727381Y-104767857D01*
X95727381Y-104529761D01*
X95775000Y-104434523D01*
X95822619Y-104386904D01*
X95917857Y-104339285D01*
X96013095Y-104339285D01*
X96155952Y-104386904D01*
X96727381Y-104958333D01*
X96727381Y-104339285D01*
X80461905Y-23052381D02*
X80461905Y-22052381D01*
X80700000Y-22052381D01*
X80842858Y-22100000D01*
X80938096Y-22195238D01*
X80985715Y-22290476D01*
X81033334Y-22480952D01*
X81033334Y-22623810D01*
X80985715Y-22814286D01*
X80938096Y-22909524D01*
X80842858Y-23004762D01*
X80700000Y-23052381D01*
X80461905Y-23052381D01*
X81366667Y-22052381D02*
X81985715Y-22052381D01*
X81652381Y-22433333D01*
X81795239Y-22433333D01*
X81890477Y-22480952D01*
X81938096Y-22528571D01*
X81985715Y-22623810D01*
X81985715Y-22861905D01*
X81938096Y-22957143D01*
X81890477Y-23004762D01*
X81795239Y-23052381D01*
X81509524Y-23052381D01*
X81414286Y-23004762D01*
X81366667Y-22957143D01*
X81666667Y-38032381D02*
X81666667Y-38746667D01*
X81619047Y-38889524D01*
X81523809Y-38984762D01*
X81380952Y-39032381D01*
X81285714Y-39032381D01*
X82666667Y-39032381D02*
X82095238Y-39032381D01*
X82380952Y-39032381D02*
X82380952Y-38032381D01*
X82285714Y-38175238D01*
X82190476Y-38270476D01*
X82095238Y-38318095D01*
X84866667Y-70752381D02*
X84866667Y-71466667D01*
X84819047Y-71609524D01*
X84723809Y-71704762D01*
X84580952Y-71752381D01*
X84485714Y-71752381D01*
X85247619Y-70752381D02*
X85866667Y-70752381D01*
X85533333Y-71133333D01*
X85676191Y-71133333D01*
X85771429Y-71180952D01*
X85819048Y-71228571D01*
X85866667Y-71323810D01*
X85866667Y-71561905D01*
X85819048Y-71657143D01*
X85771429Y-71704762D01*
X85676191Y-71752381D01*
X85390476Y-71752381D01*
X85295238Y-71704762D01*
X85247619Y-71657143D01*
X102791667Y-100997381D02*
X102791667Y-101711667D01*
X102744047Y-101854524D01*
X102648809Y-101949762D01*
X102505952Y-101997381D01*
X102410714Y-101997381D01*
X103696429Y-101330714D02*
X103696429Y-101997381D01*
X103458333Y-100949762D02*
X103220238Y-101664048D01*
X103839286Y-101664048D01*
X101782381Y-95103333D02*
X102496667Y-95103333D01*
X102639524Y-95150953D01*
X102734762Y-95246191D01*
X102782381Y-95389048D01*
X102782381Y-95484286D01*
X101782381Y-94150952D02*
X101782381Y-94627143D01*
X102258571Y-94674762D01*
X102210952Y-94627143D01*
X102163333Y-94531905D01*
X102163333Y-94293809D01*
X102210952Y-94198571D01*
X102258571Y-94150952D01*
X102353810Y-94103333D01*
X102591905Y-94103333D01*
X102687143Y-94150952D01*
X102734762Y-94198571D01*
X102782381Y-94293809D01*
X102782381Y-94531905D01*
X102734762Y-94627143D01*
X102687143Y-94674762D01*
X90066667Y-37982381D02*
X90066667Y-38696667D01*
X90019047Y-38839524D01*
X89923809Y-38934762D01*
X89780952Y-38982381D01*
X89685714Y-38982381D01*
X90971429Y-37982381D02*
X90780952Y-37982381D01*
X90685714Y-38030000D01*
X90638095Y-38077619D01*
X90542857Y-38220476D01*
X90495238Y-38410952D01*
X90495238Y-38791905D01*
X90542857Y-38887143D01*
X90590476Y-38934762D01*
X90685714Y-38982381D01*
X90876191Y-38982381D01*
X90971429Y-38934762D01*
X91019048Y-38887143D01*
X91066667Y-38791905D01*
X91066667Y-38553810D01*
X91019048Y-38458571D01*
X90971429Y-38410952D01*
X90876191Y-38363333D01*
X90685714Y-38363333D01*
X90590476Y-38410952D01*
X90542857Y-38458571D01*
X90495238Y-38553810D01*
X48166667Y-92372381D02*
X48166667Y-93086667D01*
X48119047Y-93229524D01*
X48023809Y-93324762D01*
X47880952Y-93372381D01*
X47785714Y-93372381D01*
X48547619Y-92372381D02*
X49214286Y-92372381D01*
X48785714Y-93372381D01*
X52066667Y-52557381D02*
X52066667Y-53271667D01*
X52019047Y-53414524D01*
X51923809Y-53509762D01*
X51780952Y-53557381D01*
X51685714Y-53557381D01*
X52590476Y-53557381D02*
X52780952Y-53557381D01*
X52876191Y-53509762D01*
X52923810Y-53462143D01*
X53019048Y-53319286D01*
X53066667Y-53128810D01*
X53066667Y-52747857D01*
X53019048Y-52652619D01*
X52971429Y-52605000D01*
X52876191Y-52557381D01*
X52685714Y-52557381D01*
X52590476Y-52605000D01*
X52542857Y-52652619D01*
X52495238Y-52747857D01*
X52495238Y-52985952D01*
X52542857Y-53081190D01*
X52590476Y-53128810D01*
X52685714Y-53176429D01*
X52876191Y-53176429D01*
X52971429Y-53128810D01*
X53019048Y-53081190D01*
X53066667Y-52985952D01*
X58940477Y-79257381D02*
X58940477Y-79971667D01*
X58892857Y-80114524D01*
X58797619Y-80209762D01*
X58654762Y-80257381D01*
X58559524Y-80257381D01*
X59940477Y-80257381D02*
X59369048Y-80257381D01*
X59654762Y-80257381D02*
X59654762Y-79257381D01*
X59559524Y-79400238D01*
X59464286Y-79495476D01*
X59369048Y-79543095D01*
X60559524Y-79257381D02*
X60654763Y-79257381D01*
X60750001Y-79305000D01*
X60797620Y-79352619D01*
X60845239Y-79447857D01*
X60892858Y-79638333D01*
X60892858Y-79876429D01*
X60845239Y-80066905D01*
X60797620Y-80162143D01*
X60750001Y-80209762D01*
X60654763Y-80257381D01*
X60559524Y-80257381D01*
X60464286Y-80209762D01*
X60416667Y-80162143D01*
X60369048Y-80066905D01*
X60321429Y-79876429D01*
X60321429Y-79638333D01*
X60369048Y-79447857D01*
X60416667Y-79352619D01*
X60464286Y-79305000D01*
X60559524Y-79257381D01*
X71133334Y-82802381D02*
X70657143Y-82802381D01*
X70657143Y-81802381D01*
X71990477Y-82802381D02*
X71419048Y-82802381D01*
X71704762Y-82802381D02*
X71704762Y-81802381D01*
X71609524Y-81945238D01*
X71514286Y-82040476D01*
X71419048Y-82088095D01*
X97833334Y-113452381D02*
X97500000Y-112976190D01*
X97261905Y-113452381D02*
X97261905Y-112452381D01*
X97642858Y-112452381D01*
X97738096Y-112500000D01*
X97785715Y-112547619D01*
X97833334Y-112642857D01*
X97833334Y-112785714D01*
X97785715Y-112880952D01*
X97738096Y-112928571D01*
X97642858Y-112976190D01*
X97261905Y-112976190D01*
X98166667Y-112452381D02*
X98785715Y-112452381D01*
X98452381Y-112833333D01*
X98595239Y-112833333D01*
X98690477Y-112880952D01*
X98738096Y-112928571D01*
X98785715Y-113023810D01*
X98785715Y-113261905D01*
X98738096Y-113357143D01*
X98690477Y-113404762D01*
X98595239Y-113452381D01*
X98309524Y-113452381D01*
X98214286Y-113404762D01*
X98166667Y-113357143D01*
X76252381Y-79166666D02*
X75776190Y-79500000D01*
X76252381Y-79738095D02*
X75252381Y-79738095D01*
X75252381Y-79357142D01*
X75300000Y-79261904D01*
X75347619Y-79214285D01*
X75442857Y-79166666D01*
X75585714Y-79166666D01*
X75680952Y-79214285D01*
X75728571Y-79261904D01*
X75776190Y-79357142D01*
X75776190Y-79738095D01*
X75585714Y-78309523D02*
X76252381Y-78309523D01*
X75204762Y-78547619D02*
X75919048Y-78785714D01*
X75919048Y-78166666D01*
X82552381Y-105166666D02*
X82076190Y-105500000D01*
X82552381Y-105738095D02*
X81552381Y-105738095D01*
X81552381Y-105357142D01*
X81600000Y-105261904D01*
X81647619Y-105214285D01*
X81742857Y-105166666D01*
X81885714Y-105166666D01*
X81980952Y-105214285D01*
X82028571Y-105261904D01*
X82076190Y-105357142D01*
X82076190Y-105738095D01*
X81552381Y-104261904D02*
X81552381Y-104738095D01*
X82028571Y-104785714D01*
X81980952Y-104738095D01*
X81933333Y-104642857D01*
X81933333Y-104404761D01*
X81980952Y-104309523D01*
X82028571Y-104261904D01*
X82123810Y-104214285D01*
X82361905Y-104214285D01*
X82457143Y-104261904D01*
X82504762Y-104309523D01*
X82552381Y-104404761D01*
X82552381Y-104642857D01*
X82504762Y-104738095D01*
X82457143Y-104785714D01*
X85633334Y-115452381D02*
X85300000Y-114976190D01*
X85061905Y-115452381D02*
X85061905Y-114452381D01*
X85442858Y-114452381D01*
X85538096Y-114500000D01*
X85585715Y-114547619D01*
X85633334Y-114642857D01*
X85633334Y-114785714D01*
X85585715Y-114880952D01*
X85538096Y-114928571D01*
X85442858Y-114976190D01*
X85061905Y-114976190D01*
X86490477Y-114452381D02*
X86300000Y-114452381D01*
X86204762Y-114500000D01*
X86157143Y-114547619D01*
X86061905Y-114690476D01*
X86014286Y-114880952D01*
X86014286Y-115261905D01*
X86061905Y-115357143D01*
X86109524Y-115404762D01*
X86204762Y-115452381D01*
X86395239Y-115452381D01*
X86490477Y-115404762D01*
X86538096Y-115357143D01*
X86585715Y-115261905D01*
X86585715Y-115023810D01*
X86538096Y-114928571D01*
X86490477Y-114880952D01*
X86395239Y-114833333D01*
X86204762Y-114833333D01*
X86109524Y-114880952D01*
X86061905Y-114928571D01*
X86014286Y-115023810D01*
X38683334Y-101452381D02*
X38350000Y-100976190D01*
X38111905Y-101452381D02*
X38111905Y-100452381D01*
X38492858Y-100452381D01*
X38588096Y-100500000D01*
X38635715Y-100547619D01*
X38683334Y-100642857D01*
X38683334Y-100785714D01*
X38635715Y-100880952D01*
X38588096Y-100928571D01*
X38492858Y-100976190D01*
X38111905Y-100976190D01*
X39016667Y-100452381D02*
X39683334Y-100452381D01*
X39254762Y-101452381D01*
X58902381Y-109916666D02*
X58426190Y-110250000D01*
X58902381Y-110488095D02*
X57902381Y-110488095D01*
X57902381Y-110107142D01*
X57950000Y-110011904D01*
X57997619Y-109964285D01*
X58092857Y-109916666D01*
X58235714Y-109916666D01*
X58330952Y-109964285D01*
X58378571Y-110011904D01*
X58426190Y-110107142D01*
X58426190Y-110488095D01*
X58330952Y-109345238D02*
X58283333Y-109440476D01*
X58235714Y-109488095D01*
X58140476Y-109535714D01*
X58092857Y-109535714D01*
X57997619Y-109488095D01*
X57950000Y-109440476D01*
X57902381Y-109345238D01*
X57902381Y-109154761D01*
X57950000Y-109059523D01*
X57997619Y-109011904D01*
X58092857Y-108964285D01*
X58140476Y-108964285D01*
X58235714Y-109011904D01*
X58283333Y-109059523D01*
X58330952Y-109154761D01*
X58330952Y-109345238D01*
X58378571Y-109440476D01*
X58426190Y-109488095D01*
X58521429Y-109535714D01*
X58711905Y-109535714D01*
X58807143Y-109488095D01*
X58854762Y-109440476D01*
X58902381Y-109345238D01*
X58902381Y-109154761D01*
X58854762Y-109059523D01*
X58807143Y-109011904D01*
X58711905Y-108964285D01*
X58521429Y-108964285D01*
X58426190Y-109011904D01*
X58378571Y-109059523D01*
X58330952Y-109154761D01*
X50833334Y-60752381D02*
X50500000Y-60276190D01*
X50261905Y-60752381D02*
X50261905Y-59752381D01*
X50642858Y-59752381D01*
X50738096Y-59800000D01*
X50785715Y-59847619D01*
X50833334Y-59942857D01*
X50833334Y-60085714D01*
X50785715Y-60180952D01*
X50738096Y-60228571D01*
X50642858Y-60276190D01*
X50261905Y-60276190D01*
X51309524Y-60752381D02*
X51500000Y-60752381D01*
X51595239Y-60704762D01*
X51642858Y-60657143D01*
X51738096Y-60514286D01*
X51785715Y-60323810D01*
X51785715Y-59942857D01*
X51738096Y-59847619D01*
X51690477Y-59800000D01*
X51595239Y-59752381D01*
X51404762Y-59752381D01*
X51309524Y-59800000D01*
X51261905Y-59847619D01*
X51214286Y-59942857D01*
X51214286Y-60180952D01*
X51261905Y-60276190D01*
X51309524Y-60323810D01*
X51404762Y-60371429D01*
X51595239Y-60371429D01*
X51690477Y-60323810D01*
X51738096Y-60276190D01*
X51785715Y-60180952D01*
X45952381Y-85642857D02*
X45476190Y-85976191D01*
X45952381Y-86214286D02*
X44952381Y-86214286D01*
X44952381Y-85833333D01*
X45000000Y-85738095D01*
X45047619Y-85690476D01*
X45142857Y-85642857D01*
X45285714Y-85642857D01*
X45380952Y-85690476D01*
X45428571Y-85738095D01*
X45476190Y-85833333D01*
X45476190Y-86214286D01*
X45952381Y-84690476D02*
X45952381Y-85261905D01*
X45952381Y-84976191D02*
X44952381Y-84976191D01*
X45095238Y-85071429D01*
X45190476Y-85166667D01*
X45238095Y-85261905D01*
X44952381Y-84071429D02*
X44952381Y-83976190D01*
X45000000Y-83880952D01*
X45047619Y-83833333D01*
X45142857Y-83785714D01*
X45333333Y-83738095D01*
X45571429Y-83738095D01*
X45761905Y-83785714D01*
X45857143Y-83833333D01*
X45904762Y-83880952D01*
X45952381Y-83976190D01*
X45952381Y-84071429D01*
X45904762Y-84166667D01*
X45857143Y-84214286D01*
X45761905Y-84261905D01*
X45571429Y-84309524D01*
X45333333Y-84309524D01*
X45142857Y-84261905D01*
X45047619Y-84214286D01*
X45000000Y-84166667D01*
X44952381Y-84071429D01*
X48952381Y-85642857D02*
X48476190Y-85976191D01*
X48952381Y-86214286D02*
X47952381Y-86214286D01*
X47952381Y-85833333D01*
X48000000Y-85738095D01*
X48047619Y-85690476D01*
X48142857Y-85642857D01*
X48285714Y-85642857D01*
X48380952Y-85690476D01*
X48428571Y-85738095D01*
X48476190Y-85833333D01*
X48476190Y-86214286D01*
X48952381Y-84690476D02*
X48952381Y-85261905D01*
X48952381Y-84976191D02*
X47952381Y-84976191D01*
X48095238Y-85071429D01*
X48190476Y-85166667D01*
X48238095Y-85261905D01*
X48952381Y-83738095D02*
X48952381Y-84309524D01*
X48952381Y-84023810D02*
X47952381Y-84023810D01*
X48095238Y-84119048D01*
X48190476Y-84214286D01*
X48238095Y-84309524D01*
X74357143Y-23152381D02*
X74023809Y-22676190D01*
X73785714Y-23152381D02*
X73785714Y-22152381D01*
X74166667Y-22152381D01*
X74261905Y-22200000D01*
X74309524Y-22247619D01*
X74357143Y-22342857D01*
X74357143Y-22485714D01*
X74309524Y-22580952D01*
X74261905Y-22628571D01*
X74166667Y-22676190D01*
X73785714Y-22676190D01*
X75309524Y-23152381D02*
X74738095Y-23152381D01*
X75023809Y-23152381D02*
X75023809Y-22152381D01*
X74928571Y-22295238D01*
X74833333Y-22390476D01*
X74738095Y-22438095D01*
X75690476Y-22247619D02*
X75738095Y-22200000D01*
X75833333Y-22152381D01*
X76071429Y-22152381D01*
X76166667Y-22200000D01*
X76214286Y-22247619D01*
X76261905Y-22342857D01*
X76261905Y-22438095D01*
X76214286Y-22580952D01*
X75642857Y-23152381D01*
X76261905Y-23152381D01*
X36666667Y-37654762D02*
X36809524Y-37702381D01*
X37047620Y-37702381D01*
X37142858Y-37654762D01*
X37190477Y-37607143D01*
X37238096Y-37511905D01*
X37238096Y-37416667D01*
X37190477Y-37321429D01*
X37142858Y-37273810D01*
X37047620Y-37226190D01*
X36857143Y-37178571D01*
X36761905Y-37130952D01*
X36714286Y-37083333D01*
X36666667Y-36988095D01*
X36666667Y-36892857D01*
X36714286Y-36797619D01*
X36761905Y-36750000D01*
X36857143Y-36702381D01*
X37095239Y-36702381D01*
X37238096Y-36750000D01*
X37571429Y-36702381D02*
X37809524Y-37702381D01*
X38000001Y-36988095D01*
X38190477Y-37702381D01*
X38428572Y-36702381D01*
X39333334Y-37702381D02*
X38761905Y-37702381D01*
X39047619Y-37702381D02*
X39047619Y-36702381D01*
X38952381Y-36845238D01*
X38857143Y-36940476D01*
X38761905Y-36988095D01*
X92038095Y-110852381D02*
X92038095Y-111661905D01*
X92085714Y-111757143D01*
X92133333Y-111804762D01*
X92228571Y-111852381D01*
X92419048Y-111852381D01*
X92514286Y-111804762D01*
X92561905Y-111757143D01*
X92609524Y-111661905D01*
X92609524Y-110852381D01*
X92990476Y-110852381D02*
X93609524Y-110852381D01*
X93276190Y-111233333D01*
X93419048Y-111233333D01*
X93514286Y-111280952D01*
X93561905Y-111328571D01*
X93609524Y-111423810D01*
X93609524Y-111661905D01*
X93561905Y-111757143D01*
X93514286Y-111804762D01*
X93419048Y-111852381D01*
X93133333Y-111852381D01*
X93038095Y-111804762D01*
X92990476Y-111757143D01*
X73402381Y-94261905D02*
X74211905Y-94261905D01*
X74307143Y-94214286D01*
X74354762Y-94166667D01*
X74402381Y-94071429D01*
X74402381Y-93880952D01*
X74354762Y-93785714D01*
X74307143Y-93738095D01*
X74211905Y-93690476D01*
X73402381Y-93690476D01*
X73735714Y-92785714D02*
X74402381Y-92785714D01*
X73354762Y-93023810D02*
X74069048Y-93261905D01*
X74069048Y-92642857D01*
X41523809Y-113276190D02*
X41523809Y-113752381D01*
X41190476Y-112752381D02*
X41523809Y-113276190D01*
X41857143Y-112752381D01*
X42714286Y-113752381D02*
X42142857Y-113752381D01*
X42428571Y-113752381D02*
X42428571Y-112752381D01*
X42333333Y-112895238D01*
X42238095Y-112990476D01*
X42142857Y-113038095D01*
M02*
