M48
;DRILL file {KiCad 4.0.7} date 12/21/18 13:01:10
;FORMAT={-:-/ absolute / metric / decimal}
FMAT,2
METRIC,TZ
T1C0.400
T2C0.650
T3C0.800
T4C1.000
T5C1.100
T6C1.400
%
G90
G05
M71
T1
X42.45Y-103.85
X51.8Y-103.325
X51.85Y-93.2
X54.386Y-87.905
X54.631Y-95.574
X54.631Y-108.218
X59.163Y-99.925
X59.416Y-99.091
X60.369Y-99.077
X60.857Y-98.293
X61.5Y-94.35
X62.Y-28.
X63.45Y-83.3
X64.Y-88.7
X64.Y-97.925
X64.6Y-102.6
X66.15Y-102.875
X66.225Y-107.225
X67.195Y-98.
X67.4Y-83.625
X67.5Y-28.
X67.5Y-36.75
X67.5Y-40.75
X68.174Y-99.835
X68.799Y-99.201
X69.737Y-102.453
X69.778Y-99.88
X70.566Y-98.659
X71.366Y-100.166
X72.1Y-85.5
X72.3Y-82.7
X72.3Y-83.8
X73.464Y-98.5
X74.196Y-99.5
X74.8Y-82.7
X74.8Y-83.8
X77.5Y-81.7
X78.5Y-92.
X88.4Y-108.4
T2
X52.4Y-54.8
X59.75Y-81.5
X82.5Y-87.5
X82.5Y-88.77
X82.5Y-90.04
X82.5Y-91.31
T3
X57.Y-43.4
X57.Y-45.94
X57.Y-48.48
X57.Y-51.02
X57.Y-53.56
X57.Y-56.1
X57.Y-58.64
X57.Y-61.18
X57.Y-63.72
X57.Y-66.26
X57.Y-68.8
X57.Y-71.34
X57.Y-73.88
X57.Y-76.42
X72.24Y-43.4
X72.24Y-45.94
X72.24Y-48.48
X72.24Y-51.02
X72.24Y-53.56
X72.24Y-56.1
X72.24Y-58.64
X72.24Y-61.18
X72.24Y-63.72
X72.24Y-66.26
X72.24Y-68.8
X72.24Y-71.34
X72.24Y-73.88
X72.24Y-76.42
X80.75Y-43.5
X80.75Y-46.
X90.3Y-43.6
X90.3Y-46.1
T4
X48.5Y-95.25
X48.5Y-97.79
X62.5Y-33.5
X64.Y-24.5
X65.04Y-33.5
X66.54Y-24.5
X67.58Y-33.5
X82.Y-33.71
X82.Y-36.25
X84.7Y-74.52
X84.7Y-77.06
X84.7Y-79.6
X89.84Y-93.5
X89.84Y-96.04
X90.4Y-33.66
X90.4Y-36.2
X92.38Y-93.5
X92.38Y-96.04
X94.92Y-93.5
X94.92Y-96.04
X97.46Y-93.5
X97.46Y-96.04
X100.Y-93.5
X100.Y-96.04
X103.125Y-103.875
X103.125Y-106.415
T5
X34.75Y-30.75
X34.75Y-35.25
X41.25Y-30.75
X41.25Y-35.25
T6
X38.Y-43.43
X38.Y-63.75
X38.Y-73.93
X38.Y-94.25
T0
M30
