G04 #@! TF.FileFunction,Soldermask,Top*
%FSLAX46Y46*%
G04 Gerber Fmt 4.6, Leading zero omitted, Abs format (unit mm)*
G04 Created by KiCad (PCBNEW 4.0.7) date 12/21/18 13:01:04*
%MOMM*%
%LPD*%
G01*
G04 APERTURE LIST*
%ADD10C,0.100000*%
%ADD11R,1.400000X1.400000*%
%ADD12O,1.400000X1.400000*%
%ADD13R,2.000000X1.400000*%
%ADD14R,2.000000X2.000000*%
%ADD15O,2.000000X2.000000*%
%ADD16R,1.900000X1.650000*%
%ADD17R,2.100000X2.100000*%
%ADD18O,2.100000X2.100000*%
%ADD19R,2.200000X2.200000*%
%ADD20O,2.200000X2.200000*%
%ADD21R,1.900000X1.700000*%
%ADD22C,2.000000*%
%ADD23C,3.200000*%
%ADD24O,3.200000X3.200000*%
%ADD25R,1.650000X1.900000*%
%ADD26R,2.400000X2.100000*%
%ADD27R,1.700000X1.900000*%
%ADD28C,2.400000*%
%ADD29R,2.400000X2.180000*%
%ADD30R,0.700000X1.900000*%
%ADD31R,1.900000X0.700000*%
%ADD32R,8.275000X2.400000*%
G04 APERTURE END LIST*
D10*
D11*
X82500000Y-87500000D03*
D12*
X82500000Y-88770000D03*
X82500000Y-90040000D03*
X82500000Y-91310000D03*
D13*
X85500000Y-46200000D03*
X85500000Y-43200000D03*
D14*
X57000000Y-43400000D03*
D15*
X72240000Y-76420000D03*
X57000000Y-45940000D03*
X72240000Y-73880000D03*
X57000000Y-48480000D03*
X72240000Y-71340000D03*
X57000000Y-51020000D03*
X72240000Y-68800000D03*
X57000000Y-53560000D03*
X72240000Y-66260000D03*
X57000000Y-56100000D03*
X72240000Y-63720000D03*
X57000000Y-58640000D03*
X72240000Y-61180000D03*
X57000000Y-61180000D03*
X72240000Y-58640000D03*
X57000000Y-63720000D03*
X72240000Y-56100000D03*
X57000000Y-66260000D03*
X72240000Y-53560000D03*
X57000000Y-68800000D03*
X72240000Y-51020000D03*
X57000000Y-71340000D03*
X72240000Y-48480000D03*
X57000000Y-73880000D03*
X72240000Y-45940000D03*
X57000000Y-76420000D03*
X72240000Y-43400000D03*
D16*
X74750000Y-39500000D03*
X72250000Y-39500000D03*
X74850000Y-33500000D03*
X72350000Y-33500000D03*
D17*
X64000000Y-24500000D03*
D18*
X66540000Y-24500000D03*
D19*
X62500000Y-33500000D03*
D20*
X65040000Y-33500000D03*
X67580000Y-33500000D03*
D16*
X54750000Y-36300000D03*
X57250000Y-36300000D03*
X54750000Y-33600000D03*
X57250000Y-33600000D03*
X80050000Y-51000000D03*
X77550000Y-51000000D03*
X63450000Y-82100000D03*
X65950000Y-82100000D03*
X51250000Y-90000000D03*
X53750000Y-90000000D03*
D21*
X43100000Y-24500000D03*
X40400000Y-24500000D03*
D16*
X77550000Y-53600000D03*
X80050000Y-53600000D03*
X77550000Y-56200000D03*
X80050000Y-56200000D03*
D14*
X80750000Y-46000000D03*
D22*
X80750000Y-43500000D03*
D23*
X38000000Y-63750000D03*
D24*
X38000000Y-43430000D03*
D23*
X38000000Y-94250000D03*
D24*
X38000000Y-73930000D03*
D14*
X90300000Y-43600000D03*
D22*
X90300000Y-46100000D03*
D25*
X77500000Y-100250000D03*
X77500000Y-97750000D03*
D16*
X66050000Y-104000000D03*
X63550000Y-104000000D03*
X78650000Y-86900000D03*
X76150000Y-86900000D03*
X38150000Y-104800000D03*
X40650000Y-104800000D03*
X46400000Y-104850000D03*
X43900000Y-104850000D03*
X35250000Y-24500000D03*
X32750000Y-24500000D03*
X81450000Y-84300000D03*
X83950000Y-84300000D03*
D21*
X80150000Y-74500000D03*
X77450000Y-74500000D03*
D11*
X98125000Y-106375000D03*
X98125000Y-103875000D03*
D21*
X82350000Y-24400000D03*
X79650000Y-24400000D03*
D17*
X82000000Y-36250000D03*
D18*
X82000000Y-33710000D03*
D17*
X84700000Y-79600000D03*
D18*
X84700000Y-77060000D03*
X84700000Y-74520000D03*
D17*
X103125000Y-103875000D03*
D18*
X103125000Y-106415000D03*
D17*
X100000000Y-93500000D03*
D18*
X100000000Y-96040000D03*
X97460000Y-93500000D03*
X97460000Y-96040000D03*
X94920000Y-93500000D03*
X94920000Y-96040000D03*
X92380000Y-93500000D03*
X92380000Y-96040000D03*
X89840000Y-93500000D03*
X89840000Y-96040000D03*
D17*
X90400000Y-36200000D03*
D18*
X90400000Y-33660000D03*
D17*
X48500000Y-95250000D03*
D18*
X48500000Y-97790000D03*
D11*
X52400000Y-54800000D03*
X59750000Y-81500000D03*
D26*
X73300000Y-80500000D03*
X69300000Y-80500000D03*
D21*
X98050000Y-111200000D03*
X100750000Y-111200000D03*
D27*
X77500000Y-80350000D03*
X77500000Y-77650000D03*
X80400000Y-103650000D03*
X80400000Y-106350000D03*
D21*
X85650000Y-113200000D03*
X88350000Y-113200000D03*
X43750000Y-100900000D03*
X41050000Y-100900000D03*
D27*
X56750000Y-108400000D03*
X56750000Y-111100000D03*
D21*
X52350000Y-58600000D03*
X49650000Y-58600000D03*
D27*
X45500000Y-87650000D03*
X45500000Y-90350000D03*
X48500000Y-87650000D03*
X48500000Y-90350000D03*
D21*
X73650000Y-24400000D03*
X76350000Y-24400000D03*
D28*
X41250000Y-30750000D03*
X41250000Y-35250000D03*
X34750000Y-30750000D03*
X34750000Y-35250000D03*
D29*
X93185000Y-108935000D03*
X85565000Y-101315000D03*
X93185000Y-106395000D03*
X85565000Y-103855000D03*
X93185000Y-103855000D03*
X85565000Y-106395000D03*
X93185000Y-101315000D03*
X85565000Y-108935000D03*
D30*
X70500000Y-85800000D03*
X70000000Y-85800000D03*
X69500000Y-85800000D03*
X69000000Y-85800000D03*
X68500000Y-85800000D03*
X68000000Y-85800000D03*
X67500000Y-85800000D03*
X67000000Y-85800000D03*
X66500000Y-85800000D03*
X66000000Y-85800000D03*
X65500000Y-85800000D03*
X65000000Y-85800000D03*
X64500000Y-85800000D03*
X64000000Y-85800000D03*
X63500000Y-85800000D03*
X63000000Y-85800000D03*
X62500000Y-85800000D03*
X62000000Y-85800000D03*
X61500000Y-85800000D03*
X61000000Y-85800000D03*
X60500000Y-85800000D03*
X60000000Y-85800000D03*
X59500000Y-85800000D03*
X59000000Y-85800000D03*
X58500000Y-85800000D03*
D31*
X56800000Y-87500000D03*
X56800000Y-88000000D03*
X56800000Y-88500000D03*
X56800000Y-89000000D03*
X56800000Y-89500000D03*
X56800000Y-90000000D03*
X56800000Y-90500000D03*
X56800000Y-91000000D03*
X56800000Y-91500000D03*
X56800000Y-92000000D03*
X56800000Y-92500000D03*
X56800000Y-93000000D03*
X56800000Y-93500000D03*
X56800000Y-94000000D03*
X56800000Y-94500000D03*
X56800000Y-95000000D03*
X56800000Y-95500000D03*
X56800000Y-96000000D03*
X56800000Y-96500000D03*
X56800000Y-97000000D03*
X56800000Y-97500000D03*
X56800000Y-98000000D03*
X56800000Y-98500000D03*
X56800000Y-99000000D03*
X56800000Y-99500000D03*
D30*
X58500000Y-101200000D03*
X59000000Y-101200000D03*
X59500000Y-101200000D03*
X60000000Y-101200000D03*
X60500000Y-101200000D03*
X61000000Y-101200000D03*
X61500000Y-101200000D03*
X62000000Y-101200000D03*
X62500000Y-101200000D03*
X63000000Y-101200000D03*
X63500000Y-101200000D03*
X64000000Y-101200000D03*
X64500000Y-101200000D03*
X65000000Y-101200000D03*
X65500000Y-101200000D03*
X66000000Y-101200000D03*
X66500000Y-101200000D03*
X67000000Y-101200000D03*
X67500000Y-101200000D03*
X68000000Y-101200000D03*
X68500000Y-101200000D03*
X69000000Y-101200000D03*
X69500000Y-101200000D03*
X70000000Y-101200000D03*
X70500000Y-101200000D03*
D31*
X72200000Y-99500000D03*
X72200000Y-99000000D03*
X72200000Y-98500000D03*
X72200000Y-98000000D03*
X72200000Y-97500000D03*
X72200000Y-97000000D03*
X72200000Y-96500000D03*
X72200000Y-96000000D03*
X72200000Y-95500000D03*
X72200000Y-95000000D03*
X72200000Y-94500000D03*
X72200000Y-94000000D03*
X72200000Y-93500000D03*
X72200000Y-93000000D03*
X72200000Y-92500000D03*
X72200000Y-92000000D03*
X72200000Y-91500000D03*
X72200000Y-91000000D03*
X72200000Y-90500000D03*
X72200000Y-90000000D03*
X72200000Y-89500000D03*
X72200000Y-89000000D03*
X72200000Y-88500000D03*
X72200000Y-88000000D03*
X72200000Y-87500000D03*
D32*
X47937500Y-109750000D03*
X36062500Y-109750000D03*
M02*
